NunitoSans-XminBlack.ufo
<glyph name="percent" format="2">
  <advance width="963.5180722891566"/>
  <unicode hex="0025"/>
  <outline>
    <contour>
      <point x="333.5421686746988" y="-31.831325301204817" type="line"/>
      <point x="741.3493975903614" y="671.5903614457832" type="line"/>
      <point x="630.3373493975904" y="736.8313253012047" type="line"/>
      <point x="222.1686746987952" y="33.40963855421687" type="line"/>
    </contour>
    <contour>
      <point x="217.5301204819277" y="285.2771084337349" type="curve" smooth="yes"/>
      <point x="336.55421686746985" y="285.2771084337349"/>
      <point x="405.7469879518072" y="371.10843373493975"/>
      <point x="405.7469879518072" y="501.91566265060237" type="curve" smooth="yes"/>
      <point x="405.7469879518072" y="631.0843373493975"/>
      <point x="335.9156626506024" y="716.277108433735"/>
      <point x="217.5301204819277" y="716.277108433735" type="curve" smooth="yes"/>
      <point x="99.78313253012048" y="716.277108433735"/>
      <point x="29.313253012048197" y="633.6385542168674"/>
      <point x="29.313253012048197" y="501.91566265060237" type="curve" smooth="yes"/>
      <point x="29.313253012048197" y="371.10843373493975"/>
      <point x="98.50602409638554" y="285.2771084337349"/>
    </contour>
    <contour>
      <point x="217.5301204819277" y="394.81927710843377" type="curve" smooth="yes"/>
      <point x="186.77108433734938" y="394.81927710843377"/>
      <point x="170.26506024096386" y="421.13253012048193"/>
      <point x="170.26506024096386" y="501.91566265060237" type="curve" smooth="yes"/>
      <point x="170.26506024096386" y="582.3373493975903"/>
      <point x="186.77108433734938" y="606.7349397590363"/>
      <point x="217.5301204819277" y="606.7349397590363" type="curve" smooth="yes"/>
      <point x="247.65060240963854" y="606.7349397590363"/>
      <point x="264.7951807228916" y="580.0602409638554"/>
      <point x="264.7951807228916" y="501.91566265060237" type="curve" smooth="yes"/>
      <point x="264.7951807228916" y="423.4096385542168"/>
      <point x="248.289156626506" y="394.81927710843377"/>
    </contour>
    <contour>
      <point x="746.3493975903615" y="-11.27710843373494" type="curve" smooth="yes"/>
      <point x="865.3734939759037" y="-11.27710843373494"/>
      <point x="934.566265060241" y="74.55421686746988"/>
      <point x="934.566265060241" y="205.36144578313255" type="curve" smooth="yes"/>
      <point x="934.566265060241" y="334.53012048192767"/>
      <point x="864.7349397590361" y="419.72289156626505"/>
      <point x="746.3493975903615" y="419.72289156626505" type="curve" smooth="yes"/>
      <point x="628.6024096385543" y="419.72289156626505"/>
      <point x="558.1325301204819" y="337.0843373493976"/>
      <point x="558.1325301204819" y="205.36144578313255" type="curve" smooth="yes"/>
      <point x="558.1325301204819" y="74.55421686746988"/>
      <point x="627.3253012048192" y="-11.27710843373494"/>
    </contour>
    <contour>
      <point x="746.3493975903615" y="98.26506024096386" type="curve" smooth="yes"/>
      <point x="715.5903614457832" y="98.26506024096386"/>
      <point x="699.0843373493976" y="124.57831325301204"/>
      <point x="699.0843373493976" y="205.36144578313255" type="curve" smooth="yes"/>
      <point x="699.0843373493976" y="285.7831325301205"/>
      <point x="715.5903614457832" y="310.1807228915663"/>
      <point x="746.3493975903615" y="310.1807228915663" type="curve" smooth="yes"/>
      <point x="776.4698795180724" y="310.1807228915663"/>
      <point x="793.6144578313254" y="283.50602409638554"/>
      <point x="793.6144578313254" y="205.36144578313255" type="curve" smooth="yes"/>
      <point x="793.6144578313254" y="126.85542168674698"/>
      <point x="777.1084337349398" y="98.26506024096386"/>
    </contour>
  </outline>
</glyph>
<glyph name="five" format="2">
  <advance width="600.0"/>
  <unicode hex="0035"/>
  <outline>
    <contour>
      <point x="295.144578313253" y="-11.27710843373494" type="curve" smooth="yes"/>
      <point x="466.55421686746985" y="-11.27710843373494"/>
      <point x="572.8554216867469" y="84.0"/>
      <point x="572.8554216867469" y="229.38554216867468" type="curve" smooth="yes"/>
      <point x="572.8554216867469" y="364.6626506024096"/>
      <point x="481.0240963855422" y="455.6626506024096"/>
      <point x="346.7469879518072" y="455.6626506024096" type="curve" smooth="yes"/>
      <point x="285.0481927710843" y="455.6626506024096"/>
      <point x="231.1566265060241" y="435.04819277108436"/>
      <point x="199.07228915662648" y="399.26506024096386" type="curve"/>
      <point x="241.01204819277106" y="399.26506024096386" type="line"/>
      <point x="241.01204819277106" y="555.5783132530121" type="line"/>
      <point x="527.9397590361446" y="555.5783132530121" type="line"/>
      <point x="527.9397590361446" y="705.0" type="line"/>
      <point x="68.12048192771084" y="705.0" type="line"/>
      <point x="68.12048192771084" y="263.86746987951807" type="line"/>
      <point x="182.85542168674698" y="263.86746987951807" type="line"/>
      <point x="216.66265060240966" y="294.18072289156623"/>
      <point x="254.0" y="309.79518072289153"/>
      <point x="298.86746987951807" y="309.79518072289153" type="curve" smooth="yes"/>
      <point x="359.34939759036143" y="309.79518072289153"/>
      <point x="397.7710843373494" y="276.6746987951807"/>
      <point x="397.7710843373494" y="223.74698795180723" type="curve" smooth="yes"/>
      <point x="397.7710843373494" y="171.18072289156626"/>
      <point x="358.6265060240964" y="139.50602409638554"/>
      <point x="291.2289156626506" y="139.50602409638554" type="curve" smooth="yes"/>
      <point x="226.97590361445785" y="139.50602409638554"/>
      <point x="161.97590361445785" y="161.2289156626506"/>
      <point x="104.16867469879519" y="201.20481927710844" type="curve"/>
      <point x="48.12048192771084" y="64.25301204819277" type="line"/>
      <point x="101.84337349397589" y="19.08433734939759"/>
      <point x="201.22891566265062" y="-11.27710843373494"/>
    </contour>
  </outline>
</glyph>
<glyph name="nine" format="2">
  <advance width="600.0"/>
  <unicode hex="0039"/>
  <outline>
    <contour>
      <point x="238.33734939759037" y="-11.27710843373494" type="curve" smooth="yes"/>
      <point x="440.7469879518072" y="-11.27710843373494"/>
      <point x="562.0481927710844" y="126.36144578313252"/>
      <point x="562.0481927710844" y="359.2530120481928" type="curve" smooth="yes"/>
      <point x="562.0481927710844" y="586.3614457831325"/>
      <point x="457.6626506024096" y="716.277108433735"/>
      <point x="272.08433734939763" y="716.277108433735" type="curve" smooth="yes"/>
      <point x="129.06024096385542" y="716.277108433735"/>
      <point x="28.2289156626506" y="614.4457831325301"/>
      <point x="28.2289156626506" y="471.3373493975904" type="curve" smooth="yes"/>
      <point x="28.2289156626506" y="339.0602409638554"/>
      <point x="117.2289156626506" y="241.50602409638554"/>
      <point x="232.75903614457832" y="241.50602409638554" type="curve" smooth="yes"/>
      <point x="320.9036144578313" y="241.50602409638554"/>
      <point x="388.2409638554217" y="292.65060240963857"/>
      <point x="405.433734939759" y="378.3253012048193" type="curve"/>
      <point x="390.6024096385542" y="378.3253012048193" type="line"/>
      <point x="390.6024096385542" y="325.6746987951807" type="line" smooth="yes"/>
      <point x="390.6024096385542" y="202.34939759036146"/>
      <point x="339.73493975903614" y="139.50602409638554"/>
      <point x="239.97590361445785" y="139.50602409638554" type="curve" smooth="yes"/>
      <point x="185.1686746987952" y="139.50602409638554"/>
      <point x="129.72289156626508" y="158.67469879518072"/>
      <point x="81.72289156626506" y="196.01204819277106" type="curve"/>
      <point x="24.674698795180724" y="61.6987951807229" type="line"/>
      <point x="83.42168674698796" y="14.253012048192772"/>
      <point x="160.78313253012047" y="-11.27710843373494"/>
    </contour>
    <contour>
      <point x="282.0" y="381.81927710843377" type="curve" smooth="yes"/>
      <point x="230.43373493975903" y="381.81927710843377"/>
      <point x="196.12048192771084" y="420.4096385542168"/>
      <point x="196.12048192771084" y="478.89156626506025" type="curve" smooth="yes"/>
      <point x="196.12048192771084" y="537.3734939759036"/>
      <point x="230.43373493975903" y="576.3253012048193"/>
      <point x="282.0" y="576.3253012048193" type="curve" smooth="yes"/>
      <point x="333.566265060241" y="576.3253012048193"/>
      <point x="367.87951807228916" y="537.3734939759036"/>
      <point x="367.87951807228916" y="478.89156626506025" type="curve" smooth="yes"/>
      <point x="367.87951807228916" y="420.4096385542168"/>
      <point x="333.566265060241" y="381.81927710843377"/>
    </contour>
  </outline>
</glyph>
<glyph name="colon" format="2">
  <advance width="271.6265060240964"/>
  <unicode hex="003A"/>
  <outline>
    <contour>
      <point x="43.14457831325302" y="273.2409638554217" type="line"/>
      <point x="228.48192771084337" y="273.2409638554217" type="line"/>
      <point x="228.48192771084337" y="442.1927710843374" type="line"/>
      <point x="43.14457831325302" y="442.1927710843374" type="line"/>
    </contour>
    <contour>
      <point x="43.14457831325302" y="0.0" type="line"/>
      <point x="228.48192771084337" y="0.0" type="line"/>
      <point x="228.48192771084337" y="169.3132530120482" type="line"/>
      <point x="43.14457831325302" y="169.3132530120482" type="line"/>
    </contour>
  </outline>
</glyph>
<glyph name="question" format="2">
  <advance width="478.15662650602405"/>
  <unicode hex="003F"/>
  <outline>
    <contour>
      <point x="184.27710843373492" y="238.3734939759036" type="line"/>
      <point x="289.0120481927711" y="238.3734939759036" type="line"/>
      <point x="294.92771084337346" y="270.84337349397595" type="line" smooth="yes"/>
      <point x="300.28915662650604" y="300.71084337349396"/>
      <point x="316.73493975903614" y="333.04819277108436"/>
      <point x="379.09638554216866" y="379.1927710843374" type="curve" smooth="yes"/>
      <point x="449.3734939759036" y="431.3373493975904"/>
      <point x="473.3734939759036" y="479.3373493975904"/>
      <point x="473.3734939759036" y="540.0602409638554" type="curve" smooth="yes"/>
      <point x="473.3734939759036" y="644.8072289156627"/>
      <point x="379.43373493975906" y="716.277108433735"/>
      <point x="240.66265060240966" y="716.277108433735" type="curve" smooth="yes"/>
      <point x="155.3012048192771" y="716.277108433735"/>
      <point x="62.46987951807229" y="686.4698795180723"/>
      <point x="1.3614457831325302" y="638.0240963855422" type="curve"/>
      <point x="58.04819277108433" y="503.710843373494" type="line"/>
      <point x="112.40963855421685" y="545.3253012048192"/>
      <point x="168.21686746987953" y="565.4939759036145"/>
      <point x="226.91566265060243" y="565.4939759036145" type="curve" smooth="yes"/>
      <point x="270.2289156626506" y="565.4939759036145"/>
      <point x="293.3734939759036" y="548.0722891566265"/>
      <point x="293.3734939759036" y="518.1204819277109" type="curve" smooth="yes"/>
      <point x="293.3734939759036" y="493.2530120481928"/>
      <point x="281.566265060241" y="473.1927710843374"/>
      <point x="249.78313253012047" y="439.6024096385542" type="curve" smooth="yes"/>
      <point x="202.72289156626508" y="390.6506024096385"/>
      <point x="184.27710843373492" y="347.39759036144574"/>
      <point x="184.27710843373492" y="291.7831325301205" type="curve" smooth="yes"/>
    </contour>
    <contour>
      <point x="143.97590361445785" y="0.0" type="line"/>
      <point x="329.31325301204816" y="0.0" type="line"/>
      <point x="329.31325301204816" y="182.42168674698794" type="line"/>
      <point x="143.97590361445785" y="182.42168674698794" type="line"/>
    </contour>
  </outline>
</glyph>
<glyph name="D" format="2">
  <advance width="786.2650602409639"/>
  <unicode hex="0044"/>
  <anchor x="389.2168674698795" y="0.0" name="bottom"/>
  <anchor x="206.04819277108433" y="358.0" name="center"/>
  <anchor x="389.2168674698795" y="705.0" name="top"/>
  <outline>
    <contour>
      <point x="64.2289156626506" y="0.0" type="line"/>
      <point x="355.6024096385542" y="0.0" type="line" smooth="yes"/>
      <point x="600.5421686746988" y="0.0"/>
      <point x="740.9277108433735" y="128.9156626506024"/>
      <point x="740.9277108433735" y="353.0" type="curve" smooth="yes"/>
      <point x="740.9277108433735" y="576.4457831325301"/>
      <point x="600.5421686746988" y="705.0"/>
      <point x="355.6024096385542" y="705.0" type="curve" smooth="yes"/>
      <point x="64.2289156626506" y="705.0" type="line"/>
    </contour>
    <contour>
      <point x="247.7831325301205" y="149.42168674698794" type="line"/>
      <point x="247.7831325301205" y="555.5783132530121" type="line"/>
      <point x="344.4096385542168" y="555.5783132530121" type="line" smooth="yes"/>
      <point x="482.50602409638554" y="555.5783132530121"/>
      <point x="550.0963855421687" y="490.54216867469876"/>
      <point x="550.0963855421687" y="353.0" type="curve" smooth="yes"/>
      <point x="550.0963855421687" y="215.45783132530119"/>
      <point x="483.50602409638554" y="149.42168674698794"/>
      <point x="344.4096385542168" y="149.42168674698794" type="curve" smooth="yes"/>
    </contour>
  </outline>
</glyph>
<glyph name="E" format="2">
  <advance width="614.2409638554217"/>
  <unicode hex="0045"/>
  <anchor x="333.10843373493975" y="0.0" name="bottom"/>
  <anchor x="503.10843373493975" y="0.0" name="ogonek"/>
  <anchor x="333.10843373493975" y="705.0" name="top"/>
  <anchor x="19.80722891566265" y="705.0" name="topleft"/>
  <outline>
    <contour>
      <point x="64.2289156626506" y="0.0" type="line"/>
      <point x="561.9638554216867" y="0.0" type="line"/>
      <point x="561.9638554216867" y="141.59036144578312" type="line"/>
      <point x="239.59036144578315" y="141.59036144578312" type="line"/>
      <point x="239.59036144578315" y="287.20481927710847" type="line"/>
      <point x="539.3253012048193" y="287.20481927710847" type="line"/>
      <point x="539.3253012048193" y="428.7951807228916" type="line"/>
      <point x="239.59036144578315" y="428.7951807228916" type="line"/>
      <point x="239.59036144578315" y="563.4096385542168" type="line"/>
      <point x="561.9638554216867" y="563.4096385542168" type="line"/>
      <point x="561.9638554216867" y="705.0" type="line"/>
      <point x="64.2289156626506" y="705.0" type="line"/>
    </contour>
  </outline>
</glyph>
<glyph name="F" format="2">
  <advance width="578.6024096385541"/>
  <unicode hex="0046"/>
  <anchor x="303.83132530120486" y="0.0" name="bottom"/>
  <anchor x="308.7469879518072" y="705.0" name="top"/>
  <outline>
    <contour>
      <point x="64.2289156626506" y="0.0" type="line"/>
      <point x="247.7831325301205" y="0.0" type="line"/>
      <point x="247.7831325301205" y="279.65060240963857" type="line"/>
      <point x="533.6024096385543" y="279.65060240963857" type="line"/>
      <point x="533.6024096385543" y="421.2409638554217" type="line"/>
      <point x="247.7831325301205" y="421.2409638554217" type="line"/>
      <point x="247.7831325301205" y="563.4096385542168" type="line"/>
      <point x="555.8795180722892" y="563.4096385542168" type="line"/>
      <point x="555.8795180722892" y="705.0" type="line"/>
      <point x="64.2289156626506" y="705.0" type="line"/>
    </contour>
  </outline>
</glyph>
<glyph name="G" format="2">
  <advance width="747.4939759036145"/>
  <unicode hex="0047"/>
  <anchor x="419.49397590361446" y="0.0" name="bottom"/>
  <anchor x="412.49397590361446" y="705.0" name="top"/>
  <outline>
    <contour>
      <point x="424.30120481927713" y="-11.27710843373494" type="curve" smooth="yes"/>
      <point x="517.4096385542168" y="-11.27710843373494"/>
      <point x="613.4096385542169" y="8.084337349397591"/>
      <point x="687.9879518072289" y="43.27710843373494" type="curve"/>
      <point x="687.9879518072289" y="396.96385542168673" type="line"/>
      <point x="396.6385542168675" y="396.96385542168673" type="line"/>
      <point x="396.6385542168675" y="268.12048192771084" type="line"/>
      <point x="538.2048192771084" y="268.12048192771084" type="line"/>
      <point x="538.2048192771084" y="96.62650602409639" type="line"/>
      <point x="571.5060240963855" y="166.3975903614458" type="line"/>
      <point x="523.3373493975903" y="151.2289156626506"/>
      <point x="475.0" y="142.78313253012047"/>
      <point x="434.7710843373494" y="142.78313253012047" type="curve" smooth="yes"/>
      <point x="304.6746987951807" y="142.78313253012047"/>
      <point x="236.53012048192772" y="213.18072289156626"/>
      <point x="236.53012048192772" y="349.08433734939763" type="curve" smooth="yes"/>
      <point x="236.53012048192772" y="485.5421686746988"/>
      <point x="302.3975903614458" y="558.9397590361446"/>
      <point x="437.34939759036143" y="558.9397590361446" type="curve" smooth="yes"/>
      <point x="507.68674698795184" y="558.9397590361446"/>
      <point x="568.132530120482" y="542.132530120482"/>
      <point x="629.8554216867469" y="502.07228915662654" type="curve"/>
      <point x="685.6265060240963" y="643.5783132530121" type="line"/>
      <point x="630.5421686746988" y="687.5542168674699"/>
      <point x="534.433734939759" y="716.277108433735"/>
      <point x="436.07228915662654" y="716.277108433735" type="curve" smooth="yes"/>
      <point x="190.55421686746988" y="716.277108433735"/>
      <point x="45.6987951807229" y="572.722891566265"/>
      <point x="45.6987951807229" y="349.08433734939763" type="curve" smooth="yes"/>
      <point x="45.6987951807229" y="133.83132530120483"/>
      <point x="181.36144578313252" y="-11.27710843373494"/>
    </contour>
  </outline>
</glyph>
<glyph name="H" format="2">
  <advance width="786.4096385542168"/>
  <unicode hex="0048"/>
  <anchor x="393.3855421686747" y="0.0" name="bottom"/>
  <anchor x="393.3855421686747" y="569.9397590361446" name="center"/>
  <anchor x="393.0240963855422" y="705.0" name="top"/>
  <anchor x="19.80722891566265" y="705.0" name="topleft"/>
  <outline>
    <contour>
      <point x="64.2289156626506" y="0.0" type="line"/>
      <point x="247.7831325301205" y="0.0" type="line"/>
      <point x="247.7831325301205" y="281.6506024096385" type="line"/>
      <point x="538.6265060240964" y="281.6506024096385" type="line"/>
      <point x="538.6265060240964" y="0.0" type="line"/>
      <point x="722.1807228915663" y="0.0" type="line"/>
      <point x="722.1807228915663" y="705.0" type="line"/>
      <point x="538.6265060240964" y="705.0" type="line"/>
      <point x="538.6265060240964" y="432.71084337349396" type="line"/>
      <point x="247.7831325301205" y="432.71084337349396" type="line"/>
      <point x="247.7831325301205" y="705.0" type="line"/>
      <point x="64.2289156626506" y="705.0" type="line"/>
    </contour>
  </outline>
</glyph>
<glyph name="I" format="2">
  <advance width="311.65060240963857"/>
  <unicode hex="0049"/>
  <anchor x="155.6867469879518" y="0.0" name="bottom"/>
  <anchor x="202.90361445783134" y="0.0" name="ogonek"/>
  <anchor x="155.6867469879518" y="705.0" name="top"/>
  <anchor x="19.807228915662648" y="705.0" name="topleft"/>
  <outline>
    <contour>
      <point x="64.2289156626506" y="0.0" type="line"/>
      <point x="247.7831325301205" y="0.0" type="line"/>
      <point x="247.7831325301205" y="705.0" type="line"/>
      <point x="64.2289156626506" y="705.0" type="line"/>
    </contour>
  </outline>
</glyph>
<glyph name="L" format="2">
  <advance width="584.9879518072289"/>
  <unicode hex="004C"/>
  <anchor x="313.1927710843374" y="0.0" name="bottom"/>
  <anchor x="202.96385542168676" y="387.0" name="center"/>
  <anchor x="450.5421686746988" y="399.10843373493975" name="dot"/>
  <anchor x="155.6867469879518" y="705.0" name="top"/>
  <anchor x="343.566265060241" y="705.0" name="topright"/>
  <outline>
    <contour>
      <point x="64.2289156626506" y="0.0" type="line"/>
      <point x="561.5180722891566" y="0.0" type="line"/>
      <point x="561.5180722891566" y="153.0602409638554" type="line"/>
      <point x="247.7831325301205" y="153.0602409638554" type="line"/>
      <point x="247.7831325301205" y="705.0" type="line"/>
      <point x="64.2289156626506" y="705.0" type="line"/>
    </contour>
  </outline>
</glyph>
<glyph name="M" format="2">
  <advance width="883.9638554216867"/>
  <unicode hex="004D"/>
  <anchor x="442.6626506024096" y="0.0" name="bottom"/>
  <anchor x="442.6626506024096" y="705.0" name="top"/>
  <outline>
    <contour>
      <point x="66.2289156626506" y="0.0" type="line"/>
      <point x="232.03614457831327" y="0.0" type="line"/>
      <point x="232.03614457831327" y="419.5783132530121" type="line"/>
      <point x="208.67469879518072" y="419.5783132530121" type="line"/>
      <point x="391.2530120481928" y="104.44578313253012" type="line"/>
      <point x="491.15662650602405" y="104.44578313253012" type="line"/>
      <point x="673.0120481927711" y="419.21686746987956" type="line"/>
      <point x="652.289156626506" y="419.21686746987956" type="line"/>
      <point x="652.289156626506" y="0.0" type="line"/>
      <point x="818.0963855421686" y="0.0" type="line"/>
      <point x="818.0963855421686" y="705.0" type="line"/>
      <point x="669.0361445783133" y="705.0" type="line"/>
      <point x="427.0240963855422" y="269.5542168674699" type="line"/>
      <point x="461.5783132530121" y="269.5542168674699" type="line"/>
      <point x="219.2048192771084" y="705.0" type="line"/>
      <point x="66.2289156626506" y="705.0" type="line"/>
    </contour>
  </outline>
</glyph>
<glyph name="T" format="2">
  <advance width="643.9879518072289"/>
  <unicode hex="0054"/>
  <anchor x="322.49397590361446" y="0.0" name="bottom"/>
  <anchor x="321.855421686747" y="358.0" name="center"/>
  <anchor x="321.855421686747" y="705.0" name="top"/>
  <outline>
    <contour>
      <point x="230.39759036144576" y="0.0" type="line"/>
      <point x="413.9518072289157" y="0.0" type="line"/>
      <point x="413.9518072289157" y="555.2168674698795" type="line"/>
      <point x="638.0722891566265" y="555.2168674698795" type="line"/>
      <point x="638.0722891566265" y="705.0" type="line"/>
      <point x="6.27710843373494" y="705.0" type="line"/>
      <point x="6.27710843373494" y="555.2168674698795" type="line"/>
      <point x="230.39759036144576" y="555.2168674698795" type="line"/>
    </contour>
  </outline>
</glyph>
<glyph name="U" format="2">
  <advance width="748.2168674698795"/>
  <unicode hex="0055"/>
  <anchor x="375.7469879518072" y="0.0" name="bottom"/>
  <anchor x="433.3855421686747" y="0.0" name="ogonek"/>
  <anchor x="375.7469879518072" y="705.0" name="top"/>
  <anchor x="562.7831325301205" y="705.0" name="topright"/>
  <outline>
    <contour>
      <point x="375.7469879518072" y="-11.27710843373494" type="curve" smooth="yes"/>
      <point x="581.2409638554218" y="-11.27710843373494"/>
      <point x="688.9879518072289" y="92.63855421686748"/>
      <point x="688.9879518072289" y="300.49397590361446" type="curve" smooth="yes"/>
      <point x="688.9879518072289" y="705.0" type="line"/>
      <point x="508.3493975903614" y="705.0" type="line"/>
      <point x="508.3493975903614" y="298.3012048192771" type="line" smooth="yes"/>
      <point x="508.3493975903614" y="194.9277108433735"/>
      <point x="461.84337349397595" y="142.78313253012047"/>
      <point x="375.7469879518072" y="142.78313253012047" type="curve" smooth="yes"/>
      <point x="289.65060240963857" y="142.78313253012047"/>
      <point x="242.7831325301205" y="194.9277108433735"/>
      <point x="242.7831325301205" y="298.3012048192771" type="curve" smooth="yes"/>
      <point x="242.7831325301205" y="705.0" type="line"/>
      <point x="59.22891566265061" y="705.0" type="line"/>
      <point x="59.22891566265061" y="300.49397590361446" type="line" smooth="yes"/>
      <point x="59.22891566265061" y="92.63855421686748"/>
      <point x="170.25301204819277" y="-11.27710843373494"/>
    </contour>
  </outline>
</glyph>
<glyph name="V" format="2">
  <advance width="742.3734939759037"/>
  <unicode hex="0056"/>
  <anchor x="371.68674698795184" y="0.0" name="bottom"/>
  <anchor x="370.68674698795184" y="705.0" name="top"/>
  <outline>
    <contour>
      <point x="297.89156626506025" y="0.0" type="line"/>
      <point x="444.48192771084337" y="0.0" type="line"/>
      <point x="765.5060240963855" y="705.0" type="line"/>
      <point x="577.3132530120481" y="705.0" type="line"/>
      <point x="346.9397590361446" y="170.83132530120483" type="line"/>
      <point x="402.71084337349396" y="170.83132530120483" type="line"/>
      <point x="172.6144578313253" y="705.0" type="line"/>
      <point x="-23.132530120481928" y="705.0" type="line"/>
    </contour>
  </outline>
</glyph>
<glyph name="W" format="2">
  <advance width="1127.686746987952"/>
  <unicode hex="0057"/>
  <anchor x="564.0240963855422" y="0.0" name="bottom"/>
  <anchor x="564.6626506024097" y="705.0" name="top"/>
  <outline>
    <contour>
      <point x="263.9759036144578" y="0.0" type="line"/>
      <point x="411.48192771084337" y="0.0" type="line"/>
      <point x="577.9397590361446" y="458.9879518072289" type="line"/>
      <point x="553.0240963855422" y="458.9879518072289" type="line"/>
      <point x="716.2048192771084" y="0.0" type="line"/>
      <point x="863.0722891566264" y="0.0" type="line"/>
      <point x="1117.9036144578313" y="705.0" type="line"/>
      <point x="941.1807228915663" y="705.0" type="line"/>
      <point x="767.4457831325301" y="195.32530120481925" type="line"/>
      <point x="806.9156626506024" y="195.32530120481925" type="line"/>
      <point x="635.4578313253012" y="705.0" type="line"/>
      <point x="504.69879518072287" y="705.0" type="line"/>
      <point x="322.4096385542168" y="195.32530120481925" type="line"/>
      <point x="368.79518072289153" y="195.32530120481925" type="line"/>
      <point x="199.33734939759034" y="705.0" type="line"/>
      <point x="11.144578313253014" y="705.0" type="line"/>
    </contour>
  </outline>
</glyph>
<glyph name="bracketleft" format="2">
  <advance width="400.6144578313253"/>
  <unicode hex="005B"/>
  <outline>
    <contour>
      <point x="102.16867469879517" y="-180.0" type="line"/>
      <point x="383.50602409638554" y="-180.0" type="line"/>
      <point x="383.50602409638554" y="-48.963855421686745" type="line"/>
      <point x="280.1686746987952" y="-48.963855421686745" type="line"/>
      <point x="280.1686746987952" y="573.9638554216867" type="line"/>
      <point x="383.50602409638554" y="573.9638554216867" type="line"/>
      <point x="383.50602409638554" y="705.0" type="line"/>
      <point x="102.16867469879517" y="705.0" type="line"/>
    </contour>
  </outline>
</glyph>
<glyph name="asciicircum" format="2">
  <advance width="600.0"/>
  <unicode hex="005E"/>
  <outline>
    <contour>
      <point x="42.807228915662655" y="140.0" type="line"/>
      <point x="173.28915662650604" y="140.0" type="line"/>
      <point x="343.13253012048193" y="584.2530120481928" type="line"/>
      <point x="257.2289156626506" y="584.2530120481928" type="line"/>
      <point x="426.710843373494" y="140.0" type="line"/>
      <point x="557.1927710843373" y="140.0" type="line"/>
      <point x="365.51807228915663" y="628.0" type="line"/>
      <point x="234.4819277108434" y="628.0" type="line"/>
    </contour>
  </outline>
</glyph>
<glyph name="a" format="2">
  <advance width="568.0722891566264"/>
  <unicode hex="0061"/>
  <anchor x="283.3012048192771" y="0.0" name="bottom"/>
  <anchor x="461.49397590361446" y="0.0" name="ogonek"/>
  <anchor x="287.9397590361446" y="484.0" name="top"/>
  <outline>
    <contour>
      <point x="218.5301204819277" y="-11.27710843373494" type="curve" smooth="yes"/>
      <point x="295.3373493975904" y="-11.27710843373494"/>
      <point x="345.5903614457831" y="28.626506024096386"/>
      <point x="358.3975903614458" y="87.06024096385543" type="curve"/>
      <point x="353.3132530120482" y="87.06024096385543" type="line"/>
      <point x="353.3132530120482" y="0.0" type="line"/>
      <point x="518.843373493976" y="0.0" type="line"/>
      <point x="518.843373493976" y="246.50602409638554" type="line" smooth="yes"/>
      <point x="518.843373493976" y="389.27710843373495"/>
      <point x="440.6265060240964" y="453.4698795180723"/>
      <point x="281.28915662650604" y="453.4698795180723" type="curve" smooth="yes"/>
      <point x="205.4578313253012" y="453.4698795180723"/>
      <point x="105.32530120481928" y="431.0120481927711"/>
      <point x="53.506024096385545" y="398.7469879518073" type="curve"/>
      <point x="93.34939759036145" y="286.09638554216866" type="line"/>
      <point x="149.5301204819277" y="316.7228915662651"/>
      <point x="211.4578313253012" y="331.08433734939763"/>
      <point x="266.0843373493976" y="331.08433734939763" type="curve" smooth="yes"/>
      <point x="327.78313253012044" y="331.08433734939763"/>
      <point x="351.4939759036144" y="312.8433734939759"/>
      <point x="351.4939759036144" y="271.26506024096386" type="curve" smooth="yes"/>
      <point x="351.4939759036144" y="178.26506024096383" type="line" smooth="yes"/>
      <point x="351.4939759036144" y="132.40963855421685"/>
      <point x="311.89156626506025" y="100.63855421686746"/>
      <point x="262.49397590361446" y="100.63855421686746" type="curve" smooth="yes"/>
      <point x="219.4457831325301" y="100.63855421686746"/>
      <point x="198.66265060240963" y="119.79518072289156"/>
      <point x="198.66265060240963" y="144.3855421686747" type="curve" smooth="yes"/>
      <point x="198.66265060240963" y="172.43373493975903"/>
      <point x="225.63855421686748" y="188.25301204819277"/>
      <point x="304.3132530120482" y="188.25301204819277" type="curve" smooth="yes"/>
      <point x="368.2289156626506" y="188.25301204819277" type="line"/>
      <point x="368.2289156626506" y="265.6506024096386" type="line"/>
      <point x="306.86746987951807" y="265.6506024096386" type="line" smooth="yes"/>
      <point x="109.1566265060241" y="265.6506024096386"/>
      <point x="29.590361445783138" y="233.02409638554218"/>
      <point x="29.590361445783138" y="137.9277108433735" type="curve" smooth="yes"/>
      <point x="29.590361445783138" y="56.734939759036145"/>
      <point x="104.86746987951805" y="-11.27710843373494"/>
    </contour>
  </outline>
</glyph>
<glyph name="b" format="2">
  <advance width="620.433734939759"/>
  <unicode hex="0062"/>
  <anchor x="304.44578313253015" y="0.0" name="bottom"/>
  <anchor x="321.3012048192771" y="705.0" name="top"/>
  <outline>
    <contour>
      <point x="380.4698795180723" y="-11.27710843373494" type="curve" smooth="yes"/>
      <point x="501.4578313253012" y="-11.27710843373494"/>
      <point x="591.3734939759036" y="80.0"/>
      <point x="591.3734939759036" y="221.27710843373495" type="curve" smooth="yes"/>
      <point x="591.3734939759036" y="362.7349397590362"/>
      <point x="502.2771084337349" y="453.4698795180723"/>
      <point x="380.4698795180723" y="453.4698795180723" type="curve" smooth="yes"/>
      <point x="304.855421686747" y="453.4698795180723"/>
      <point x="240.77108433734938" y="417.9397590361446"/>
      <point x="218.95180722891567" y="368.421686746988" type="curve"/>
      <point x="229.59036144578312" y="368.421686746988" type="line"/>
      <point x="229.59036144578312" y="705.0" type="line"/>
      <point x="51.59036144578313" y="705.0" type="line"/>
      <point x="51.59036144578313" y="0.0" type="line"/>
      <point x="224.49397590361446" y="0.0" type="line"/>
      <point x="224.49397590361446" y="80.04819277108433" type="line"/>
      <point x="216.49397590361443" y="80.04819277108433" type="line"/>
      <point x="237.49397590361446" y="28.53012048192771"/>
      <point x="302.21686746987945" y="-11.27710843373494"/>
    </contour>
    <contour>
      <point x="319.6626506024096" y="118.48192771084337" type="curve" smooth="yes"/>
      <point x="262.6385542168675" y="118.48192771084337"/>
      <point x="225.3132530120482" y="152.7951807228916"/>
      <point x="225.3132530120482" y="221.27710843373495" type="curve" smooth="yes"/>
      <point x="225.3132530120482" y="289.93975903614455"/>
      <point x="262.6385542168675" y="324.5301204819277"/>
      <point x="319.6626506024096" y="324.5301204819277" type="curve" smooth="yes"/>
      <point x="376.50602409638554" y="324.5301204819277"/>
      <point x="414.0120481927711" y="289.93975903614455"/>
      <point x="414.0120481927711" y="221.27710843373495" type="curve" smooth="yes"/>
      <point x="414.0120481927711" y="152.7951807228916"/>
      <point x="376.50602409638554" y="118.48192771084337"/>
    </contour>
  </outline>
</glyph>
<glyph name="c" format="2">
  <advance width="484.13253012048193"/>
  <unicode hex="0063"/>
  <anchor x="290.0240963855422" y="0.0" name="bottom"/>
  <anchor x="290.0240963855422" y="484.0" name="top"/>
  <outline>
    <contour>
      <point x="303.95180722891564" y="-11.27710843373494" type="curve" smooth="yes"/>
      <point x="364.86746987951807" y="-11.27710843373494"/>
      <point x="433.421686746988" y="6.168674698795179"/>
      <point x="477.9759036144578" y="34.15662650602409" type="curve"/>
      <point x="434.2168674698795" y="154.99999999999997" type="line"/>
      <point x="402.6867469879518" y="132.8433734939759"/>
      <point x="356.78313253012055" y="118.66265060240964"/>
      <point x="319.3373493975904" y="118.66265060240964" type="curve" smooth="yes"/>
      <point x="249.75903614457832" y="118.66265060240964"/>
      <point x="211.33734939759034" y="157.25301204819274"/>
      <point x="211.33734939759034" y="221.63855421686748" type="curve" smooth="yes"/>
      <point x="211.33734939759034" y="287.0240963855421"/>
      <point x="249.75903614457832" y="324.34939759036143"/>
      <point x="319.3373493975904" y="324.34939759036143" type="curve" smooth="yes"/>
      <point x="357.7831325301205" y="324.34939759036143"/>
      <point x="402.6867469879518" y="310.16867469879514"/>
      <point x="434.2168674698795" y="287.55421686746985" type="curve"/>
      <point x="477.9759036144578" y="408.855421686747" type="line"/>
      <point x="433.421686746988" y="438.2048192771084"/>
      <point x="365.4096385542168" y="453.4698795180723"/>
      <point x="303.95180722891564" y="453.4698795180723" type="curve" smooth="yes"/>
      <point x="136.63855421686748" y="453.4698795180723"/>
      <point x="29.87951807228916" y="364.37349397590367"/>
      <point x="29.87951807228916" y="221.81927710843374" type="curve" smooth="yes"/>
      <point x="29.87951807228916" y="79.90361445783132"/>
      <point x="136.4578313253012" y="-11.27710843373494"/>
    </contour>
  </outline>
</glyph>
<glyph name="d" format="2">
  <advance width="620.433734939759"/>
  <unicode hex="0064"/>
  <anchor x="311.85542168674704" y="0.0" name="bottom"/>
  <anchor x="301.3855421686747" y="222.27710843373495" name="center"/>
  <anchor x="429.6626506024096" y="534.289156626506" name="stroke"/>
  <anchor x="311.49397590361446" y="705.0" name="top"/>
  <anchor x="602.4578313253012" y="705.0" name="topright"/>
  <outline>
    <contour>
      <point x="240.78313253012044" y="-11.27710843373494" type="curve" smooth="yes"/>
      <point x="318.855421686747" y="-11.27710843373494"/>
      <point x="383.5783132530121" y="28.53012048192771"/>
      <point x="403.7590361445783" y="80.04819277108433" type="curve"/>
      <point x="396.12048192771084" y="80.04819277108433" type="line"/>
      <point x="396.12048192771084" y="0.0" type="line"/>
      <point x="568.843373493976" y="0.0" type="line"/>
      <point x="568.843373493976" y="705.0" type="line"/>
      <point x="390.84337349397595" y="705.0" type="line"/>
      <point x="390.84337349397595" y="368.421686746988" type="line"/>
      <point x="402.12048192771084" y="368.421686746988" type="line"/>
      <point x="379.48192771084337" y="417.9397590361446"/>
      <point x="316.5783132530121" y="453.4698795180723"/>
      <point x="240.78313253012044" y="453.4698795180723" type="curve" smooth="yes"/>
      <point x="118.15662650602408" y="453.4698795180723"/>
      <point x="29.87951807228916" y="362.7349397590362"/>
      <point x="29.87951807228916" y="221.27710843373495" type="curve" smooth="yes"/>
      <point x="29.87951807228916" y="80.0"/>
      <point x="119.15662650602408" y="-11.27710843373494"/>
    </contour>
    <contour>
      <point x="300.7710843373494" y="118.48192771084337" type="curve" smooth="yes"/>
      <point x="243.7469879518072" y="118.48192771084337"/>
      <point x="206.42168674698794" y="152.7951807228916"/>
      <point x="206.42168674698794" y="221.27710843373495" type="curve" smooth="yes"/>
      <point x="206.42168674698794" y="289.93975903614455"/>
      <point x="243.7469879518072" y="324.5301204819277"/>
      <point x="300.7710843373494" y="324.5301204819277" type="curve" smooth="yes"/>
      <point x="357.61445783132535" y="324.5301204819277"/>
      <point x="395.12048192771084" y="289.93975903614455"/>
      <point x="395.12048192771084" y="221.27710843373495" type="curve" smooth="yes"/>
      <point x="395.12048192771084" y="152.7951807228916"/>
      <point x="357.61445783132535" y="118.48192771084337"/>
    </contour>
  </outline>
</glyph>
<glyph name="e" format="2">
  <advance width="555.4096385542169"/>
  <unicode hex="0065"/>
  <anchor x="289.7469879518072" y="0.0" name="bottom"/>
  <anchor x="390.15662650602405" y="0.0" name="ogonek"/>
  <anchor x="289.7469879518072" y="484.0" name="top"/>
  <outline>
    <contour>
      <point x="323.96385542168673" y="-11.27710843373494" type="curve" smooth="yes"/>
      <point x="388.0481927710843" y="-11.27710843373494"/>
      <point x="466.2409638554217" y="7.626506024096386"/>
      <point x="516.6144578313254" y="37.1566265060241" type="curve"/>
      <point x="477.5903614457831" y="150.08433734939757" type="line"/>
      <point x="432.5060240963856" y="125.28915662650601"/>
      <point x="375.9518072289157" y="113.56626506024097"/>
      <point x="327.8795180722892" y="113.56626506024097" type="curve" smooth="yes"/>
      <point x="233.09638554216866" y="113.56626506024097"/>
      <point x="193.95180722891564" y="148.33734939759037"/>
      <point x="193.95180722891564" y="224.19277108433735" type="curve" smooth="yes"/>
      <point x="193.95180722891564" y="238.3855421686747" type="line" smooth="yes"/>
      <point x="193.95180722891564" y="306.3373493975904"/>
      <point x="230.73493975903614" y="344.5542168674699"/>
      <point x="293.8433734939759" y="344.5542168674699" type="curve" smooth="yes"/>
      <point x="352.144578313253" y="344.5542168674699"/>
      <point x="384.2048192771084" y="312.50602409638554"/>
      <point x="384.2048192771084" y="248.74698795180726" type="curve"/>
      <point x="400.38554216867465" y="263.4698795180723" type="line"/>
      <point x="177.95180722891567" y="263.4698795180723" type="line"/>
      <point x="177.95180722891567" y="186.0722891566265" type="line"/>
      <point x="530.3493975903615" y="186.0722891566265" type="line"/>
      <point x="530.3493975903615" y="217.89156626506022" type="line" smooth="yes"/>
      <point x="530.3493975903615" y="360.90361445783134"/>
      <point x="436.0481927710843" y="453.4698795180723"/>
      <point x="287.92771084337346" y="453.4698795180723" type="curve" smooth="yes"/>
      <point x="138.0" y="453.4698795180723"/>
      <point x="29.87951807228916" y="355.37349397590356"/>
      <point x="29.87951807228916" y="222.55421686746988" type="curve" smooth="yes"/>
      <point x="29.87951807228916" y="81.27710843373494"/>
      <point x="138.36144578313255" y="-11.27710843373494"/>
    </contour>
  </outline>
</glyph>
<glyph name="f" format="2">
  <advance width="401.6746987951807"/>
  <unicode hex="0066"/>
  <anchor x="182.710843373494" y="0.0" name="bottom"/>
  <anchor x="182.710843373494" y="595.0" name="top"/>
  <outline>
    <contour>
      <point x="93.53012048192771" y="0.0" type="line"/>
      <point x="271.5301204819277" y="0.0" type="line"/>
      <point x="271.5301204819277" y="311.15662650602405" type="line"/>
      <point x="395.5903614457831" y="311.15662650602405" type="line"/>
      <point x="395.5903614457831" y="442.1927710843374" type="line"/>
      <point x="250.24096385542168" y="442.1927710843374" type="line"/>
      <point x="271.5301204819277" y="426.2771084337349" type="line"/>
      <point x="271.5301204819277" y="498.0722891566265" type="line" smooth="yes"/>
      <point x="271.5301204819277" y="553.6506024096386"/>
      <point x="295.7831325301205" y="575.9759036144579"/>
      <point x="372.5903614457831" y="581.156626506024" type="curve" smooth="yes"/>
      <point x="419.2289156626506" y="584.156626506024" type="line"/>
      <point x="409.3132530120482" y="711.277108433735" type="line"/>
      <point x="348.81927710843377" y="707.6385542168674" type="line" smooth="yes"/>
      <point x="174.28915662650604" y="698.0"/>
      <point x="93.53012048192771" y="624.5301204819277"/>
      <point x="93.53012048192771" y="468.7590361445783" type="curve" smooth="yes"/>
      <point x="93.53012048192771" y="411.5301204819277" type="line"/>
      <point x="132.3855421686747" y="442.1927710843374" type="line"/>
      <point x="1.4457831325301207" y="442.1927710843374" type="line"/>
      <point x="1.4457831325301207" y="311.15662650602405" type="line"/>
      <point x="93.53012048192771" y="311.15662650602405" type="line"/>
    </contour>
  </outline>
</glyph>
<glyph name="g" format="2">
  <advance width="625.710843373494"/>
  <unicode hex="0067"/>
  <anchor x="311.5783132530121" y="484.0" name="top"/>
  <outline>
    <contour>
      <point x="294.55421686746985" y="-191.27710843373492" type="curve" smooth="yes"/>
      <point x="473.710843373494" y="-191.27710843373492"/>
      <point x="574.1204819277109" y="-105.53012048192771"/>
      <point x="574.1204819277109" y="65.60240963855422" type="curve" smooth="yes"/>
      <point x="574.1204819277109" y="442.1927710843374" type="line"/>
      <point x="401.3975903614458" y="442.1927710843374" type="line"/>
      <point x="401.3975903614458" y="368.421686746988" type="line"/>
      <point x="407.3975903614458" y="368.421686746988" type="line"/>
      <point x="383.30120481927713" y="418.9397590361446"/>
      <point x="320.0361445783132" y="453.4698795180723"/>
      <point x="244.24096385542165" y="453.4698795180723" type="curve" smooth="yes"/>
      <point x="119.15662650602408" y="453.4698795180723"/>
      <point x="29.87951807228916" y="365.5542168674699"/>
      <point x="29.87951807228916" y="233.73493975903617" type="curve" smooth="yes"/>
      <point x="29.87951807228916" y="101.91566265060241"/>
      <point x="119.15662650602408" y="12.63855421686747"/>
      <point x="244.24096385542165" y="12.63855421686747" type="curve" smooth="yes"/>
      <point x="319.855421686747" y="12.63855421686747"/>
      <point x="385.7590361445783" y="50.626506024096386"/>
      <point x="409.03614457831327" y="100.50602409638556" type="curve"/>
      <point x="401.03614457831327" y="100.50602409638556" type="line"/>
      <point x="401.03614457831327" y="45.493975903614455" type="line" smooth="yes"/>
      <point x="401.03614457831327" y="-27.096385542168676"/>
      <point x="360.50602409638554" y="-59.87951807228916"/>
      <point x="278.34939759036143" y="-59.87951807228916" type="curve" smooth="yes"/>
      <point x="220.19277108433735" y="-59.87951807228916"/>
      <point x="143.6987951807229" y="-41.87951807228916"/>
      <point x="94.62650602409637" y="-12.265060240963855" type="curve"/>
      <point x="49.048192771084345" y="-133.92771084337352" type="line"/>
      <point x="115.87951807228917" y="-174.0120481927711"/>
      <point x="202.9036144578313" y="-191.27710843373492"/>
    </contour>
    <contour>
      <point x="303.4096385542168" y="140.75903614457832" type="curve" smooth="yes"/>
      <point x="242.10843373493975" y="140.75903614457832"/>
      <point x="206.42168674698794" y="176.34939759036146"/>
      <point x="206.42168674698794" y="233.73493975903617" type="curve" smooth="yes"/>
      <point x="206.42168674698794" y="290.30120481927713"/>
      <point x="242.10843373493975" y="325.3493975903615"/>
      <point x="303.4096385542168" y="325.3493975903615" type="curve" smooth="yes"/>
      <point x="364.71084337349396" y="325.3493975903615"/>
      <point x="400.3975903614458" y="290.30120481927713"/>
      <point x="400.3975903614458" y="233.73493975903617" type="curve" smooth="yes"/>
      <point x="400.3975903614458" y="176.34939759036146"/>
      <point x="364.71084337349396" y="140.75903614457832"/>
    </contour>
  </outline>
</glyph>
<glyph name="h" format="2">
  <advance width="606.0722891566265"/>
  <unicode hex="0068"/>
  <anchor x="304.855421686747" y="0.0" name="bottom"/>
  <anchor x="304.855421686747" y="225.0963855421687" name="center"/>
  <anchor x="366.2168674698795" y="315.54216867469876" name="dot"/>
  <anchor x="190.7710843373494" y="592.4698795180723" name="stroke"/>
  <anchor x="304.2168674698795" y="705.0" name="top"/>
  <anchor x="251.9277108433735" y="705.0" name="topright"/>
  <outline>
    <contour>
      <point x="51.59036144578313" y="0.0" type="line"/>
      <point x="229.59036144578312" y="0.0" type="line"/>
      <point x="229.59036144578312" y="228.2650602409639" type="line" smooth="yes"/>
      <point x="229.59036144578312" y="282.74698795180717"/>
      <point x="263.0" y="317.97590361445776"/>
      <point x="317.6626506024096" y="317.97590361445776" type="curve" smooth="yes"/>
      <point x="358.50602409638554" y="317.97590361445776"/>
      <point x="378.84337349397595" y="296.73493975903614"/>
      <point x="378.84337349397595" y="239.51807228915666" type="curve" smooth="yes"/>
      <point x="378.84337349397595" y="0.0" type="line"/>
      <point x="556.843373493976" y="0.0" type="line"/>
      <point x="556.843373493976" y="249.89156626506022" type="line" smooth="yes"/>
      <point x="556.843373493976" y="387.09638554216866"/>
      <point x="501.48192771084337" y="453.4698795180723"/>
      <point x="383.84337349397595" y="453.4698795180723" type="curve" smooth="yes"/>
      <point x="307.6746987951807" y="453.4698795180723"/>
      <point x="246.86746987951807" y="418.66265060240966"/>
      <point x="215.31325301204816" y="359.04819277108436" type="curve"/>
      <point x="229.59036144578312" y="359.04819277108436" type="line"/>
      <point x="229.59036144578312" y="705.0" type="line"/>
      <point x="51.59036144578313" y="705.0" type="line"/>
    </contour>
  </outline>
</glyph>
<glyph name="i" format="2">
  <advance width="281.18072289156623"/>
  <unicode hex="0069"/>
  <anchor x="141.04819277108433" y="0.0" name="bottom"/>
  <anchor x="186.9879518072289" y="0.0" name="ogonek"/>
  <outline>
    <contour>
      <point x="46.78313253012049" y="527.3975903614457" type="line"/>
      <point x="234.03614457831327" y="527.3975903614457" type="line"/>
      <point x="234.03614457831327" y="687.710843373494" type="line"/>
      <point x="46.78313253012049" y="687.710843373494" type="line"/>
    </contour>
    <contour>
      <point x="51.59036144578313" y="0.0" type="line"/>
      <point x="229.59036144578312" y="0.0" type="line"/>
      <point x="229.59036144578312" y="442.1927710843374" type="line"/>
      <point x="51.59036144578313" y="442.1927710843374" type="line"/>
    </contour>
  </outline>
</glyph>
<glyph name="m" format="2">
  <advance width="901.9036144578314"/>
  <unicode hex="006D"/>
  <anchor x="452.13253012048193" y="0.0" name="bottom"/>
  <anchor x="452.13253012048193" y="484.0" name="top"/>
  <outline>
    <contour>
      <point x="53.59036144578313" y="0.0" type="line"/>
      <point x="231.59036144578312" y="0.0" type="line"/>
      <point x="231.59036144578312" y="224.98795180722894" type="line" smooth="yes"/>
      <point x="231.59036144578312" y="283.56626506024094"/>
      <point x="259.4578313253012" y="317.97590361445776"/>
      <point x="308.2168674698795" y="317.97590361445776" type="curve" smooth="yes"/>
      <point x="345.79518072289153" y="317.97590361445776"/>
      <point x="362.9518072289157" y="296.73493975903614"/>
      <point x="362.9518072289157" y="240.15662650602408" type="curve" smooth="yes"/>
      <point x="362.9518072289157" y="0.0" type="line"/>
      <point x="540.9518072289156" y="0.0" type="line"/>
      <point x="540.9518072289156" y="224.98795180722894" type="line" smooth="yes"/>
      <point x="540.9518072289156" y="283.56626506024094"/>
      <point x="569.1807228915662" y="317.97590361445776"/>
      <point x="617.578313253012" y="317.97590361445776" type="curve" smooth="yes"/>
      <point x="655.5180722891566" y="317.97590361445776"/>
      <point x="672.6746987951807" y="296.73493975903614"/>
      <point x="672.6746987951807" y="240.15662650602408" type="curve" smooth="yes"/>
      <point x="672.6746987951807" y="0.0" type="line"/>
      <point x="850.6746987951807" y="0.0" type="line"/>
      <point x="850.6746987951807" y="249.89156626506022" type="line" smooth="yes"/>
      <point x="850.6746987951807" y="387.91566265060237"/>
      <point x="797.4939759036145" y="453.4698795180723"/>
      <point x="682.6626506024096" y="453.4698795180723" type="curve" smooth="yes"/>
      <point x="609.4096385542168" y="453.4698795180723"/>
      <point x="543.4939759036145" y="418.39759036144574"/>
      <point x="511.4819277108434" y="356.2289156626506" type="curve"/>
      <point x="524.3012048192771" y="356.2289156626506" type="line"/>
      <point x="500.9277108433735" y="424.0240963855422"/>
      <point x="448.1084337349397" y="453.4698795180723"/>
      <point x="377.2168674698795" y="453.4698795180723" type="curve" smooth="yes"/>
      <point x="302.13253012048193" y="453.4698795180723"/>
      <point x="245.2289156626506" y="416.8433734939759"/>
      <point x="216.49397590361443" y="359.04819277108436" type="curve"/>
      <point x="226.49397590361443" y="359.04819277108436" type="line"/>
      <point x="226.49397590361443" y="442.1927710843374" type="line"/>
      <point x="53.59036144578313" y="442.1927710843374" type="line"/>
    </contour>
  </outline>
</glyph>
<glyph name="o" format="2">
  <advance width="601.5421686746988"/>
  <unicode hex="006F"/>
  <anchor x="300.7710843373494" y="0.0" name="bottom"/>
  <anchor x="300.7710843373494" y="221.27710843373495" name="center"/>
  <anchor x="359.7710843373494" y="0.0" name="ogonek"/>
  <anchor x="300.7710843373494" y="484.0" name="top"/>
  <anchor x="368.07228915662654" y="434.8192771084337" name="topright"/>
  <outline>
    <contour>
      <point x="300.7710843373494" y="-11.27710843373494" type="curve" smooth="yes"/>
      <point x="464.3614457831325" y="-11.27710843373494"/>
      <point x="572.4819277108434" y="79.0"/>
      <point x="572.4819277108434" y="221.27710843373495" type="curve" smooth="yes"/>
      <point x="572.4819277108434" y="364.0120481927711"/>
      <point x="464.3614457831325" y="453.4698795180723"/>
      <point x="300.7710843373494" y="453.4698795180723" type="curve" smooth="yes"/>
      <point x="137.0" y="453.4698795180723"/>
      <point x="29.87951807228916" y="364.0120481927711"/>
      <point x="29.87951807228916" y="221.27710843373495" type="curve" smooth="yes"/>
      <point x="29.87951807228916" y="79.0"/>
      <point x="137.0" y="-11.27710843373494"/>
    </contour>
    <contour>
      <point x="300.7710843373494" y="118.48192771084337" type="curve" smooth="yes"/>
      <point x="243.7469879518072" y="118.48192771084337"/>
      <point x="206.42168674698794" y="152.7951807228916"/>
      <point x="206.42168674698794" y="221.27710843373495" type="curve" smooth="yes"/>
      <point x="206.42168674698794" y="289.93975903614455"/>
      <point x="243.7469879518072" y="324.5301204819277"/>
      <point x="300.7710843373494" y="324.5301204819277" type="curve" smooth="yes"/>
      <point x="357.61445783132535" y="324.5301204819277"/>
      <point x="395.12048192771084" y="289.93975903614455"/>
      <point x="395.12048192771084" y="221.27710843373495" type="curve" smooth="yes"/>
      <point x="395.12048192771084" y="152.7951807228916"/>
      <point x="357.61445783132535" y="118.48192771084337"/>
    </contour>
  </outline>
</glyph>
<glyph name="p" format="2">
  <advance width="620.433734939759"/>
  <unicode hex="0070"/>
  <anchor x="309.2168674698795" y="0.0" name="bottom"/>
  <anchor x="309.2168674698795" y="484.0" name="top"/>
  <outline>
    <contour>
      <point x="51.59036144578313" y="-180.0" type="line"/>
      <point x="229.59036144578312" y="-180.0" type="line"/>
      <point x="229.59036144578312" y="74.3132530120482" type="line"/>
      <point x="218.95180722891567" y="74.3132530120482" type="line"/>
      <point x="240.77108433734938" y="25.072289156626503"/>
      <point x="304.855421686747" y="-11.27710843373494"/>
      <point x="380.4698795180723" y="-11.27710843373494" type="curve" smooth="yes"/>
      <point x="502.2771084337349" y="-11.27710843373494"/>
      <point x="591.3734939759036" y="80.81927710843374"/>
      <point x="591.3734939759036" y="221.27710843373495" type="curve" smooth="yes"/>
      <point x="591.3734939759036" y="362.7349397590362"/>
      <point x="501.4578313253012" y="453.4698795180723"/>
      <point x="380.4698795180723" y="453.4698795180723" type="curve" smooth="yes"/>
      <point x="302.21686746987945" y="453.4698795180723"/>
      <point x="237.49397590361446" y="414.66265060240966"/>
      <point x="216.49397590361443" y="363.32530120481925" type="curve"/>
      <point x="224.49397590361446" y="363.32530120481925" type="line"/>
      <point x="224.49397590361446" y="442.1927710843374" type="line"/>
      <point x="51.59036144578313" y="442.1927710843374" type="line"/>
    </contour>
    <contour>
      <point x="319.6626506024096" y="118.48192771084337" type="curve" smooth="yes"/>
      <point x="262.6385542168675" y="118.48192771084337"/>
      <point x="225.3132530120482" y="152.7951807228916"/>
      <point x="225.3132530120482" y="221.27710843373495" type="curve" smooth="yes"/>
      <point x="225.3132530120482" y="289.93975903614455"/>
      <point x="262.6385542168675" y="324.5301204819277"/>
      <point x="319.6626506024096" y="324.5301204819277" type="curve" smooth="yes"/>
      <point x="376.50602409638554" y="324.5301204819277"/>
      <point x="414.0120481927711" y="289.93975903614455"/>
      <point x="414.0120481927711" y="221.27710843373495" type="curve" smooth="yes"/>
      <point x="414.0120481927711" y="152.7951807228916"/>
      <point x="376.50602409638554" y="118.48192771084337"/>
    </contour>
  </outline>
</glyph>
<glyph name="q" format="2">
  <advance width="620.433734939759"/>
  <unicode hex="0071"/>
  <anchor x="312.7710843373494" y="0.0" name="bottom"/>
  <anchor x="312.7710843373494" y="484.0" name="top"/>
  <outline>
    <contour>
      <point x="390.84337349397595" y="-180.0" type="line"/>
      <point x="568.843373493976" y="-180.0" type="line"/>
      <point x="568.843373493976" y="442.1927710843374" type="line"/>
      <point x="396.12048192771084" y="442.1927710843374" type="line"/>
      <point x="396.12048192771084" y="363.32530120481925" type="line"/>
      <point x="403.7590361445783" y="363.32530120481925" type="line"/>
      <point x="383.5783132530121" y="414.66265060240966"/>
      <point x="318.855421686747" y="453.4698795180723"/>
      <point x="240.78313253012044" y="453.4698795180723" type="curve" smooth="yes"/>
      <point x="119.15662650602408" y="453.4698795180723"/>
      <point x="29.87951807228916" y="362.7349397590362"/>
      <point x="29.87951807228916" y="221.27710843373495" type="curve" smooth="yes"/>
      <point x="29.87951807228916" y="80.81927710843374"/>
      <point x="118.15662650602408" y="-11.27710843373494"/>
      <point x="240.78313253012044" y="-11.27710843373494" type="curve" smooth="yes"/>
      <point x="316.5783132530121" y="-11.27710843373494"/>
      <point x="379.48192771084337" y="25.072289156626503"/>
      <point x="402.12048192771084" y="74.3132530120482" type="curve"/>
      <point x="390.84337349397595" y="74.3132530120482" type="line"/>
    </contour>
    <contour>
      <point x="300.7710843373494" y="118.48192771084337" type="curve" smooth="yes"/>
      <point x="243.7469879518072" y="118.48192771084337"/>
      <point x="206.42168674698794" y="152.7951807228916"/>
      <point x="206.42168674698794" y="221.27710843373495" type="curve" smooth="yes"/>
      <point x="206.42168674698794" y="289.93975903614455"/>
      <point x="243.7469879518072" y="324.5301204819277"/>
      <point x="300.7710843373494" y="324.5301204819277" type="curve" smooth="yes"/>
      <point x="357.61445783132535" y="324.5301204819277"/>
      <point x="395.12048192771084" y="289.93975903614455"/>
      <point x="395.12048192771084" y="221.27710843373495" type="curve" smooth="yes"/>
      <point x="395.12048192771084" y="152.7951807228916"/>
      <point x="357.61445783132535" y="118.48192771084337"/>
    </contour>
  </outline>
</glyph>
<glyph name="r" format="2">
  <advance width="433.50602409638554"/>
  <unicode hex="0072"/>
  <anchor x="142.04819277108433" y="0.0" name="bottom"/>
  <anchor x="241.04819277108433" y="484.0" name="top"/>
  <outline>
    <contour>
      <point x="51.59036144578313" y="0.0" type="line"/>
      <point x="232.86746987951807" y="0.0" type="line"/>
      <point x="232.86746987951807" y="199.93975903614458" type="line" smooth="yes"/>
      <point x="232.86746987951807" y="260.0722891566265"/>
      <point x="263.6506024096385" y="292.4096385542169"/>
      <point x="334.15662650602405" y="298.49397590361446" type="curve" smooth="yes"/>
      <point x="431.06024096385545" y="306.4096385542168" type="line"/>
      <point x="421.14457831325296" y="455.83132530120486" type="line"/>
      <point x="372.289156626506" y="452.1927710843374" type="line" smooth="yes"/>
      <point x="283.2048192771084" y="446.46987951807233"/>
      <point x="227.56626506024094" y="401.0"/>
      <point x="215.31325301204816" y="325.6385542168675" type="curve"/>
      <point x="224.49397590361443" y="325.6385542168675" type="line"/>
      <point x="224.49397590361443" y="442.1927710843374" type="line"/>
      <point x="51.59036144578313" y="442.1927710843374" type="line"/>
    </contour>
  </outline>
</glyph>
<glyph name="s" format="2">
  <advance width="496.3012048192771"/>
  <unicode hex="0073"/>
  <anchor x="249.10843373493975" y="0.0" name="bottom"/>
  <anchor x="257.4698795180723" y="484.0" name="top"/>
  <outline>
    <contour>
      <point x="247.83132530120483" y="-11.27710843373494" type="curve" smooth="yes"/>
      <point x="391.421686746988" y="-11.27710843373494"/>
      <point x="474.5301204819277" y="49.65060240963856"/>
      <point x="474.5301204819277" y="145.1325301204819" type="curve" smooth="yes"/>
      <point x="474.5301204819277" y="214.6024096385542"/>
      <point x="428.1566265060241" y="255.51807228915663"/>
      <point x="338.8795180722892" y="266.6024096385542" type="curve" smooth="yes"/>
      <point x="223.57831325301206" y="280.6867469879518" type="line" smooth="yes"/>
      <point x="201.34939759036143" y="283.7710843373494"/>
      <point x="189.91566265060243" y="293.7469879518072"/>
      <point x="189.91566265060243" y="307.5301204819277" type="curve" smooth="yes"/>
      <point x="189.91566265060243" y="326.21686746987956"/>
      <point x="212.0722891566265" y="341.91566265060237"/>
      <point x="271.39759036144574" y="341.91566265060237" type="curve" smooth="yes"/>
      <point x="315.3855421686747" y="341.91566265060237"/>
      <point x="377.855421686747" y="326.55421686746985"/>
      <point x="420.31325301204816" y="302.12048192771084" type="curve"/>
      <point x="458.3373493975904" y="408.21686746987956" type="line"/>
      <point x="407.5903614457832" y="439.6626506024096"/>
      <point x="336.30120481927713" y="453.4698795180723"/>
      <point x="269.9397590361446" y="453.4698795180723" type="curve" smooth="yes"/>
      <point x="123.07228915662652" y="453.4698795180723"/>
      <point x="38.77108433734939" y="387.5421686746988"/>
      <point x="38.77108433734939" y="298.9759036144579" type="curve" smooth="yes"/>
      <point x="38.77108433734939" y="230.50602409638554"/>
      <point x="84.96385542168676" y="186.7710843373494"/>
      <point x="171.1566265060241" y="175.6867469879518" type="curve" smooth="yes"/>
      <point x="286.4578313253012" y="161.42168674698794" type="line" smooth="yes"/>
      <point x="310.7710843373494" y="158.61445783132532"/>
      <point x="322.38554216867465" y="150.36144578313255"/>
      <point x="322.38554216867465" y="134.93975903614458" type="curve" smooth="yes"/>
      <point x="322.38554216867465" y="116.07228915662651"/>
      <point x="301.6024096385542" y="101.27710843373494"/>
      <point x="246.37349397590359" y="101.27710843373494" type="curve" smooth="yes"/>
      <point x="183.63855421686748" y="101.27710843373494"/>
      <point x="114.34939759036143" y="117.9156626506024"/>
      <point x="67.34939759036145" y="144.26506024096386" type="curve"/>
      <point x="31.78313253012048" y="35.433734939759034" type="line"/>
      <point x="83.43373493975903" y="4.807228915662651"/>
      <point x="162.0843373493976" y="-11.27710843373494"/>
    </contour>
  </outline>
</glyph>
<glyph name="t" format="2">
  <advance width="425.50602409638554"/>
  <unicode hex="0074"/>
  <anchor x="247.24096385542168" y="0.0" name="bottom"/>
  <anchor x="197.87951807228916" y="227.61445783132532" name="center"/>
  <anchor x="179.07228915662648" y="587.710843373494" name="top"/>
  <anchor x="306.92771084337346" y="705.0" name="topright"/>
  <outline>
    <contour>
      <point x="310.07228915662654" y="-11.27710843373494" type="curve" smooth="yes"/>
      <point x="349.1807228915663" y="-11.27710843373494"/>
      <point x="393.3734939759036" y="-1.6385542168674698"/>
      <point x="424.39759036144574" y="13.915662650602409" type="curve"/>
      <point x="401.1084337349397" y="140.67469879518072" type="line"/>
      <point x="376.27710843373495" y="134.03614457831324"/>
      <point x="357.3734939759036" y="130.31325301204816"/>
      <point x="340.9277108433735" y="130.31325301204816" type="curve" smooth="yes"/>
      <point x="290.06024096385545" y="130.31325301204816"/>
      <point x="267.8915662650602" y="151.73493975903614"/>
      <point x="267.8915662650602" y="197.95180722891567" type="curve" smooth="yes"/>
      <point x="267.8915662650602" y="311.15662650602405" type="line"/>
      <point x="408.2289156626506" y="311.15662650602405" type="line"/>
      <point x="408.2289156626506" y="442.1927710843374" type="line"/>
      <point x="267.8915662650602" y="442.1927710843374" type="line"/>
      <point x="267.8915662650602" y="587.710843373494" type="line"/>
      <point x="89.89156626506023" y="587.710843373494" type="line"/>
      <point x="89.89156626506023" y="442.1927710843374" type="line"/>
      <point x="-2.192771084337349" y="442.1927710843374" type="line"/>
      <point x="-2.192771084337349" y="311.15662650602405" type="line"/>
      <point x="89.89156626506023" y="311.15662650602405" type="line"/>
      <point x="89.89156626506023" y="193.8674698795181" type="line" smooth="yes"/>
      <point x="89.89156626506023" y="57.096385542168676"/>
      <point x="160.55421686746988" y="-11.27710843373494"/>
    </contour>
  </outline>
</glyph>
<glyph name="u" format="2">
  <advance width="600.710843373494"/>
  <unicode hex="0075"/>
  <anchor x="299.855421686747" y="0.0" name="bottom"/>
  <anchor x="491.7710843373494" y="0.0" name="ogonek"/>
  <anchor x="299.855421686747" y="484.3614457831325" name="top"/>
  <anchor x="422.9156626506024" y="434.0" name="topright"/>
  <outline>
    <contour>
      <point x="235.79518072289156" y="-11.27710843373494" type="curve" smooth="yes"/>
      <point x="308.3253012048193" y="-11.27710843373494"/>
      <point x="358.9397590361446" y="24.072289156626507"/>
      <point x="389.49397590361446" y="86.144578313253" type="curve"/>
      <point x="376.2168674698795" y="86.144578313253" type="line"/>
      <point x="376.2168674698795" y="0.0" type="line"/>
      <point x="549.1204819277109" y="0.0" type="line"/>
      <point x="549.1204819277109" y="442.1927710843374" type="line"/>
      <point x="371.12048192771084" y="442.1927710843374" type="line"/>
      <point x="371.12048192771084" y="214.56626506024097" type="line" smooth="yes"/>
      <point x="371.12048192771084" y="161.72289156626508"/>
      <point x="337.07228915662654" y="124.21686746987952"/>
      <point x="291.0481927710843" y="124.21686746987952" type="curve" smooth="yes"/>
      <point x="248.56626506024097" y="124.21686746987952"/>
      <point x="227.2289156626506" y="146.09638554216866"/>
      <point x="227.2289156626506" y="197.75903614457832" type="curve" smooth="yes"/>
      <point x="227.2289156626506" y="442.1927710843374" type="line"/>
      <point x="49.22891566265061" y="442.1927710843374" type="line"/>
      <point x="49.22891566265061" y="192.66265060240963" type="line" smooth="yes"/>
      <point x="49.22891566265061" y="56.45783132530121"/>
      <point x="113.14457831325302" y="-11.27710843373494"/>
    </contour>
  </outline>
</glyph>
<glyph name="v" format="2">
  <advance width="541.6867469879519"/>
  <unicode hex="0076"/>
  <anchor x="273.3012048192771" y="0.0" name="bottom"/>
  <anchor x="273.3012048192771" y="484.0" name="top"/>
  <outline>
    <contour>
      <point x="199.50602409638554" y="0.0" type="line"/>
      <point x="342.1807228915663" y="0.0" type="line"/>
      <point x="563.1084337349398" y="442.1927710843374" type="line"/>
      <point x="389.93975903614455" y="442.1927710843374" type="line"/>
      <point x="259.20481927710847" y="161.09638554216866" type="line"/>
      <point x="289.855421686747" y="161.09638554216866" type="line"/>
      <point x="165.39759036144576" y="442.1927710843374" type="line"/>
      <point x="-18.78313253012048" y="442.1927710843374" type="line"/>
    </contour>
  </outline>
</glyph>
<glyph name="w" format="2">
  <advance width="868.3253012048193"/>
  <unicode hex="0077"/>
  <anchor x="434.6626506024096" y="0.0" name="bottom"/>
  <anchor x="434.6626506024096" y="484.0" name="top"/>
  <outline>
    <contour>
      <point x="197.0722891566265" y="0.0" type="line"/>
      <point x="335.37349397590356" y="0.0" type="line"/>
      <point x="463.1325301204819" y="283.7228915662651" type="line"/>
      <point x="403.6385542168675" y="283.7228915662651" type="line"/>
      <point x="533.3132530120482" y="0.0" type="line"/>
      <point x="671.6144578313252" y="0.0" type="line"/>
      <point x="881.1204819277108" y="442.1927710843374" type="line"/>
      <point x="712.5903614457831" y="442.1927710843374" type="line"/>
      <point x="591.3734939759036" y="168.10843373493975" type="line"/>
      <point x="613.8313253012049" y="168.10843373493975" type="line"/>
      <point x="493.6144578313253" y="442.1927710843374" type="line"/>
      <point x="386.26506024096386" y="442.1927710843374" type="line"/>
      <point x="263.50602409638554" y="168.10843373493975" type="line"/>
      <point x="286.78313253012044" y="168.10843373493975" type="line"/>
      <point x="164.65060240963857" y="442.1927710843374" type="line"/>
      <point x="-14.072289156626503" y="442.1927710843374" type="line"/>
    </contour>
  </outline>
</glyph>
<glyph name="x" format="2">
  <advance width="572.1807228915662"/>
  <unicode hex="0078"/>
  <anchor x="286.7710843373494" y="0.0" name="bottom"/>
  <anchor x="286.7710843373494" y="484.0" name="top"/>
  <outline>
    <contour>
      <point x="-20.795180722891565" y="0.0" type="line"/>
      <point x="183.59036144578312" y="0.0" type="line"/>
      <point x="315.71084337349396" y="154.8433734939759" type="line"/>
      <point x="257.9277108433735" y="154.8433734939759" type="line"/>
      <point x="392.04819277108436" y="0.0" type="line"/>
      <point x="595.9759036144579" y="0.0" type="line"/>
      <point x="360.30120481927713" y="263.1325301204819" type="line"/>
      <point x="354.566265060241" y="184.6867469879518" type="line"/>
      <point x="581.698795180723" y="442.1927710843374" type="line"/>
      <point x="378.95180722891564" y="442.1927710843374" type="line"/>
      <point x="258.289156626506" y="301.16867469879514" type="line"/>
      <point x="315.6144578313253" y="301.16867469879514" type="line"/>
      <point x="194.7710843373494" y="442.1927710843374" type="line"/>
      <point x="-8.156626506024097" y="442.1927710843374" type="line"/>
      <point x="213.42168674698794" y="189.87951807228916" type="line"/>
      <point x="217.5180722891566" y="267.31325301204816" type="line"/>
    </contour>
  </outline>
</glyph>
<glyph name="y" format="2">
  <advance width="540.6867469879518"/>
  <unicode hex="0079"/>
  <anchor x="434.9036144578313" y="0.0" name="bottom"/>
  <anchor x="271.0240963855422" y="484.0" name="top"/>
  <outline>
    <contour>
      <point x="71.72289156626508" y="-180.0" type="line"/>
      <point x="250.44578313253012" y="-180.0" type="line"/>
      <point x="563.2891566265059" y="442.1927710843374" type="line"/>
      <point x="389.93975903614455" y="442.1927710843374" type="line"/>
      <point x="258.566265060241" y="161.09638554216866" type="line"/>
      <point x="289.2168674698795" y="161.09638554216866" type="line"/>
      <point x="164.39759036144576" y="442.1927710843374" type="line"/>
      <point x="-19.78313253012048" y="442.1927710843374" type="line"/>
      <point x="199.59036144578315" y="-2.168674698795182" type="line"/>
      <point x="199.59036144578315" y="65.71084337349397" type="line"/>
    </contour>
  </outline>
</glyph>
<glyph name="z" format="2">
  <advance width="486.7710843373494"/>
  <unicode hex="007A"/>
  <anchor x="248.10843373493975" y="0.0" name="bottom"/>
  <anchor x="248.10843373493975" y="484.0" name="top"/>
  <outline>
    <contour>
      <point x="41.97590361445783" y="0.0" type="line"/>
      <point x="464.6024096385542" y="0.0" type="line"/>
      <point x="464.6024096385542" y="129.39759036144576" type="line"/>
      <point x="195.3975903614458" y="129.39759036144576" type="line"/>
      <point x="195.3975903614458" y="82.98795180722892" type="line"/>
      <point x="454.2409638554217" y="331.90361445783134" type="line"/>
      <point x="454.2409638554217" y="442.1927710843374" type="line"/>
      <point x="41.97590361445783" y="442.1927710843374" type="line"/>
      <point x="41.97590361445783" y="313.61445783132524" type="line"/>
      <point x="298.5421686746988" y="313.61445783132524" type="line"/>
      <point x="298.5421686746988" y="357.10843373493975" type="line"/>
      <point x="41.97590361445783" y="111.28915662650601" type="line"/>
    </contour>
  </outline>
</glyph>
<glyph name="braceright" format="2">
  <advance width="437.6144578313253"/>
  <unicode hex="007D"/>
  <outline>
    <contour>
      <point x="17.10843373493976" y="-180.0" type="line"/>
      <point x="152.54216867469881" y="-180.0" type="line" smooth="yes"/>
      <point x="243.59036144578312" y="-180.0"/>
      <point x="297.8072289156626" y="-126.42168674698796"/>
      <point x="297.8072289156626" y="-35.373493975903614" type="curve" smooth="yes"/>
      <point x="297.8072289156626" y="117.75903614457832" type="line" smooth="yes"/>
      <point x="297.8072289156626" y="169.8433734939759"/>
      <point x="312.8915662650602" y="189.56626506024097"/>
      <point x="354.78313253012044" y="194.2048192771084" type="curve" smooth="yes"/>
      <point x="401.0" y="198.48192771084337" type="line"/>
      <point x="401.0" y="325.2409638554217" type="line"/>
      <point x="354.78313253012044" y="329.51807228915663" type="line" smooth="yes"/>
      <point x="312.8915662650602" y="334.15662650602405"/>
      <point x="297.8072289156626" y="353.87951807228916"/>
      <point x="297.8072289156626" y="405.96385542168673" type="curve" smooth="yes"/>
      <point x="297.8072289156626" y="560.3734939759036" type="line" smooth="yes"/>
      <point x="297.8072289156626" y="651.4216867469879"/>
      <point x="243.59036144578312" y="705.0"/>
      <point x="152.54216867469881" y="705.0" type="curve" smooth="yes"/>
      <point x="17.10843373493976" y="705.0" type="line"/>
      <point x="17.10843373493976" y="573.9638554216867" type="line"/>
      <point x="79.72289156626506" y="573.9638554216867" type="line" smooth="yes"/>
      <point x="108.08433734939759" y="573.9638554216867"/>
      <point x="119.80722891566265" y="561.2409638554217"/>
      <point x="119.80722891566265" y="531.2409638554218" type="curve" smooth="yes"/>
      <point x="119.80722891566265" y="383.9397590361446" type="line" smooth="yes"/>
      <point x="119.80722891566265" y="319.3855421686747"/>
      <point x="169.55421686746988" y="259.3614457831325"/>
      <point x="222.8313253012048" y="259.3614457831325" type="curve"/>
      <point x="222.8313253012048" y="263.3614457831325" type="line"/>
      <point x="169.55421686746988" y="263.3614457831325"/>
      <point x="119.80722891566265" y="203.69879518072287"/>
      <point x="119.80722891566265" y="139.7831325301205" type="curve" smooth="yes"/>
      <point x="119.80722891566265" y="-6.240963855421697" type="line" smooth="yes"/>
      <point x="119.80722891566265" y="-36.2409638554217"/>
      <point x="108.08433734939759" y="-48.963855421686745"/>
      <point x="79.72289156626506" y="-48.963855421686745" type="curve" smooth="yes"/>
      <point x="17.10843373493976" y="-48.963855421686745" type="line"/>
    </contour>
  </outline>
</glyph>
<glyph name="exclamdown" format="2">
  <advance width="271.6265060240964"/>
  <unicode hex="00A1"/>
  <outline>
    <contour>
      <point x="26.566265060240966" y="-180.0" type="line"/>
      <point x="245.06024096385542" y="-180.0" type="line"/>
      <point x="189.45783132530119" y="203.8192771084337" type="line"/>
      <point x="82.16867469879517" y="203.8192771084337" type="line"/>
    </contour>
    <contour>
      <point x="43.14457831325302" y="259.7710843373494" type="line"/>
      <point x="228.48192771084337" y="259.7710843373494" type="line"/>
      <point x="228.48192771084337" y="442.1927710843374" type="line"/>
      <point x="43.14457831325302" y="442.1927710843374" type="line"/>
    </contour>
  </outline>
</glyph>
<glyph name="cent" format="2">
  <advance width="600.0"/>
  <unicode hex="00A2"/>
  <outline>
    <contour>
      <point x="248.65060240963854" y="-115.0" type="line"/>
      <point x="386.96385542168673" y="-115.0" type="line"/>
      <point x="386.96385542168673" y="21.746987951807228" type="line"/>
      <point x="346.3012048192771" y="-10.277108433734938" type="line"/>
      <point x="425.78313253012044" y="-7.8192771084337345"/>
      <point x="487.50602409638554" y="12.084337349397593"/>
      <point x="533.6987951807229" y="42.34939759036145" type="curve"/>
      <point x="491.7590361445783" y="162.19277108433732" type="line"/>
      <point x="456.95180722891564" y="139.12048192771084"/>
      <point x="407.5903614457831" y="122.93975903614458"/>
      <point x="364.4216867469879" y="122.93975903614458" type="curve" smooth="yes"/>
      <point x="291.7469879518072" y="122.93975903614458"/>
      <point x="253.42168674698794" y="163.80722891566262"/>
      <point x="253.42168674698794" y="223.09638554216866" type="curve" smooth="yes"/>
      <point x="253.42168674698794" y="282.0240963855421"/>
      <point x="292.566265060241" y="321.07228915662654"/>
      <point x="364.6024096385542" y="321.07228915662654" type="curve" smooth="yes"/>
      <point x="408.5903614457831" y="321.07228915662654"/>
      <point x="456.13253012048193" y="304.8915662650602"/>
      <point x="491.7590361445783" y="282.6385542168675" type="curve"/>
      <point x="533.6987951807229" y="402.30120481927713" type="line"/>
      <point x="487.50602409638554" y="432.28915662650604"/>
      <point x="424.22891566265065" y="448.3734939759036"/>
      <point x="347.6626506024096" y="449.1927710843374" type="curve"/>
      <point x="386.96385542168673" y="417.8072289156627" type="line"/>
      <point x="386.96385542168673" y="561.5542168674699" type="line"/>
      <point x="248.65060240963854" y="561.5542168674699" type="line"/>
      <point x="248.65060240963854" y="406.1566265060241" type="line"/>
      <point x="279.78313253012044" y="445.09638554216866" type="line"/>
      <point x="154.14457831325302" y="422.5301204819277"/>
      <point x="71.14457831325302" y="338.98795180722885"/>
      <point x="71.14457831325302" y="220.8192771084337" type="curve" smooth="yes"/>
      <point x="71.14457831325302" y="104.84337349397589"/>
      <point x="148.1325301204819" y="19.301204819277107"/>
      <point x="279.7831325301205" y="-4.72289156626506" type="curve"/>
      <point x="248.65060240963854" y="31.57831325301205" type="line"/>
    </contour>
  </outline>
</glyph>
<glyph name="sterling" format="2">
  <advance width="600.0"/>
  <unicode hex="00A3"/>
  <outline>
    <contour>
      <point x="38.89156626506024" y="0.0" type="line"/>
      <point x="571.2168674698795" y="0.0" type="line"/>
      <point x="571.2168674698795" y="146.50602409638554" type="line"/>
      <point x="289.2048192771084" y="146.50602409638554" type="line"/>
      <point x="289.2048192771084" y="299.7831325301205" type="line"/>
      <point x="437.96385542168673" y="299.7831325301205" type="line"/>
      <point x="437.96385542168673" y="406.93975903614455" type="line"/>
      <point x="289.2048192771084" y="406.93975903614455" type="line"/>
      <point x="289.2048192771084" y="487.9518072289157" type="line" smooth="yes"/>
      <point x="289.2048192771084" y="541.0722891566265"/>
      <point x="315.6265060240964" y="573.6867469879519"/>
      <point x="380.855421686747" y="573.6867469879519" type="curve" smooth="yes"/>
      <point x="423.44578313253015" y="573.6867469879519"/>
      <point x="475.06024096385545" y="560.1566265060242"/>
      <point x="527.8072289156627" y="520.9036144578314" type="curve"/>
      <point x="585.8554216867469" y="649.6626506024097" type="line"/>
      <point x="532.3012048192771" y="691.1927710843373"/>
      <point x="449.3855421686747" y="716.277108433735"/>
      <point x="365.91566265060237" y="716.277108433735" type="curve" smooth="yes"/>
      <point x="189.03614457831327" y="716.277108433735"/>
      <point x="105.65060240963857" y="618.1445783132531"/>
      <point x="105.65060240963857" y="480.3975903614458" type="curve" smooth="yes"/>
      <point x="105.65060240963857" y="406.93975903614455" type="line"/>
      <point x="38.89156626506024" y="406.93975903614455" type="line"/>
      <point x="38.89156626506024" y="299.7831325301205" type="line"/>
      <point x="105.65060240963857" y="299.7831325301205" type="line"/>
      <point x="105.65060240963857" y="146.50602409638554" type="line"/>
      <point x="38.89156626506024" y="146.50602409638554" type="line"/>
    </contour>
  </outline>
</glyph>
<glyph name="section" format="2">
  <advance width="599.0120481927711"/>
  <unicode hex="00A7"/>
  <outline>
    <contour>
      <point x="280.87951807228916" y="-191.27710843373492" type="curve" smooth="yes"/>
      <point x="434.2048192771084" y="-191.27710843373492"/>
      <point x="531.6746987951807" y="-118.0843373493976"/>
      <point x="531.6746987951807" y="0.7469879518072293" type="curve" smooth="yes"/>
      <point x="531.6746987951807" y="46.024096385542165"/>
      <point x="512.843373493976" y="86.40963855421687"/>
      <point x="477.9879518072289" y="116.43373493975903" type="curve"/>
      <point x="464.7951807228916" y="69.66265060240963" type="line"/>
      <point x="537.1204819277109" y="111.7710843373494"/>
      <point x="572.6746987951808" y="167.40963855421688"/>
      <point x="572.6746987951808" y="239.34939759036143" type="curve" smooth="yes"/>
      <point x="572.6746987951808" y="313.9879518072289"/>
      <point x="530.566265060241" y="370.81927710843377"/>
      <point x="438.50602409638554" y="411.71084337349396" type="curve" smooth="yes"/>
      <point x="293.34939759036143" y="476.3734939759036" type="line" smooth="yes"/>
      <point x="251.6746987951807" y="495.3493975903615"/>
      <point x="236.2289156626506" y="513.4096385542168"/>
      <point x="236.2289156626506" y="538.3614457831326" type="curve" smooth="yes"/>
      <point x="236.2289156626506" y="575.4819277108434"/>
      <point x="267.4578313253012" y="595.9879518072289"/>
      <point x="318.68674698795184" y="595.9879518072289" type="curve" smooth="yes"/>
      <point x="371.49397590361446" y="595.9879518072289"/>
      <point x="441.04819277108436" y="577.2650602409639"/>
      <point x="488.87951807228916" y="550.0963855421687" type="curve"/>
      <point x="532.8192771084338" y="662.7469879518072" type="line"/>
      <point x="485.6265060240964" y="697.1927710843373"/>
      <point x="409.43373493975906" y="716.277108433735"/>
      <point x="317.4096385542168" y="716.277108433735" type="curve" smooth="yes"/>
      <point x="165.1686746987952" y="716.277108433735"/>
      <point x="67.6987951807229" y="643.0843373493976"/>
      <point x="67.6987951807229" y="524.2530120481928" type="curve" smooth="yes"/>
      <point x="67.6987951807229" y="477.3373493975904"/>
      <point x="86.53012048192771" y="438.5903614457832"/>
      <point x="121.38554216867469" y="408.566265060241" type="curve"/>
      <point x="134.57831325301206" y="455.3373493975904" type="line"/>
      <point x="62.253012048192765" y="413.2289156626506"/>
      <point x="26.698795180722897" y="357.5903614457832"/>
      <point x="26.698795180722897" y="285.65060240963857" type="curve" smooth="yes"/>
      <point x="26.698795180722897" y="211.0120481927711"/>
      <point x="68.80722891566265" y="154.1807228915663"/>
      <point x="160.86746987951807" y="113.28915662650604" type="curve" smooth="yes"/>
      <point x="306.0240963855422" y="48.626506024096386" type="line" smooth="yes"/>
      <point x="347.69879518072287" y="29.650602409638566"/>
      <point x="363.144578313253" y="11.590361445783131"/>
      <point x="363.144578313253" y="-13.36144578313253" type="curve" smooth="yes"/>
      <point x="363.144578313253" y="-50.843373493975896"/>
      <point x="331.91566265060237" y="-70.98795180722894"/>
      <point x="279.6024096385542" y="-70.98795180722894" type="curve" smooth="yes"/>
      <point x="216.24096385542168" y="-70.98795180722894"/>
      <point x="136.49397590361446" y="-45.71084337349398"/>
      <point x="92.57831325301206" y="-15.903614457831324" type="curve"/>
      <point x="47.36144578313253" y="-132.19277108433735" type="line"/>
      <point x="100.10843373493977" y="-168.27710843373495"/>
      <point x="185.13253012048193" y="-191.27710843373492"/>
    </contour>
    <contour>
      <point x="182.3975903614458" y="320.4216867469879" type="curve" smooth="yes"/>
      <point x="182.3975903614458" y="340.7590361445783"/>
      <point x="190.2048192771084" y="362.0120481927711"/>
      <point x="207.09638554216866" y="383.3734939759036" type="curve"/>
      <point x="169.07228915662648" y="376.18072289156623" type="line"/>
      <point x="182.5180722891566" y="366.20481927710847"/>
      <point x="202.13253012048193" y="354.50602409638554"/>
      <point x="219.25301204819277" y="346.8072289156626" type="curve" smooth="yes"/>
      <point x="346.7710843373494" y="289.144578313253" type="line" smooth="yes"/>
      <point x="394.2530120481928" y="268.0843373493976"/>
      <point x="416.9759036144578" y="238.9156626506024"/>
      <point x="416.9759036144578" y="204.57831325301206" type="curve" smooth="yes"/>
      <point x="416.9759036144578" y="184.24096385542168"/>
      <point x="409.16867469879514" y="162.9879518072289"/>
      <point x="392.27710843373495" y="141.6265060240964" type="curve"/>
      <point x="430.30120481927713" y="148.81927710843374" type="line"/>
      <point x="416.855421686747" y="158.7951807228916"/>
      <point x="397.87951807228916" y="169.85542168674698"/>
      <point x="380.12048192771084" y="178.19277108433735" type="curve" smooth="yes"/>
      <point x="252.6024096385542" y="235.85542168674698" type="line" smooth="yes"/>
      <point x="205.12048192771084" y="257.55421686746985"/>
      <point x="182.3975903614458" y="286.08433734939763"/>
    </contour>
  </outline>
</glyph>
<glyph name="ordfeminine" format="2">
  <advance width="353.68674698795184"/>
  <unicode hex="00AA"/>
  <outline>
    <contour>
      <point x="133.0843373493976" y="404.16867469879514" type="curve" smooth="yes"/>
      <point x="176.80722891566265" y="404.16867469879514"/>
      <point x="203.5301204819277" y="426.72289156626505"/>
      <point x="222.6144578313253" y="467.08433734939763" type="curve"/>
      <point x="225.25301204819277" y="467.08433734939763" type="line"/>
      <point x="225.25301204819277" y="411.44578313253015" type="line"/>
      <point x="329.07228915662654" y="411.44578313253015" type="line"/>
      <point x="329.07228915662654" y="590.2530120481928" type="line" smooth="yes"/>
      <point x="329.07228915662654" y="673.722891566265"/>
      <point x="277.96385542168673" y="716.277108433735"/>
      <point x="172.4698795180723" y="716.277108433735" type="curve" smooth="yes"/>
      <point x="124.91566265060241" y="716.277108433735"/>
      <point x="64.53012048192771" y="704.0"/>
      <point x="30.89156626506024" y="685.9156626506025" type="curve"/>
      <point x="56.0" y="611.0361445783133" type="line"/>
      <point x="89.27710843373494" y="627.7590361445783"/>
      <point x="132.19277108433735" y="636.1204819277108"/>
      <point x="162.0" y="636.1204819277108" type="curve" smooth="yes"/>
      <point x="203.1686746987952" y="636.1204819277108"/>
      <point x="219.69879518072287" y="623.5903614457832"/>
      <point x="219.69879518072287" y="595.5301204819277" type="curve" smooth="yes"/>
      <point x="219.69879518072287" y="537.5301204819277" type="line" smooth="yes"/>
      <point x="219.69879518072287" y="498.7469879518072"/>
      <point x="195.0843373493976" y="475.13253012048193"/>
      <point x="164.3012048192771" y="475.13253012048193" type="curve" smooth="yes"/>
      <point x="136.87951807228916" y="475.13253012048193"/>
      <point x="124.71084337349397" y="488.0240963855422"/>
      <point x="124.71084337349397" y="505.2771084337349" type="curve" smooth="yes"/>
      <point x="124.71084337349397" y="527.5301204819277"/>
      <point x="140.7710843373494" y="537.3373493975904"/>
      <point x="192.4698795180723" y="537.3373493975904" type="curve" smooth="yes"/>
      <point x="231.25301204819277" y="537.3373493975904" type="line"/>
      <point x="231.25301204819277" y="591.5542168674699" type="line"/>
      <point x="188.8313253012048" y="591.5542168674699" type="line" smooth="yes"/>
      <point x="67.78313253012048" y="591.5542168674699"/>
      <point x="14.975903614457831" y="566.5542168674699"/>
      <point x="14.975903614457831" y="502.6385542168675" type="curve" smooth="yes"/>
      <point x="14.975903614457831" y="446.08433734939763"/>
      <point x="62.25301204819277" y="404.16867469879514"/>
    </contour>
  </outline>
</glyph>
<glyph name="logicalnot" format="2">
  <advance width="600.0"/>
  <unicode hex="00AC"/>
  <outline>
    <contour>
      <point x="420.0722891566265" y="129.14457831325302" type="line"/>
      <point x="544.0" y="129.14457831325302" type="line"/>
      <point x="544.0" y="446.04819277108436" type="line"/>
      <point x="56.0" y="446.04819277108436" type="line"/>
      <point x="56.0" y="327.3975903614458" type="line"/>
      <point x="420.0722891566265" y="327.3975903614458" type="line"/>
    </contour>
  </outline>
</glyph>
<glyph name="plusminus" format="2">
  <advance width="600.0"/>
  <unicode hex="00B1"/>
  <outline>
    <contour>
      <point x="238.03614457831324" y="153.04819277108433" type="line"/>
      <point x="361.96385542168673" y="153.04819277108433" type="line"/>
      <point x="361.96385542168673" y="282.6987951807229" type="line"/>
      <point x="544.0" y="282.6987951807229" type="line"/>
      <point x="544.0" y="402.6265060240964" type="line"/>
      <point x="361.96385542168673" y="402.6265060240964" type="line"/>
      <point x="361.96385542168673" y="532.277108433735" type="line"/>
      <point x="238.03614457831324" y="532.277108433735" type="line"/>
      <point x="238.03614457831324" y="402.6265060240964" type="line"/>
      <point x="56.0" y="402.6265060240964" type="line"/>
      <point x="56.0" y="282.6987951807229" type="line"/>
      <point x="238.03614457831324" y="282.6987951807229" type="line"/>
    </contour>
    <contour>
      <point x="56.0" y="0.0" type="line"/>
      <point x="544.0" y="0.0" type="line"/>
      <point x="544.0" y="118.65060240963855" type="line"/>
      <point x="56.0" y="118.65060240963855" type="line"/>
    </contour>
  </outline>
</glyph>
<glyph name="micro" format="2">
  <advance width="600.0"/>
  <unicode hex="00B5"/>
  <outline>
    <contour>
      <point x="50.73493975903615" y="-180.0" type="line"/>
      <point x="228.73493975903614" y="-180.0" type="line"/>
      <point x="214.90361445783134" y="31.204819277108435" type="line"/>
      <point x="214.9277108433735" y="31.204819277108435" type="line"/>
      <point x="230.45783132530119" y="2.168674698795181"/>
      <point x="251.04819277108433" y="-11.27710843373494"/>
      <point x="285.6385542168675" y="-11.27710843373494" type="curve" smooth="yes"/>
      <point x="326.0361445783132" y="-11.27710843373494"/>
      <point x="366.18072289156623" y="24.89156626506024"/>
      <point x="375.79518072289153" y="89.86746987951807" type="curve"/>
      <point x="376.9036144578313" y="89.86746987951807" type="line"/>
      <point x="376.9036144578313" y="0.0" type="line"/>
      <point x="550.6265060240963" y="0.0" type="line"/>
      <point x="550.6265060240963" y="492.1927710843374" type="line"/>
      <point x="372.6265060240964" y="492.1927710843374" type="line"/>
      <point x="372.6265060240964" y="220.10843373493975" type="line" smooth="yes"/>
      <point x="372.6265060240964" y="163.26506024096386"/>
      <point x="338.3975903614458" y="125.75903614457832"/>
      <point x="290.1927710843374" y="125.75903614457832" type="curve" smooth="yes"/>
      <point x="248.07228915662648" y="125.75903614457832"/>
      <point x="228.73493975903614" y="149.4578313253012"/>
      <point x="228.73493975903614" y="197.3855421686747" type="curve" smooth="yes"/>
      <point x="228.73493975903614" y="492.1927710843374" type="line"/>
      <point x="50.73493975903615" y="492.1927710843374" type="line"/>
    </contour>
  </outline>
</glyph>
<glyph name="ordmasculine" format="2">
  <advance width="370.2409638554217"/>
  <unicode hex="00BA"/>
  <outline>
    <contour>
      <point x="185.3012048192771" y="406.44578313253015" type="curve" smooth="yes"/>
      <point x="282.96385542168673" y="406.44578313253015"/>
      <point x="355.71084337349396" y="467.08433734939763"/>
      <point x="355.71084337349396" y="562.3614457831326" type="curve" smooth="yes"/>
      <point x="355.71084337349396" y="657.277108433735"/>
      <point x="282.96385542168673" y="716.277108433735"/>
      <point x="185.3012048192771" y="716.277108433735" type="curve" smooth="yes"/>
      <point x="87.27710843373494" y="716.277108433735"/>
      <point x="14.530120481927712" y="657.277108433735"/>
      <point x="14.530120481927712" y="562.3614457831326" type="curve" smooth="yes"/>
      <point x="14.530120481927712" y="467.08433734939763"/>
      <point x="87.27710843373494" y="406.44578313253015"/>
    </contour>
    <contour>
      <point x="185.3012048192771" y="490.0602409638554" type="curve" smooth="yes"/>
      <point x="150.1566265060241" y="490.0602409638554"/>
      <point x="127.5421686746988" y="513.2168674698795"/>
      <point x="127.5421686746988" y="562.3614457831326" type="curve" smooth="yes"/>
      <point x="127.5421686746988" y="611.5060240963855"/>
      <point x="150.1566265060241" y="633.843373493976"/>
      <point x="185.3012048192771" y="633.843373493976" type="curve" smooth="yes"/>
      <point x="220.08433734939757" y="633.843373493976"/>
      <point x="242.69879518072293" y="609.8674698795181"/>
      <point x="242.69879518072293" y="562.3614457831326" type="curve" smooth="yes"/>
      <point x="242.69879518072293" y="514.855421686747"/>
      <point x="220.08433734939757" y="490.0602409638554"/>
    </contour>
  </outline>
</glyph>
<glyph name="questiondown" format="2">
  <advance width="478.15662650602405"/>
  <unicode hex="00BF"/>
  <outline>
    <contour>
      <point x="237.85542168674698" y="-191.27710843373492" type="curve" smooth="yes"/>
      <point x="325.0361445783132" y="-191.27710843373492"/>
      <point x="412.7710843373494" y="-167.65060240963857"/>
      <point x="476.33734939759034" y="-126.56626506024095" type="curve"/>
      <point x="420.10843373493975" y="-4.722891566265064" type="line"/>
      <point x="366.56626506024094" y="-38.43373493975904"/>
      <point x="310.9397590361446" y="-54.42168674698796"/>
      <point x="252.6024096385542" y="-54.42168674698796" type="curve" smooth="yes"/>
      <point x="206.02409638554215" y="-54.42168674698796"/>
      <point x="184.32530120481928" y="-39.72289156626506"/>
      <point x="184.32530120481928" y="-14.493975903614457" type="curve" smooth="yes"/>
      <point x="184.32530120481928" y="6.843373493975903"/>
      <point x="195.59036144578312" y="21.903614457831324"/>
      <point x="228.73493975903614" y="47.04819277108434" type="curve" smooth="yes"/>
      <point x="276.9759036144579" y="81.73493975903614"/>
      <point x="293.06024096385545" y="120.62650602409639"/>
      <point x="293.06024096385545" y="167.15662650602414" type="curve" smooth="yes"/>
      <point x="293.06024096385545" y="203.99999999999997" type="line"/>
      <point x="190.32530120481928" y="203.99999999999997" type="line"/>
      <point x="181.59036144578315" y="175.34939759036146" type="line" smooth="yes"/>
      <point x="174.86746987951804" y="146.92771084337352"/>
      <point x="154.7710843373494" y="124.3132530120482"/>
      <point x="99.06024096385542" y="91.34939759036143" type="curve" smooth="yes"/>
      <point x="31.518072289156628" y="52.10843373493976"/>
      <point x="5.325301204819279" y="11.566265060240964"/>
      <point x="5.325301204819279" y="-42.71084337349397" type="curve" smooth="yes"/>
      <point x="5.325301204819279" y="-133.5421686746988"/>
      <point x="95.5421686746988" y="-191.27710843373492"/>
    </contour>
    <contour>
      <point x="149.2048192771084" y="259.7710843373494" type="line"/>
      <point x="334.1807228915663" y="259.7710843373494" type="line"/>
      <point x="334.1807228915663" y="442.1927710843374" type="line"/>
      <point x="149.2048192771084" y="442.1927710843374" type="line"/>
    </contour>
  </outline>
</glyph>
<glyph name="germandbls" format="2">
  <advance width="699.6144578313254"/>
  <unicode hex="00DF"/>
  <outline>
    <contour>
      <point x="469.4939759036145" y="-11.27710843373494" type="curve" smooth="yes"/>
      <point x="603.9879518072289" y="-11.27710843373494"/>
      <point x="685.9156626506025" y="50.012048192771076"/>
      <point x="685.9156626506025" y="151.22891566265062" type="curve" smooth="yes"/>
      <point x="685.9156626506025" y="225.69879518072287"/>
      <point x="647.7349397590361" y="268.53012048192767"/>
      <point x="542.289156626506" y="290.33734939759034" type="curve" smooth="yes"/>
      <point x="474.0361445783132" y="305.144578313253"/>
      <point x="461.7831325301205" y="316.855421686747"/>
      <point x="461.7831325301205" y="337.91566265060237" type="curve" smooth="yes"/>
      <point x="461.7831325301205" y="355.6265060240964"/>
      <point x="472.3253012048193" y="374.71084337349396"/>
      <point x="508.4096385542169" y="424.4457831325301" type="curve" smooth="yes"/>
      <point x="547.4698795180724" y="475.2409638554217"/>
      <point x="559.6385542168675" y="512.0602409638554"/>
      <point x="559.6385542168675" y="556.2289156626506" type="curve" smooth="yes"/>
      <point x="559.6385542168675" y="659.4457831325301"/>
      <point x="477.421686746988" y="716.277108433735"/>
      <point x="341.3614457831325" y="716.277108433735" type="curve" smooth="yes"/>
      <point x="154.36144578313255" y="716.277108433735"/>
      <point x="51.59036144578313" y="615.6987951807229"/>
      <point x="51.59036144578313" y="438.7228915662651" type="curve" smooth="yes"/>
      <point x="51.59036144578313" y="0.0" type="line"/>
      <point x="229.59036144578312" y="0.0" type="line"/>
      <point x="229.59036144578312" y="464.7590361445783" type="line" smooth="yes"/>
      <point x="229.59036144578312" y="545.3614457831326"/>
      <point x="267.6626506024096" y="591.4337349397591"/>
      <point x="338.0843373493976" y="591.4337349397591" type="curve" smooth="yes"/>
      <point x="380.9638554216868" y="591.4337349397591"/>
      <point x="402.3975903614458" y="572.5421686746988"/>
      <point x="402.3975903614458" y="539.3012048192771" type="curve" smooth="yes"/>
      <point x="402.3975903614458" y="510.22891566265065"/>
      <point x="389.03614457831327" y="481.04819277108425"/>
      <point x="362.6144578313253" y="444.07228915662654" type="curve" smooth="yes"/>
      <point x="318.0843373493976" y="383.4216867469879"/>
      <point x="303.90361445783134" y="347.06024096385545"/>
      <point x="303.90361445783134" y="309.69879518072287" type="curve" smooth="yes"/>
      <point x="303.90361445783134" y="239.14457831325305"/>
      <point x="344.99999999999994" y="197.59036144578312"/>
      <point x="453.4578313253012" y="178.2409638554217" type="curve" smooth="yes"/>
      <point x="520.3373493975903" y="165.53012048192772"/>
      <point x="533.3132530120482" y="156.0"/>
      <point x="533.3132530120482" y="137.93975903614458" type="curve" smooth="yes"/>
      <point x="533.3132530120482" y="116.89156626506025"/>
      <point x="514.8072289156626" y="105.37349397590361"/>
      <point x="469.49397590361446" y="105.37349397590361" type="curve" smooth="yes"/>
      <point x="413.03614457831327" y="105.37349397590361"/>
      <point x="351.6626506024096" y="121.19277108433735"/>
      <point x="304.66265060240966" y="149.36144578313252" type="curve"/>
      <point x="265.81927710843377" y="39.53012048192771" type="line"/>
      <point x="315.65060240963857" y="7.6265060240963845"/>
      <point x="391.8433734939759" y="-11.27710843373494"/>
    </contour>
  </outline>
</glyph>
<glyph name="ae" format="2">
  <advance width="870.1084337349397"/>
  <unicode hex="00E6"/>
  <anchor x="414.3614457831325" y="0.0" name="bottom"/>
  <anchor x="414.3614457831325" y="484.0" name="top"/>
  <outline>
    <contour>
      <point x="237.0963855421687" y="-11.27710843373494" type="curve" smooth="yes"/>
      <point x="334.6385542168675" y="-11.27710843373494"/>
      <point x="401.7228915662651" y="29.698795180722893"/>
      <point x="428.01204819277103" y="99.39759036144578" type="curve"/>
      <point x="398.26506024096386" y="99.39759036144578" type="line"/>
      <point x="439.10843373493975" y="25.975903614457835"/>
      <point x="526.7469879518072" y="-11.27710843373494"/>
      <point x="642.2048192771084" y="-11.27710843373494" type="curve" smooth="yes"/>
      <point x="702.7469879518072" y="-11.27710843373494"/>
      <point x="780.9397590361447" y="7.626506024096386"/>
      <point x="831.3132530120482" y="37.1566265060241" type="curve"/>
      <point x="792.289156626506" y="150.4457831325301" type="line"/>
      <point x="747.2048192771084" y="125.8313253012048"/>
      <point x="692.1084337349398" y="112.92771084337349"/>
      <point x="649.0361445783133" y="112.92771084337349" type="curve" smooth="yes"/>
      <point x="561.9879518072289" y="112.92771084337349"/>
      <point x="517.4698795180723" y="143.60240963855424"/>
      <point x="517.4698795180723" y="225.3734939759036" type="curve" smooth="yes"/>
      <point x="517.4698795180723" y="238.74698795180726" type="line" smooth="yes"/>
      <point x="517.4698795180723" y="307.2409638554217"/>
      <point x="552.1566265060242" y="344.5542168674699"/>
      <point x="611.5421686746988" y="344.5542168674699" type="curve" smooth="yes"/>
      <point x="667.6626506024096" y="344.5542168674699"/>
      <point x="698.9036144578313" y="312.50602409638554"/>
      <point x="698.9036144578313" y="249.4698795180723" type="curve"/>
      <point x="714.7228915662652" y="264.1927710843373" type="line"/>
      <point x="501.91566265060237" y="264.1927710843373" type="line"/>
      <point x="501.91566265060237" y="186.7951807228916" type="line"/>
      <point x="845.0481927710844" y="186.7951807228916" type="line"/>
      <point x="845.0481927710844" y="217.89156626506022" type="line" smooth="yes"/>
      <point x="845.0481927710844" y="360.90361445783134"/>
      <point x="750.7469879518072" y="453.4698795180723"/>
      <point x="606.1686746987951" y="453.4698795180723" type="curve" smooth="yes"/>
      <point x="538.722891566265" y="453.4698795180723"/>
      <point x="471.48192771084337" y="429.1325301204819"/>
      <point x="431.01204819277103" y="383.44578313253015" type="curve"/>
      <point x="464.95180722891564" y="383.44578313253015" type="line"/>
      <point x="431.28915662650604" y="430.77108433734935"/>
      <point x="367.0843373493976" y="453.4698795180723"/>
      <point x="281.4698795180723" y="453.4698795180723" type="curve" smooth="yes"/>
      <point x="205.63855421686748" y="453.4698795180723"/>
      <point x="105.32530120481928" y="431.0120481927711"/>
      <point x="53.506024096385545" y="398.7469879518073" type="curve"/>
      <point x="93.34939759036145" y="286.09638554216866" type="line"/>
      <point x="149.5301204819277" y="316.90361445783134"/>
      <point x="211.63855421686748" y="331.08433734939763"/>
      <point x="266.26506024096386" y="331.08433734939763" type="curve" smooth="yes"/>
      <point x="323.4096385542169" y="331.08433734939763"/>
      <point x="347.48192771084337" y="312.66265060240966"/>
      <point x="347.48192771084337" y="272.72289156626505" type="curve" smooth="yes"/>
      <point x="347.48192771084337" y="179.6265060240964" type="line" smooth="yes"/>
      <point x="347.48192771084337" y="132.59036144578315"/>
      <point x="310.51807228915663" y="100.63855421686746"/>
      <point x="261.2168674698795" y="100.63855421686746" type="curve" smooth="yes"/>
      <point x="219.4457831325301" y="100.63855421686746"/>
      <point x="198.66265060240963" y="119.79518072289156"/>
      <point x="198.66265060240963" y="144.3855421686747" type="curve" smooth="yes"/>
      <point x="198.66265060240963" y="172.43373493975903"/>
      <point x="225.63855421686748" y="188.43373493975903"/>
      <point x="304.3132530120482" y="188.43373493975903" type="curve" smooth="yes"/>
      <point x="362.5783132530121" y="188.43373493975903" type="line"/>
      <point x="362.5783132530121" y="265.8313253012048" type="line"/>
      <point x="309.50602409638554" y="265.8313253012048" type="line" smooth="yes"/>
      <point x="108.97590361445782" y="265.8313253012048"/>
      <point x="29.590361445783138" y="233.02409638554218"/>
      <point x="29.590361445783138" y="137.9277108433735" type="curve" smooth="yes"/>
      <point x="29.590361445783138" y="52.63855421686747"/>
      <point x="108.144578313253" y="-11.27710843373494"/>
    </contour>
  </outline>
</glyph>
<glyph name="eth" format="2">
  <advance width="605.5421686746988"/>
  <unicode hex="00F0"/>
  <outline>
    <contour>
      <point x="290.7590361445784" y="-11.27710843373494" type="curve" smooth="yes"/>
      <point x="474.1807228915663" y="-11.27710843373494"/>
      <point x="578.7590361445783" y="103.57831325301204"/>
      <point x="578.7590361445783" y="289.2168674698795" type="curve" smooth="yes"/>
      <point x="578.7590361445783" y="396.7710843373494"/>
      <point x="532.4939759036145" y="511.78313253012044"/>
      <point x="431.9156626506024" y="597.3493975903614" type="curve"/>
      <point x="427.5421686746988" y="582.1566265060242" type="line"/>
      <point x="533.5662650602409" y="636.710843373494" type="line"/>
      <point x="492.0963855421687" y="716.5542168674699" type="line"/>
      <point x="342.1566265060241" y="639.722891566265" type="line"/>
      <point x="368.7831325301205" y="641.3734939759037" type="line"/>
      <point x="312.20481927710847" y="675.6626506024096"/>
      <point x="238.5421686746988" y="703.1084337349398"/>
      <point x="147.61445783132532" y="717.5542168674699" type="curve"/>
      <point x="117.59036144578313" y="605.9036144578313" type="line"/>
      <point x="161.56626506024094" y="597.9156626506024"/>
      <point x="198.72289156626508" y="586.9397590361447"/>
      <point x="233.57831325301203" y="572.2048192771084" type="curve"/>
      <point x="233.49397590361446" y="584.843373493976" type="line"/>
      <point x="104.144578313253" y="517.6746987951807" type="line"/>
      <point x="145.43373493975906" y="437.8313253012048" type="line"/>
      <point x="325.0" y="530.1084337349397" type="line"/>
      <point x="304.9759036144578" y="530.289156626506" type="line"/>
      <point x="369.07228915662654" y="482.38554216867476"/>
      <point x="413.4096385542169" y="407.421686746988"/>
      <point x="413.04819277108436" y="310.50602409638554" type="curve"/>
      <point x="454.1686746987952" y="310.50602409638554" type="line"/>
      <point x="427.0602409638554" y="398.28915662650604"/>
      <point x="356.0843373493976" y="425.6385542168675"/>
      <point x="277.46987951807233" y="425.6385542168675" type="curve" smooth="yes"/>
      <point x="134.72289156626508" y="425.6385542168675"/>
      <point x="29.87951807228916" y="337.54216867469876"/>
      <point x="29.87951807228916" y="208.81927710843374" type="curve" smooth="yes"/>
      <point x="29.87951807228916" y="77.81927710843372"/>
      <point x="137.18072289156626" y="-11.27710843373494"/>
    </contour>
    <contour>
      <point x="300.5903614457832" y="119.3012048192771" type="curve" smooth="yes"/>
      <point x="242.56626506024094" y="119.3012048192771"/>
      <point x="206.42168674698794" y="153.5301204819277"/>
      <point x="206.42168674698794" y="209.00000000000003" type="curve" smooth="yes"/>
      <point x="206.42168674698794" y="262.28915662650604"/>
      <point x="242.10843373493975" y="297.3373493975904"/>
      <point x="300.5903614457831" y="297.3373493975904" type="curve" smooth="yes"/>
      <point x="360.43373493975906" y="297.3373493975904"/>
      <point x="394.30120481927713" y="262.28915662650604"/>
      <point x="394.30120481927713" y="209.00000000000003" type="curve" smooth="yes"/>
      <point x="394.30120481927713" y="154.5301204819277"/>
      <point x="360.2530120481928" y="119.3012048192771"/>
    </contour>
  </outline>
</glyph>
<glyph name="divide" format="2">
  <advance width="600.0"/>
  <unicode hex="00F7"/>
  <outline>
    <contour>
      <point x="56.0" y="227.6746987951807" type="line"/>
      <point x="544.0" y="227.6746987951807" type="line"/>
      <point x="544.0" y="346.3253012048193" type="line"/>
      <point x="56.0" y="346.3253012048193" type="line"/>
    </contour>
    <contour>
      <point x="231.14457831325302" y="29.060240963855424" type="line"/>
      <point x="356.855421686747" y="29.060240963855424" type="line"/>
      <point x="356.855421686747" y="155.40963855421688" type="line"/>
      <point x="231.14457831325302" y="155.40963855421688" type="line"/>
    </contour>
    <contour>
      <point x="231.14457831325302" y="418.5903614457832" type="line"/>
      <point x="356.855421686747" y="418.5903614457832" type="line"/>
      <point x="356.855421686747" y="544.9397590361446" type="line"/>
      <point x="231.14457831325302" y="544.9397590361446" type="line"/>
    </contour>
  </outline>
</glyph>
<glyph name="thorn" format="2">
  <advance width="620.433734939759"/>
  <unicode hex="00FE"/>
  <anchor x="313.13253012048193" y="0.0" name="bottom"/>
  <anchor x="313.13253012048193" y="484.0" name="top"/>
  <outline>
    <contour>
      <point x="51.59036144578313" y="-180.0" type="line"/>
      <point x="229.59036144578312" y="-180.0" type="line"/>
      <point x="229.59036144578312" y="74.3132530120482" type="line"/>
      <point x="218.95180722891567" y="74.3132530120482" type="line"/>
      <point x="240.77108433734938" y="25.072289156626503"/>
      <point x="304.855421686747" y="-11.27710843373494"/>
      <point x="380.4698795180723" y="-11.27710843373494" type="curve" smooth="yes"/>
      <point x="502.2771084337349" y="-11.27710843373494"/>
      <point x="591.3734939759036" y="80.81927710843374"/>
      <point x="591.3734939759036" y="221.27710843373495" type="curve" smooth="yes"/>
      <point x="591.3734939759036" y="362.7349397590362"/>
      <point x="501.2771084337349" y="453.4698795180723"/>
      <point x="380.4698795180723" y="453.4698795180723" type="curve" smooth="yes"/>
      <point x="302.21686746987945" y="453.4698795180723"/>
      <point x="237.49397590361446" y="414.66265060240966"/>
      <point x="216.49397590361443" y="363.32530120481925" type="curve"/>
      <point x="229.59036144578312" y="363.32530120481925" type="line"/>
      <point x="229.59036144578312" y="705.0" type="line"/>
      <point x="51.59036144578313" y="705.0" type="line"/>
    </contour>
    <contour>
      <point x="319.6626506024096" y="118.48192771084337" type="curve" smooth="yes"/>
      <point x="262.6385542168675" y="118.48192771084337"/>
      <point x="225.3132530120482" y="152.7951807228916"/>
      <point x="225.3132530120482" y="221.27710843373495" type="curve" smooth="yes"/>
      <point x="225.3132530120482" y="289.93975903614455"/>
      <point x="262.6385542168675" y="324.5301204819277"/>
      <point x="319.6626506024096" y="324.5301204819277" type="curve" smooth="yes"/>
      <point x="376.50602409638554" y="324.5301204819277"/>
      <point x="414.0120481927711" y="289.93975903614455"/>
      <point x="414.0120481927711" y="221.27710843373495" type="curve" smooth="yes"/>
      <point x="414.0120481927711" y="152.7951807228916"/>
      <point x="376.50602409638554" y="118.48192771084337"/>
    </contour>
  </outline>
</glyph>
<glyph name="dcroat" format="2">
  <advance width="620.433734939759"/>
  <unicode hex="0111"/>
  <outline>
    <contour>
      <point x="241.14457831325296" y="-11.27710843373494" type="curve" smooth="yes"/>
      <point x="319.21686746987956" y="-11.27710843373494"/>
      <point x="383.48192771084337" y="27.89156626506024"/>
      <point x="403.6626506024096" y="79.13253012048193" type="curve"/>
      <point x="395.7590361445783" y="79.13253012048193" type="line"/>
      <point x="395.7590361445783" y="0.0" type="line"/>
      <point x="569.2048192771084" y="0.0" type="line"/>
      <point x="569.2048192771084" y="501.8674698795181" type="line"/>
      <point x="651.7349397590361" y="501.8674698795181" type="line"/>
      <point x="651.7349397590361" y="623.0722891566265" type="line"/>
      <point x="569.2048192771084" y="623.0722891566265" type="line"/>
      <point x="569.2048192771084" y="705.0" type="line"/>
      <point x="391.20481927710847" y="705.0" type="line"/>
      <point x="391.20481927710847" y="623.0722891566265" type="line"/>
      <point x="192.04819277108433" y="623.0722891566265" type="line"/>
      <point x="192.04819277108433" y="501.8674698795181" type="line"/>
      <point x="391.20481927710847" y="501.8674698795181" type="line"/>
      <point x="391.20481927710847" y="364.9397590361446" type="line"/>
      <point x="402.0240963855422" y="364.9397590361446" type="line"/>
      <point x="379.3855421686747" y="413.1807228915663"/>
      <point x="316.9397590361446" y="448.89156626506025"/>
      <point x="241.14457831325296" y="448.89156626506025" type="curve" smooth="yes"/>
      <point x="118.51807228915663" y="448.89156626506025"/>
      <point x="30.24096385542169" y="362.34939759036143"/>
      <point x="30.24096385542169" y="218.9879518072289" type="curve" smooth="yes"/>
      <point x="30.24096385542169" y="76.62650602409639"/>
      <point x="119.51807228915663" y="-11.27710843373494"/>
    </contour>
    <contour>
      <point x="301.13253012048193" y="118.48192771084337" type="curve" smooth="yes"/>
      <point x="244.10843373493972" y="118.48192771084337"/>
      <point x="206.78313253012047" y="152.7951807228916"/>
      <point x="206.78313253012047" y="218.9879518072289" type="curve" smooth="yes"/>
      <point x="206.78313253012047" y="285.3614457831325"/>
      <point x="244.10843373493972" y="319.9518072289157"/>
      <point x="301.13253012048193" y="319.9518072289157" type="curve" smooth="yes"/>
      <point x="357.9759036144579" y="319.9518072289157"/>
      <point x="395.4819277108434" y="285.3614457831325"/>
      <point x="395.4819277108434" y="218.9879518072289" type="curve" smooth="yes"/>
      <point x="395.4819277108434" y="152.7951807228916"/>
      <point x="357.9759036144579" y="118.48192771084337"/>
    </contour>
  </outline>
</glyph>
<glyph name="hbar" format="2">
  <advance width="606.0722891566265"/>
  <unicode hex="0127"/>
  <outline>
    <contour>
      <point x="51.59036144578313" y="0.0" type="line"/>
      <point x="229.59036144578312" y="0.0" type="line"/>
      <point x="229.59036144578312" y="223.68674698795184" type="line" smooth="yes"/>
      <point x="229.59036144578312" y="278.16867469879514"/>
      <point x="263.0" y="313.3975903614458"/>
      <point x="317.6626506024096" y="313.3975903614458" type="curve" smooth="yes"/>
      <point x="358.50602409638554" y="313.3975903614458"/>
      <point x="378.84337349397595" y="292.15662650602405"/>
      <point x="378.84337349397595" y="234.9397590361446" type="curve" smooth="yes"/>
      <point x="378.84337349397595" y="0.0" type="line"/>
      <point x="556.843373493976" y="0.0" type="line"/>
      <point x="556.843373493976" y="245.31325301204816" type="line" smooth="yes"/>
      <point x="556.843373493976" y="382.51807228915663"/>
      <point x="501.48192771084337" y="448.89156626506025"/>
      <point x="383.84337349397595" y="448.89156626506025" type="curve" smooth="yes"/>
      <point x="307.6746987951807" y="448.89156626506025"/>
      <point x="246.86746987951807" y="414.0843373493976"/>
      <point x="215.31325301204816" y="354.46987951807233" type="curve"/>
      <point x="229.59036144578312" y="354.46987951807233" type="line"/>
      <point x="229.59036144578312" y="501.8674698795181" type="line"/>
      <point x="412.8433734939759" y="501.8674698795181" type="line"/>
      <point x="412.8433734939759" y="623.0722891566265" type="line"/>
      <point x="229.59036144578312" y="623.0722891566265" type="line"/>
      <point x="229.59036144578312" y="705.0" type="line"/>
      <point x="51.59036144578313" y="705.0" type="line"/>
      <point x="51.59036144578313" y="623.0722891566265" type="line"/>
      <point x="-30.939759036144576" y="623.0722891566265" type="line"/>
      <point x="-30.939759036144576" y="501.8674698795181" type="line"/>
      <point x="51.59036144578313" y="501.8674698795181" type="line"/>
    </contour>
  </outline>
</glyph>
<glyph name="idotless" format="2">
  <advance width="281.18072289156623"/>
  <unicode hex="0131"/>
  <anchor x="140.40963855421685" y="0.0" name="bottom"/>
  <anchor x="186.9879518072289" y="0.0" name="ogonek"/>
  <anchor x="140.40963855421685" y="484.0" name="top"/>
  <outline>
    <contour>
      <point x="51.59036144578313" y="0.0" type="line"/>
      <point x="229.59036144578312" y="0.0" type="line"/>
      <point x="229.59036144578312" y="442.1927710843374" type="line"/>
      <point x="51.59036144578313" y="442.1927710843374" type="line"/>
    </contour>
  </outline>
</glyph>
<glyph name="kgreenlandic" format="2">
  <advance width="580.0602409638554"/>
  <unicode hex="0138"/>
  <anchor x="289.71084337349396" y="0.0" name="bottom"/>
  <anchor x="289.71084337349396" y="484.0" name="top"/>
  <outline>
    <contour>
      <point x="51.59036144578313" y="0.0" type="line"/>
      <point x="229.59036144578312" y="0.0" type="line"/>
      <point x="229.59036144578312" y="185.32530120481925" type="line"/>
      <point x="231.59036144578312" y="185.32530120481925" type="line"/>
      <point x="391.07228915662654" y="0.0" type="line"/>
      <point x="605.277108433735" y="0.0" type="line"/>
      <point x="387.578313253012" y="258.0240963855422" type="line"/>
      <point x="387.578313253012" y="202.26506024096386" type="line"/>
      <point x="598.7590361445783" y="442.1927710843374" type="line"/>
      <point x="388.8313253012048" y="442.1927710843374" type="line"/>
      <point x="231.59036144578312" y="264.1325301204819" type="line"/>
      <point x="229.59036144578312" y="264.1325301204819" type="line"/>
      <point x="229.59036144578312" y="442.1927710843374" type="line"/>
      <point x="51.59036144578313" y="442.1927710843374" type="line"/>
    </contour>
  </outline>
</glyph>
<glyph name="eng" format="2">
  <advance width="606.0722891566265"/>
  <unicode hex="014B"/>
  <outline>
    <contour>
      <point x="283.3614457831325" y="-193.0" type="line"/>
      <point x="327.3614457831325" y="-190.0" type="line" smooth="yes"/>
      <point x="499.28915662650604" y="-178.0843373493976"/>
      <point x="556.843373493976" y="-120.72289156626506"/>
      <point x="556.843373493976" y="28.156626506024097" type="curve" smooth="yes"/>
      <point x="556.843373493976" y="249.89156626506022" type="line" smooth="yes"/>
      <point x="556.843373493976" y="387.27710843373495"/>
      <point x="501.48192771084337" y="453.4698795180723"/>
      <point x="383.84337349397595" y="453.4698795180723" type="curve" smooth="yes"/>
      <point x="307.6746987951807" y="453.4698795180723"/>
      <point x="246.86746987951807" y="418.66265060240966"/>
      <point x="215.31325301204816" y="359.04819277108436" type="curve"/>
      <point x="224.49397590361443" y="359.04819277108436" type="line"/>
      <point x="224.49397590361443" y="442.1927710843374" type="line"/>
      <point x="51.59036144578313" y="442.1927710843374" type="line"/>
      <point x="51.59036144578313" y="0.0" type="line"/>
      <point x="229.59036144578312" y="0.0" type="line"/>
      <point x="229.59036144578312" y="228.2650602409639" type="line" smooth="yes"/>
      <point x="229.59036144578312" y="282.74698795180717"/>
      <point x="263.0" y="317.97590361445776"/>
      <point x="317.6626506024096" y="317.97590361445776" type="curve" smooth="yes"/>
      <point x="358.50602409638554" y="317.97590361445776"/>
      <point x="378.84337349397595" y="296.73493975903614"/>
      <point x="378.84337349397595" y="239.51807228915666" type="curve" smooth="yes"/>
      <point x="378.84337349397595" y="2.5783132530120483" type="line" smooth="yes"/>
      <point x="378.84337349397595" y="-38.096385542168676"/>
      <point x="361.50602409638554" y="-57.15662650602411"/>
      <point x="319.72289156626505" y="-61.87951807228916" type="curve" smooth="yes"/>
      <point x="271.53012048192767" y="-67.51807228915662" type="line"/>
    </contour>
  </outline>
</glyph>
<glyph name="OE" format="2">
  <advance width="1067.4939759036145"/>
  <unicode hex="0152"/>
  <anchor x="605.6626506024096" y="0.0" name="bottom"/>
  <anchor x="605.6626506024096" y="705.0" name="top"/>
  <outline>
    <contour>
      <point x="431.0240963855422" y="0.0" type="curve" smooth="yes"/>
      <point x="1015.2168674698795" y="0.0" type="line"/>
      <point x="1015.2168674698795" y="141.59036144578312" type="line"/>
      <point x="692.8433734939758" y="141.59036144578312" type="line"/>
      <point x="692.8433734939758" y="287.20481927710847" type="line"/>
      <point x="992.578313253012" y="287.20481927710847" type="line"/>
      <point x="992.578313253012" y="428.7951807228916" type="line"/>
      <point x="692.8433734939758" y="428.7951807228916" type="line"/>
      <point x="692.8433734939758" y="563.4096385542168" type="line"/>
      <point x="1015.2168674698795" y="563.4096385542168" type="line"/>
      <point x="1015.2168674698795" y="705.0" type="line"/>
      <point x="431.0240963855422" y="705.0" type="line" smooth="yes"/>
      <point x="186.08433734939757" y="705.0"/>
      <point x="45.6987951807229" y="576.4457831325301"/>
      <point x="45.6987951807229" y="353.0" type="curve" smooth="yes"/>
      <point x="45.6987951807229" y="128.9156626506024"/>
      <point x="186.08433734939757" y="0.0"/>
    </contour>
    <contour>
      <point x="441.5783132530121" y="149.42168674698794" type="line" smooth="yes"/>
      <point x="303.12048192771084" y="149.42168674698794"/>
      <point x="236.53012048192772" y="215.45783132530119"/>
      <point x="236.53012048192772" y="353.0" type="curve" smooth="yes"/>
      <point x="236.53012048192772" y="490.54216867469876"/>
      <point x="304.12048192771084" y="555.5783132530121"/>
      <point x="441.5783132530121" y="555.5783132530121" type="curve" smooth="yes"/>
      <point x="517.4819277108434" y="555.5783132530121" type="line"/>
      <point x="517.4819277108434" y="149.42168674698794" type="line"/>
    </contour>
  </outline>
</glyph>
<glyph name="oe" format="2">
  <advance width="920.3855421686746"/>
  <unicode hex="0153"/>
  <anchor x="480.0240963855422" y="0.0" name="bottom"/>
  <anchor x="480.0240963855422" y="484.0" name="top"/>
  <outline>
    <contour>
      <point x="298.132530120482" y="-11.27710843373494" type="curve" smooth="yes"/>
      <point x="389.66265060240966" y="-11.27710843373494"/>
      <point x="454.83132530120486" y="20.325301204819276"/>
      <point x="498.03614457831327" y="73.81927710843372" type="curve"/>
      <point x="469.75903614457826" y="73.81927710843372" type="line"/>
      <point x="511.69879518072287" y="20.783132530120483"/>
      <point x="592.5060240963855" y="-11.27710843373494"/>
      <point x="692.3012048192771" y="-11.27710843373494" type="curve" smooth="yes"/>
      <point x="753.2891566265059" y="-11.27710843373494"/>
      <point x="831.7590361445782" y="7.807228915662651"/>
      <point x="881.5903614457831" y="36.975903614457835" type="curve"/>
      <point x="842.566265060241" y="150.4457831325301" type="line"/>
      <point x="797.4819277108434" y="125.8313253012048"/>
      <point x="741.9277108433735" y="112.92771084337349"/>
      <point x="696.1325301204819" y="112.92771084337349" type="curve" smooth="yes"/>
      <point x="603.4457831325301" y="112.92771084337349"/>
      <point x="566.7469879518072" y="149.24096385542168"/>
      <point x="566.7469879518072" y="224.9156626506024" type="curve" smooth="yes"/>
      <point x="566.7469879518072" y="238.9277108433735" type="line" smooth="yes"/>
      <point x="566.7469879518072" y="308.86746987951807"/>
      <point x="602.4337349397589" y="344.5542168674699"/>
      <point x="662.277108433735" y="344.5542168674699" type="curve" smooth="yes"/>
      <point x="717.578313253012" y="344.5542168674699"/>
      <point x="749.6385542168674" y="312.50602409638554"/>
      <point x="749.6385542168674" y="249.28915662650599" type="curve"/>
      <point x="769.9156626506025" y="263.4698795180723" type="line"/>
      <point x="550.3855421686748" y="263.4698795180723" type="line"/>
      <point x="550.3855421686748" y="186.0722891566265" type="line"/>
      <point x="895.3253012048192" y="186.0722891566265" type="line"/>
      <point x="895.3253012048192" y="217.89156626506022" type="line" smooth="yes"/>
      <point x="895.3253012048192" y="361.1807228915663"/>
      <point x="801.4819277108434" y="453.4698795180723"/>
      <point x="656.4457831325301" y="453.4698795180723" type="curve" smooth="yes"/>
      <point x="576.843373493976" y="453.4698795180723"/>
      <point x="512.3253012048192" y="422.79518072289153"/>
      <point x="471.20481927710847" y="374.9277108433735" type="curve"/>
      <point x="496.5783132530121" y="374.9277108433735" type="line"/>
      <point x="453.3734939759036" y="425.50602409638554"/>
      <point x="389.0240963855422" y="453.4698795180723"/>
      <point x="298.132530120482" y="453.4698795180723" type="curve" smooth="yes"/>
      <point x="135.5421686746988" y="453.4698795180723"/>
      <point x="29.87951807228916" y="363.37349397590367"/>
      <point x="29.87951807228916" y="222.73493975903614" type="curve" smooth="yes"/>
      <point x="29.87951807228916" y="80.63855421686748"/>
      <point x="135.5421686746988" y="-11.27710843373494"/>
    </contour>
    <contour>
      <point x="301.4096385542169" y="118.48192771084337" type="curve" smooth="yes"/>
      <point x="244.56626506024094" y="118.48192771084337"/>
      <point x="206.42168674698794" y="153.43373493975906"/>
      <point x="206.42168674698794" y="221.91566265060243" type="curve" smooth="yes"/>
      <point x="206.42168674698794" y="289.7590361445783"/>
      <point x="243.56626506024094" y="324.5301204819277"/>
      <point x="300.7710843373494" y="324.5301204819277" type="curve" smooth="yes"/>
      <point x="357.61445783132535" y="324.5301204819277"/>
      <point x="395.12048192771084" y="289.7590361445783"/>
      <point x="395.12048192771084" y="221.91566265060243" type="curve" smooth="yes"/>
      <point x="395.12048192771084" y="153.43373493975906"/>
      <point x="358.6144578313253" y="118.48192771084337"/>
    </contour>
  </outline>
</glyph>
<glyph name="Dhook" format="2">
  <advance width="967.5542168674699"/>
  <unicode hex="018A"/>
  <outline>
    <contour>
      <point x="245.51807228915663" y="0.0" type="line"/>
      <point x="536.8915662650602" y="0.0" type="line" smooth="yes"/>
      <point x="781.8313253012049" y="0.0"/>
      <point x="922.2168674698796" y="128.9156626506024"/>
      <point x="922.2168674698796" y="353.0" type="curve" smooth="yes"/>
      <point x="922.2168674698796" y="576.4457831325301"/>
      <point x="781.8313253012049" y="705.0"/>
      <point x="536.8915662650602" y="705.0" type="curve" smooth="yes"/>
      <point x="229.8192771084337" y="705.0" type="line" smooth="yes"/>
      <point x="77.57831325301206" y="705.0"/>
      <point x="0.0" y="633.6987951807229"/>
      <point x="0.0" y="501.2048192771084" type="curve" smooth="yes"/>
      <point x="0.0" y="445.3734939759036" type="line"/>
      <point x="147.14457831325302" y="445.3734939759036" type="line"/>
      <point x="147.14457831325302" y="495.56626506024094" type="line" smooth="yes"/>
      <point x="147.14457831325302" y="555.2650602409639"/>
      <point x="171.3975903614458" y="580.156626506024"/>
      <point x="227.18072289156626" y="580.156626506024" type="curve" smooth="yes"/>
      <point x="245.51807228915663" y="580.156626506024" type="line"/>
    </contour>
    <contour>
      <point x="429.07228915662654" y="149.42168674698794" type="line"/>
      <point x="429.07228915662654" y="555.5783132530121" type="line"/>
      <point x="525.6987951807229" y="555.5783132530121" type="line" smooth="yes"/>
      <point x="663.7951807228916" y="555.5783132530121"/>
      <point x="731.3855421686746" y="490.54216867469876"/>
      <point x="731.3855421686746" y="353.0" type="curve" smooth="yes"/>
      <point x="731.3855421686746" y="215.45783132530119"/>
      <point x="664.7951807228916" y="149.42168674698794"/>
      <point x="525.6987951807229" y="149.42168674698794" type="curve" smooth="yes"/>
    </contour>
  </outline>
</glyph>
<glyph name="yhook" format="2">
  <advance width="595.2650602409639"/>
  <unicode hex="01B4"/>
  <outline>
    <contour>
      <point x="333.09638554216866" y="322.04819277108436" type="curve" smooth="yes"/>
      <point x="258.566265060241" y="161.09638554216866" type="line"/>
      <point x="289.2168674698795" y="161.09638554216866" type="line"/>
      <point x="164.39759036144576" y="442.1927710843374" type="line"/>
      <point x="-19.78313253012048" y="442.1927710843374" type="line"/>
      <point x="199.59036144578315" y="-2.168674698795182" type="line"/>
      <point x="199.59036144578315" y="65.71084337349397" type="line"/>
      <point x="71.72289156626508" y="-180.0" type="line"/>
      <point x="250.44578313253012" y="-180.0" type="line"/>
      <point x="466.50602409638554" y="252.54216867469876" type="line" smooth="yes"/>
      <point x="488.1325301204819" y="296.33734939759034"/>
      <point x="516.6867469879519" y="316.51807228915663"/>
      <point x="553.132530120482" y="316.51807228915663" type="curve" smooth="yes"/>
      <point x="566.7710843373494" y="316.51807228915663"/>
      <point x="578.4939759036145" y="316.15662650602405"/>
      <point x="592.7710843373494" y="311.15662650602405" type="curve"/>
      <point x="615.1566265060242" y="439.2771084337349" type="line"/>
      <point x="598.5180722891566" y="447.5542168674699"/>
      <point x="560.9397590361446" y="453.4698795180723"/>
      <point x="529.4698795180724" y="453.4698795180723" type="curve" smooth="yes"/>
      <point x="419.4939759036145" y="453.4698795180723"/>
      <point x="369.46987951807233" y="396.9759036144578"/>
    </contour>
  </outline>
</glyph>
<glyph name="gstroke" format="2">
  <advance width="625.710843373494"/>
  <unicode hex="01E5"/>
  <outline>
    <contour>
      <point x="294.55421686746985" y="-191.27710843373492" type="curve" smooth="yes"/>
      <point x="434.9759036144579" y="-191.27710843373492"/>
      <point x="526.3855421686746" y="-138.89156626506025"/>
      <point x="560.301204819277" y="-34.036144578313255" type="curve"/>
      <point x="547.4096385542168" y="-41.674698795180724" type="line"/>
      <point x="623.5421686746988" y="-41.674698795180724" type="line"/>
      <point x="623.5421686746988" y="32.86746987951807" type="line"/>
      <point x="565.1325301204819" y="32.86746987951807" type="line"/>
      <point x="570.3975903614459" y="7.9999999999999964" type="line"/>
      <point x="572.7590361445783" y="25.819277108433738"/>
      <point x="574.1204819277109" y="45.98795180722891"/>
      <point x="574.1204819277109" y="65.60240963855422" type="curve" smooth="yes"/>
      <point x="574.1204819277109" y="442.1927710843374" type="line"/>
      <point x="401.3975903614458" y="442.1927710843374" type="line"/>
      <point x="401.3975903614458" y="366.96385542168673" type="line"/>
      <point x="407.855421686747" y="368.7951807228916" type="line"/>
      <point x="383.66265060240966" y="418.855421686747"/>
      <point x="319.3975903614458" y="453.4698795180723"/>
      <point x="245.24096385542165" y="453.4698795180723" type="curve" smooth="yes"/>
      <point x="119.79518072289159" y="453.4698795180723"/>
      <point x="29.87951807228916" y="371.3975903614458"/>
      <point x="29.87951807228916" y="251.66265060240966" type="curve" smooth="yes"/>
      <point x="29.87951807228916" y="132.566265060241"/>
      <point x="119.79518072289159" y="50.132530120481924"/>
      <point x="245.24096385542165" y="50.132530120481924" type="curve" smooth="yes"/>
      <point x="320.2168674698795" y="50.132530120481924"/>
      <point x="386.12048192771084" y="83.46987951807229"/>
      <point x="408.67469879518075" y="132.25301204819277" type="curve"/>
      <point x="401.03614457831327" y="132.25301204819277" type="line"/>
      <point x="401.03614457831327" y="32.36144578313253" type="line" smooth="yes"/>
      <point x="401.03614457831327" y="22.46987951807229"/>
      <point x="400.21686746987956" y="14.566265060240964"/>
      <point x="398.49397590361446" y="5.5783132530120465" type="curve"/>
      <point x="410.04819277108436" y="32.86746987951807" type="line"/>
      <point x="276.95180722891564" y="32.86746987951807" type="line"/>
      <point x="276.95180722891564" y="-41.674698795180724" type="line"/>
      <point x="387.9759036144578" y="-41.674698795180724" type="line"/>
      <point x="381.5903614457832" y="-34.674698795180724" type="line"/>
      <point x="362.14457831325296" y="-60.204819277108435"/>
      <point x="328.1566265060241" y="-72.19277108433734"/>
      <point x="278.34939759036143" y="-72.19277108433734" type="curve" smooth="yes"/>
      <point x="220.19277108433735" y="-72.19277108433734"/>
      <point x="141.24096385542168" y="-52.638554216867476"/>
      <point x="92.62650602409639" y="-21.831325301204814" type="curve"/>
      <point x="49.048192771084345" y="-133.92771084337352" type="line"/>
      <point x="115.87951807228917" y="-174.0120481927711"/>
      <point x="202.9036144578313" y="-191.27710843373492"/>
    </contour>
    <contour>
      <point x="303.4096385542168" y="174.06024096385542" type="curve" smooth="yes"/>
      <point x="243.65060240963857" y="174.06024096385542"/>
      <point x="206.42168674698794" y="206.27710843373495"/>
      <point x="206.42168674698794" y="251.02409638554218" type="curve" smooth="yes"/>
      <point x="206.42168674698794" y="296.7710843373494"/>
      <point x="242.8313253012048" y="329.44578313253015"/>
      <point x="303.4096385542168" y="329.44578313253015" type="curve" smooth="yes"/>
      <point x="363.9879518072289" y="329.44578313253015"/>
      <point x="400.2168674698795" y="296.5903614457832"/>
      <point x="400.2168674698795" y="251.20481927710844" type="curve" smooth="yes"/>
      <point x="400.2168674698795" y="207.0963855421687"/>
      <point x="363.8072289156626" y="174.06024096385542"/>
    </contour>
  </outline>
</glyph>
<glyph name="jdotless" format="2">
  <advance width="287.09638554216866"/>
  <unicode hex="0237"/>
  <anchor x="145.04819277108433" y="0.0" name="bottom"/>
  <anchor x="145.04819277108433" y="484.0" name="top"/>
  <outline>
    <contour>
      <point x="-38.614457831325296" y="-193.0" type="line"/>
      <point x="5.024096385542167" y="-190.0" type="line" smooth="yes"/>
      <point x="177.3132530120482" y="-178.0843373493976"/>
      <point x="234.86746987951807" y="-120.72289156626506"/>
      <point x="234.86746987951807" y="28.156626506024097" type="curve" smooth="yes"/>
      <point x="234.86746987951807" y="442.1927710843374" type="line"/>
      <point x="56.867469879518076" y="442.1927710843374" type="line"/>
      <point x="56.867469879518076" y="2.5783132530120483" type="line" smooth="yes"/>
      <point x="56.867469879518076" y="-38.096385542168676"/>
      <point x="39.53012048192771" y="-57.15662650602411"/>
      <point x="-2.2530120481927707" y="-61.87951807228916" type="curve" smooth="yes"/>
      <point x="-50.80722891566265" y="-67.51807228915662" type="line"/>
    </contour>
  </outline>
</glyph>
<glyph name="dhook" format="2">
  <advance width="620.433734939759"/>
  <unicode hex="0257"/>
  <outline>
    <contour>
      <point x="240.78313253012044" y="-11.27710843373494" type="curve" smooth="yes"/>
      <point x="318.855421686747" y="-11.27710843373494"/>
      <point x="383.5783132530121" y="28.53012048192771"/>
      <point x="403.7590361445783" y="80.04819277108433" type="curve"/>
      <point x="396.12048192771084" y="80.04819277108433" type="line"/>
      <point x="396.12048192771084" y="0.0" type="line"/>
      <point x="568.843373493976" y="0.0" type="line"/>
      <point x="568.843373493976" y="492.26506024096386" type="line" smooth="yes"/>
      <point x="568.843373493976" y="557.9879518072289"/>
      <point x="601.2048192771084" y="578.9638554216867"/>
      <point x="640.3493975903614" y="578.9638554216867" type="curve" smooth="yes"/>
      <point x="654.3493975903615" y="578.9638554216867"/>
      <point x="664.6265060240963" y="577.9638554216867"/>
      <point x="680.3493975903615" y="573.9638554216867" type="curve"/>
      <point x="700.0963855421686" y="704.3614457831325" type="line"/>
      <point x="681.8192771084337" y="711.6385542168674"/>
      <point x="646.5180722891566" y="716.277108433735"/>
      <point x="623.6024096385541" y="716.277108433735" type="curve" smooth="yes"/>
      <point x="467.69879518072287" y="716.277108433735"/>
      <point x="390.84337349397595" y="628.8674698795181"/>
      <point x="390.84337349397595" y="495.1807228915663" type="curve" smooth="yes"/>
      <point x="390.84337349397595" y="368.421686746988" type="line"/>
      <point x="402.12048192771084" y="368.421686746988" type="line"/>
      <point x="379.48192771084337" y="417.9397590361446"/>
      <point x="316.5783132530121" y="453.4698795180723"/>
      <point x="240.78313253012044" y="453.4698795180723" type="curve" smooth="yes"/>
      <point x="118.15662650602408" y="453.4698795180723"/>
      <point x="29.87951807228916" y="362.7349397590362"/>
      <point x="29.87951807228916" y="221.27710843373495" type="curve" smooth="yes"/>
      <point x="29.87951807228916" y="80.0"/>
      <point x="119.15662650602408" y="-11.27710843373494"/>
    </contour>
    <contour>
      <point x="300.7710843373494" y="118.48192771084337" type="curve" smooth="yes"/>
      <point x="243.7469879518072" y="118.48192771084337"/>
      <point x="206.42168674698794" y="152.7951807228916"/>
      <point x="206.42168674698794" y="221.27710843373495" type="curve" smooth="yes"/>
      <point x="206.42168674698794" y="289.93975903614455"/>
      <point x="243.7469879518072" y="324.5301204819277"/>
      <point x="300.7710843373494" y="324.5301204819277" type="curve" smooth="yes"/>
      <point x="357.61445783132535" y="324.5301204819277"/>
      <point x="395.12048192771084" y="289.93975903614455"/>
      <point x="395.12048192771084" y="221.27710843373495" type="curve" smooth="yes"/>
      <point x="395.12048192771084" y="152.7951807228916"/>
      <point x="357.61445783132535" y="118.48192771084337"/>
    </contour>
  </outline>
</glyph>
<glyph name="schwa" format="2">
  <advance width="555.7710843373494"/>
  <unicode hex="0259"/>
  <outline>
    <contour>
      <point x="273.6626506024096" y="-11.27710843373494" type="curve" smooth="yes"/>
      <point x="417.95180722891564" y="-11.27710843373494"/>
      <point x="526.710843373494" y="86.63855421686746"/>
      <point x="526.710843373494" y="220.81927710843374" type="curve" smooth="yes"/>
      <point x="526.710843373494" y="360.91566265060237"/>
      <point x="421.5060240963855" y="453.4698795180723"/>
      <point x="240.0" y="453.4698795180723" type="curve" smooth="yes"/>
      <point x="173.45783132530119" y="453.4698795180723"/>
      <point x="95.62650602409639" y="436.3855421686747"/>
      <point x="40.614457831325296" y="406.578313253012" type="curve"/>
      <point x="76.99999999999999" y="294.7469879518073" type="line"/>
      <point x="126.90361445783132" y="316.72289156626505"/>
      <point x="183.63855421686748" y="329.2650602409639"/>
      <point x="236.26506024096386" y="329.2650602409639" type="curve" smooth="yes"/>
      <point x="324.77108433734935" y="329.2650602409639"/>
      <point x="362.6385542168675" y="294.2168674698795"/>
      <point x="362.6385542168675" y="218.1807228915663" type="curve" smooth="yes"/>
      <point x="362.6385542168675" y="204.80722891566262" type="line" smooth="yes"/>
      <point x="362.6385542168675" y="135.2289156626506"/>
      <point x="325.4939759036145" y="97.81927710843374"/>
      <point x="266.9156626506024" y="97.81927710843374" type="curve" smooth="yes"/>
      <point x="208.26506024096386" y="97.81927710843374"/>
      <point x="175.2048192771084" y="128.78313253012047"/>
      <point x="175.2048192771084" y="194.6265060240964" type="curve"/>
      <point x="155.38554216867468" y="178.72289156626505" type="line"/>
      <point x="377.81927710843377" y="178.72289156626505" type="line"/>
      <point x="377.81927710843377" y="256.1204819277109" type="line"/>
      <point x="25.060240963855424" y="256.1204819277109" type="line"/>
      <point x="25.060240963855424" y="225.66265060240963" type="line" smooth="yes"/>
      <point x="25.060240963855424" y="74.09638554216866"/>
      <point x="119.0843373493976" y="-11.27710843373494"/>
    </contour>
  </outline>
</glyph>
<glyph name="commaturnedmod" format="2">
  <advance width="500.0"/>
  <unicode hex="02BB"/>
  <anchor x="250.0" y="484.0" name="_top"/>
  <anchor x="250.0" y="685.0" name="top"/>
  <outline>
    <contour>
      <point x="165.2048192771084" y="510.16867469879526" type="line"/>
      <point x="334.15662650602405" y="510.16867469879526" type="line"/>
      <point x="334.15662650602405" y="632.7831325301204" type="line"/>
      <point x="215.97590361445785" y="632.7831325301204" type="line"/>
      <point x="252.0" y="612.6746987951807" type="line"/>
      <point x="252.0" y="652.4096385542169"/>
      <point x="260.91566265060237" y="680.4096385542169"/>
      <point x="293.7349397590361" y="708.2168674698795" type="curve"/>
      <point x="233.32530120481928" y="749.8795180722891" type="line"/>
      <point x="180.12048192771084" y="705.6867469879518"/>
      <point x="165.2048192771084" y="655.1325301204819"/>
      <point x="165.2048192771084" y="590.4698795180723" type="curve" smooth="yes"/>
    </contour>
  </outline>
</glyph>
<glyph name="apostrophemod" format="2">
  <advance width="340.9638554216868"/>
  <unicode hex="02BC"/>
  <outline>
    <contour>
      <point x="186.87951807228913" y="511.2530120481928" type="line"/>
      <point x="240.08433734939757" y="555.4457831325301"/>
      <point x="255.0" y="605.6385542168675"/>
      <point x="255.0" y="670.843373493976" type="curve" smooth="yes"/>
      <point x="255.0" y="750.6024096385541" type="line"/>
      <point x="86.04819277108433" y="750.6024096385541" type="line"/>
      <point x="86.04819277108433" y="627.9879518072289" type="line"/>
      <point x="204.22891566265062" y="627.9879518072289" type="line"/>
      <point x="168.20481927710844" y="648.0963855421687" type="line"/>
      <point x="168.20481927710844" y="608.5421686746987"/>
      <point x="159.28915662650604" y="580.3614457831325"/>
      <point x="126.46987951807228" y="552.7349397590361" type="curve"/>
    </contour>
  </outline>
</glyph>
<glyph name="ringhalfright" format="2">
  <advance width="500.0"/>
  <unicode hex="02BE"/>
  <anchor x="250.0" y="484.0" name="_top"/>
  <anchor x="250.0" y="685.0" name="top"/>
  <outline>
    <contour>
      <point x="250.0" y="498.8072289156627" type="line"/>
      <point x="313.5542168674699" y="498.8072289156627"/>
      <point x="362.7469879518072" y="547.0"/>
      <point x="362.7469879518072" y="609.8313253012047" type="curve" smooth="yes"/>
      <point x="362.7469879518072" y="672.0240963855422"/>
      <point x="313.5542168674699" y="720.5783132530121"/>
      <point x="250.0" y="720.5783132530121" type="curve"/>
      <point x="250.0" y="654.0843373493975" type="line"/>
      <point x="275.16867469879514" y="654.0843373493975"/>
      <point x="292.2530120481928" y="634.6385542168675"/>
      <point x="292.2530120481928" y="609.8313253012047" type="curve" smooth="yes"/>
      <point x="292.2530120481928" y="585.3855421686746"/>
      <point x="275.16867469879514" y="565.3012048192771"/>
      <point x="250.0" y="565.3012048192771" type="curve"/>
    </contour>
  </outline>
</glyph>
<glyph name="ringhalfleft" format="2">
  <advance width="500.0"/>
  <unicode hex="02BF"/>
  <anchor x="250.0" y="484.0" name="_top"/>
  <anchor x="250.0" y="685.0" name="top"/>
  <outline>
    <contour>
      <point x="250.0" y="498.8072289156627" type="curve"/>
      <point x="250.0" y="565.3012048192771" type="line"/>
      <point x="225.19277108433735" y="565.3012048192771"/>
      <point x="207.74698795180723" y="585.3855421686746"/>
      <point x="207.74698795180723" y="609.8313253012047" type="curve" smooth="yes"/>
      <point x="207.74698795180723" y="634.6385542168675"/>
      <point x="225.19277108433735" y="654.0843373493975"/>
      <point x="250.0" y="654.0843373493975" type="curve"/>
      <point x="250.0" y="720.5783132530121" type="line"/>
      <point x="186.80722891566265" y="720.5783132530121"/>
      <point x="137.6144578313253" y="672.0240963855422"/>
      <point x="137.6144578313253" y="609.8313253012047" type="curve" smooth="yes"/>
      <point x="137.6144578313253" y="547.0"/>
      <point x="186.80722891566265" y="498.8072289156627"/>
    </contour>
  </outline>
</glyph>
<glyph name="verticallinemod" format="2">
  <advance width="500.0"/>
  <unicode hex="02C8"/>
  <outline>
    <contour>
      <point x="197.2289156626506" y="542.722891566265" type="line"/>
      <point x="302.7710843373494" y="542.722891566265" type="line"/>
      <point x="302.7710843373494" y="769.0963855421687" type="line"/>
      <point x="197.2289156626506" y="769.0963855421687" type="line"/>
    </contour>
  </outline>
</glyph>
<glyph name="gravecomb" format="2">
  <unicode hex="0300"/>
  <anchor x="0.0" y="484.0" name="_top"/>
  <anchor x="0.0" y="685.0" name="top"/>
  <outline>
    <contour>
      <point x="-57.325301204819276" y="506.5542168674699" type="line"/>
      <point x="57.325301204819276" y="506.5542168674699" type="line"/>
      <point x="-44.03614457831326" y="732.2891566265059" type="line"/>
      <point x="-211.09638554216866" y="732.2891566265059" type="line"/>
    </contour>
  </outline>
</glyph>
<glyph name="tildecomb" format="2">
  <unicode hex="0303"/>
  <anchor x="0.0" y="484.0" name="_top"/>
  <anchor x="0.0" y="685.0" name="top"/>
  <outline>
    <contour>
      <point x="-129.44578313253012" y="521.9759036144578" type="line"/>
      <point x="-123.72289156626506" y="568.301204819277"/>
      <point x="-104.4578313253012" y="590.4819277108434"/>
      <point x="-69.54216867469879" y="590.4819277108434" type="curve" smooth="yes"/>
      <point x="-51.36144578313253" y="590.4819277108434"/>
      <point x="-36.5421686746988" y="581.7590361445784"/>
      <point x="-10.180722891566264" y="562.4096385542168" type="curve" smooth="yes"/>
      <point x="18.530120481927714" y="540.8915662650602"/>
      <point x="44.72289156626506" y="527.2530120481928"/>
      <point x="77.45783132530121" y="527.2530120481928" type="curve" smooth="yes"/>
      <point x="151.30120481927713" y="527.2530120481928"/>
      <point x="206.24096385542168" y="586.0843373493976"/>
      <point x="210.6024096385542" y="702.6746987951807" type="curve"/>
      <point x="129.44578313253012" y="707.9518072289156" type="line"/>
      <point x="123.44578313253012" y="660.8915662650603"/>
      <point x="103.72289156626506" y="639.4457831325302"/>
      <point x="69.90361445783132" y="639.4457831325302" type="curve" smooth="yes"/>
      <point x="52.265060240963855" y="639.4457831325302"/>
      <point x="38.08433734939759" y="647.8072289156627"/>
      <point x="9.722891566265062" y="668.156626506024" type="curve" smooth="yes"/>
      <point x="-17.903614457831328" y="687.5903614457832"/>
      <point x="-43.4578313253012" y="702.6746987951807"/>
      <point x="-77.09638554216868" y="702.6746987951807" type="curve" smooth="yes"/>
      <point x="-150.9397590361446" y="702.6746987951807"/>
      <point x="-205.87951807228916" y="643.8433734939758"/>
      <point x="-210.6024096385542" y="527.2530120481928" type="curve"/>
    </contour>
  </outline>
</glyph>
<glyph name="brevecomb" format="2">
  <unicode hex="0306"/>
  <anchor x="0.0" y="484.0" name="_top"/>
  <anchor x="0.0" y="685.0" name="top"/>
  <outline>
    <contour>
      <point x="0.0" y="502.91566265060237" type="curve" smooth="yes"/>
      <point x="107.3012048192771" y="502.91566265060237"/>
      <point x="179.32530120481928" y="582.1084337349397"/>
      <point x="180.04819277108433" y="719.3855421686748" type="curve"/>
      <point x="84.78313253012048" y="727.6626506024096" type="line"/>
      <point x="80.144578313253" y="644.433734939759"/>
      <point x="49.97590361445783" y="604.4578313253012"/>
      <point x="0.0" y="604.4578313253012" type="curve" smooth="yes"/>
      <point x="-49.97590361445783" y="604.4578313253012"/>
      <point x="-80.144578313253" y="644.433734939759"/>
      <point x="-84.78313253012048" y="727.6626506024096" type="curve"/>
      <point x="-180.04819277108433" y="719.3855421686748" type="line"/>
      <point x="-178.96385542168676" y="582.1084337349397"/>
      <point x="-106.93975903614457" y="502.91566265060237"/>
    </contour>
  </outline>
</glyph>
<glyph name="dotaccentcomb" format="2">
  <unicode hex="0307"/>
  <anchor x="0.0" y="484.0" name="_top"/>
  <anchor x="0.0" y="685.0" name="top"/>
  <outline>
    <contour>
      <point x="-79.51807228915663" y="532.9518072289156" type="line"/>
      <point x="79.51807228915663" y="532.9518072289156" type="line"/>
      <point x="79.51807228915663" y="682.7951807228916" type="line"/>
      <point x="-79.51807228915663" y="682.7951807228916" type="line"/>
    </contour>
  </outline>
</glyph>
<glyph name="hookabovecomb" format="2">
  <unicode hex="0309"/>
  <anchor x="0.0" y="484.0" name="_top"/>
  <anchor x="0.0" y="685.0" name="top"/>
  <outline>
    <contour>
      <point x="-50.77108433734939" y="506.5542168674699" type="line"/>
      <point x="50.77108433734939" y="506.5542168674699" type="line"/>
      <point x="50.77108433734939" y="526.8313253012047" type="line" smooth="yes"/>
      <point x="50.77108433734939" y="581.1807228915662"/>
      <point x="126.40963855421687" y="588.4578313253012"/>
      <point x="126.40963855421687" y="659.7349397590361" type="curve" smooth="yes"/>
      <point x="126.40963855421687" y="712.289156626506"/>
      <point x="81.75903614457832" y="741.5662650602409"/>
      <point x="7.9156626506024095" y="741.5662650602409" type="curve" smooth="yes"/>
      <point x="-43.74698795180723" y="741.5662650602409"/>
      <point x="-86.13253012048193" y="732.7469879518072"/>
      <point x="-118.6024096385542" y="714.4698795180723" type="curve"/>
      <point x="-92.21686746987953" y="644.6024096385543" type="line"/>
      <point x="-73.13253012048193" y="655.5060240963855"/>
      <point x="-56.40963855421687" y="660.1445783132531"/>
      <point x="-36.40963855421686" y="660.1445783132531" type="curve" smooth="yes"/>
      <point x="-15.156626506024097" y="660.1445783132531"/>
      <point x="-2.4337349397590344" y="652.0602409638554"/>
      <point x="-2.4337349397590344" y="634.156626506024" type="curve" smooth="yes"/>
      <point x="-2.4337349397590344" y="600.0843373493976"/>
      <point x="-50.77108433734939" y="586.9879518072289"/>
      <point x="-50.77108433734939" y="532.4698795180722" type="curve" smooth="yes"/>
    </contour>
  </outline>
</glyph>
<glyph name="ringcomb" format="2">
  <unicode hex="030A"/>
  <anchor x="0.0" y="484.0" name="_top"/>
  <anchor x="0.0" y="685.0" name="top"/>
  <outline>
    <contour>
      <point x="0.0" y="498.8192771084337" type="curve" smooth="yes"/>
      <point x="73.65060240963857" y="498.8192771084337"/>
      <point x="130.84337349397592" y="553.7349397590361"/>
      <point x="130.84337349397592" y="625.3855421686748" type="curve" smooth="yes"/>
      <point x="130.84337349397592" y="697.0361445783133"/>
      <point x="73.65060240963857" y="751.5903614457831"/>
      <point x="0.0" y="751.5903614457831" type="curve" smooth="yes"/>
      <point x="-73.65060240963857" y="751.5903614457831"/>
      <point x="-130.84337349397592" y="697.0361445783133"/>
      <point x="-130.84337349397592" y="625.3855421686748" type="curve" smooth="yes"/>
      <point x="-130.84337349397592" y="553.7349397590361"/>
      <point x="-73.65060240963857" y="498.8192771084337"/>
    </contour>
    <contour>
      <point x="0.0" y="567.6867469879518" type="curve" smooth="yes"/>
      <point x="-31.89156626506024" y="567.6867469879518"/>
      <point x="-56.69879518072289" y="591.855421686747"/>
      <point x="-56.69879518072289" y="625.3855421686748" type="curve" smooth="yes"/>
      <point x="-56.69879518072289" y="658.5542168674699"/>
      <point x="-31.89156626506024" y="682.0843373493975"/>
      <point x="0.0" y="682.0843373493975" type="curve" smooth="yes"/>
      <point x="32.25301204819277" y="682.0843373493975"/>
      <point x="56.69879518072289" y="658.5542168674699"/>
      <point x="56.69879518072289" y="625.3855421686748" type="curve" smooth="yes"/>
      <point x="56.69879518072289" y="591.855421686747"/>
      <point x="32.25301204819277" y="567.6867469879518"/>
    </contour>
  </outline>
</glyph>
<glyph name="caroncomb" format="2">
  <unicode hex="030C"/>
  <anchor x="0.0" y="484.0" name="_top"/>
  <anchor x="0.0" y="685.0" name="top"/>
  <outline>
    <contour>
      <point x="-74.1566265060241" y="506.5542168674699" type="line"/>
      <point x="74.1566265060241" y="506.5542168674699" type="line"/>
      <point x="185.43373493975903" y="732.2891566265059" type="line"/>
      <point x="77.33734939759036" y="732.2891566265059" type="line"/>
      <point x="0.0" y="598.4457831325302" type="line"/>
      <point x="-77.33734939759036" y="732.2891566265059" type="line"/>
      <point x="-185.43373493975903" y="732.2891566265059" type="line"/>
    </contour>
  </outline>
</glyph>
<glyph name="dblgravecomb" format="2">
  <unicode hex="030F"/>
  <anchor x="0.0" y="484.0" name="_top"/>
  <anchor x="0.0" y="685.0" name="top"/>
  <outline>
    <contour>
      <point x="44.27710843373494" y="506.5542168674699" type="line"/>
      <point x="135.18072289156626" y="506.5542168674699" type="line"/>
      <point x="91.28915662650601" y="732.2891566265059" type="line"/>
      <point x="-50.10843373493976" y="732.2891566265059" type="line"/>
    </contour>
    <contour>
      <point x="-129.26506024096386" y="506.5542168674699" type="line"/>
      <point x="-38.36144578313253" y="506.5542168674699" type="line"/>
      <point x="-82.61445783132531" y="732.2891566265059" type="line"/>
      <point x="-224.0120481927711" y="732.2891566265059" type="line"/>
    </contour>
  </outline>
</glyph>
<glyph name="breveinvertedcomb" format="2">
  <unicode hex="0311"/>
  <anchor x="0.0" y="484.0" name="_top"/>
  <anchor x="0.0" y="685.0" name="top"/>
  <outline>
    <contour>
      <point x="-84.78313253012048" y="502.91566265060237" type="line"/>
      <point x="-80.144578313253" y="586.7831325301205"/>
      <point x="-49.97590361445783" y="626.1204819277109"/>
      <point x="0.0" y="626.1204819277109" type="curve" smooth="yes"/>
      <point x="49.97590361445783" y="626.1204819277109"/>
      <point x="80.144578313253" y="586.7831325301205"/>
      <point x="84.78313253012048" y="502.91566265060237" type="curve"/>
      <point x="180.04819277108433" y="511.83132530120474" type="line"/>
      <point x="179.32530120481928" y="648.2891566265059"/>
      <point x="107.3012048192771" y="727.6626506024096"/>
      <point x="0.0" y="727.6626506024096" type="curve" smooth="yes"/>
      <point x="-106.93975903614457" y="727.6626506024096"/>
      <point x="-178.96385542168676" y="648.2891566265059"/>
      <point x="-180.04819277108433" y="511.83132530120474" type="curve"/>
    </contour>
  </outline>
</glyph>
<glyph name="commaturnedabovecomb" format="2">
  <unicode hex="0312"/>
  <anchor x="0.0" y="484.0" name="_top"/>
  <anchor x="0.0" y="685.0" name="top"/>
  <outline>
    <contour>
      <point x="-84.79518072289156" y="510.16867469879526" type="line"/>
      <point x="84.1566265060241" y="510.16867469879526" type="line"/>
      <point x="84.1566265060241" y="632.2409638554217" type="line"/>
      <point x="-33.8433734939759" y="632.2409638554217" type="line"/>
      <point x="1.819277108433735" y="612.132530120482" type="line"/>
      <point x="1.819277108433735" y="652.5903614457832"/>
      <point x="11.277108433734938" y="680.5903614457832"/>
      <point x="43.91566265060241" y="708.7590361445783" type="curve"/>
      <point x="-16.493975903614455" y="750.2409638554216" type="line"/>
      <point x="-69.33734939759036" y="706.2289156626506"/>
      <point x="-84.79518072289156" y="655.3132530120481"/>
      <point x="-84.79518072289156" y="590.1084337349397" type="curve" smooth="yes"/>
    </contour>
  </outline>
</glyph>
<glyph name="horncomb" format="2">
  <unicode hex="031B"/>
  <anchor x="0.8192771084337349" y="434.0" name="_topright"/>
  <outline>
    <contour>
      <point x="107.57831325301206" y="361.5903614457832" type="line"/>
      <point x="184.19277108433735" y="372.144578313253"/>
      <point x="236.83132530120483" y="437.2530120481928"/>
      <point x="236.83132530120483" y="518.1445783132531" type="curve" smooth="yes"/>
      <point x="236.83132530120483" y="566.0" type="line"/>
      <point x="84.77108433734941" y="566.0" type="line"/>
      <point x="84.77108433734941" y="539.2530120481928" type="line" smooth="yes"/>
      <point x="84.77108433734941" y="456.69879518072287"/>
      <point x="54.21686746987953" y="442.5542168674699"/>
      <point x="0.8192771084337349" y="442.1927710843374" type="curve"/>
      <point x="0.8192771084337349" y="427.0240963855422" type="line"/>
    </contour>
  </outline>
</glyph>
<glyph name="strokeshortcomb" format="2">
  <unicode hex="0335"/>
  <anchor x="0.0" y="597.3493975903614" name="_stroke"/>
  <outline>
    <contour>
      <point x="-221.71084337349396" y="536.7469879518072" type="line"/>
      <point x="222.07228915662648" y="536.7469879518072" type="line"/>
      <point x="222.07228915662648" y="657.9518072289156" type="line"/>
      <point x="-221.71084337349396" y="657.9518072289156" type="line"/>
    </contour>
  </outline>
</glyph>
<glyph name="slashshortcomb" format="2">
  <unicode hex="0337"/>
  <anchor x="-31.228915662650607" y="316.72289156626505" name="_center"/>
  <outline>
    <contour>
      <point x="-183.9277108433735" y="170.9879518072289" type="line"/>
      <point x="178.15662650602405" y="341.9759036144579" type="line"/>
      <point x="122.65060240963855" y="461.8192771084337" type="line"/>
      <point x="-239.433734939759" y="290.83132530120486" type="line"/>
    </contour>
  </outline>
</glyph>
<glyph name="slashlongcomb" format="2">
  <unicode hex="0338"/>
  <anchor x="23.759036144578314" y="221.4578313253012" name="_center"/>
  <outline>
    <contour>
      <point x="-112.24096385542171" y="-69.49397590361446" type="line"/>
      <point x="235.43373493975903" y="463.7469879518072" type="line"/>
      <point x="158.9397590361446" y="512.2289156626506" type="line"/>
      <point x="-188.73493975903614" y="-21.012048192771086" type="line"/>
    </contour>
  </outline>
</glyph>
<glyph name="mu" format="2">
  <advance width="600.710843373494"/>
  <unicode hex="03BC"/>
  <outline>
    <contour>
      <point x="49.22891566265061" y="-180.0" type="line"/>
      <point x="227.2289156626506" y="-180.0" type="line"/>
      <point x="213.3975903614458" y="31.204819277108435" type="line"/>
      <point x="213.24096385542168" y="31.204819277108435" type="line"/>
      <point x="228.95180722891567" y="2.168674698795181"/>
      <point x="249.72289156626505" y="-11.27710843373494"/>
      <point x="284.3132530120482" y="-11.27710843373494" type="curve" smooth="yes"/>
      <point x="324.710843373494" y="-11.27710843373494"/>
      <point x="364.6746987951807" y="24.89156626506024"/>
      <point x="374.10843373493975" y="88.6024096385542" type="curve"/>
      <point x="375.3975903614458" y="88.6024096385542" type="line"/>
      <point x="375.3975903614458" y="0.0" type="line"/>
      <point x="549.1204819277109" y="0.0" type="line"/>
      <point x="549.1204819277109" y="442.1927710843374" type="line"/>
      <point x="371.12048192771084" y="442.1927710843374" type="line"/>
      <point x="371.12048192771084" y="214.9277108433735" type="line" smooth="yes"/>
      <point x="371.12048192771084" y="162.0843373493976"/>
      <point x="337.07228915662654" y="124.57831325301206"/>
      <point x="291.0481927710843" y="124.57831325301206" type="curve" smooth="yes"/>
      <point x="248.56626506024097" y="124.57831325301206"/>
      <point x="227.2289156626506" y="146.4578313253012"/>
      <point x="227.2289156626506" y="198.12048192771084" type="curve" smooth="yes"/>
      <point x="227.2289156626506" y="442.1927710843374" type="line"/>
      <point x="49.22891566265061" y="442.1927710843374" type="line"/>
    </contour>
  </outline>
</glyph>
<glyph name="pi" format="2">
  <advance width="655.6746987951807"/>
  <unicode hex="03C0"/>
  <outline>
    <contour>
      <point x="563.7349397590361" y="-10.553493975903615" type="curve" smooth="yes"/>
      <point x="585.6506024096385" y="-10.553493975903615"/>
      <point x="610.2048192771084" y="-8.55421686746988"/>
      <point x="641.0361445783133" y="-4.554216867469879" type="curve"/>
      <point x="647.9518072289156" y="135.75903614457832" type="line"/>
      <point x="634.5060240963855" y="134.855421686747"/>
      <point x="621.4216867469879" y="132.67469879518072"/>
      <point x="610.3373493975903" y="132.67469879518072" type="curve" smooth="yes"/>
      <point x="547.8072289156627" y="132.67469879518072"/>
      <point x="524.3614457831325" y="160.7469879518072"/>
      <point x="524.3614457831325" y="223.44578313253012" type="curve" smooth="yes"/>
      <point x="524.3614457831325" y="311.15662650602405" type="line"/>
      <point x="621.867469879518" y="311.15662650602405" type="line"/>
      <point x="621.867469879518" y="442.1927710843374" type="line"/>
      <point x="3.36144578313253" y="442.1927710843374" type="line"/>
      <point x="3.36144578313253" y="311.15662650602405" type="line"/>
      <point x="93.16867469879517" y="311.15662650602405" type="line"/>
      <point x="88.16867469879519" y="218.0602409638554"/>
      <point x="72.08433734939759" y="130.56626506024097"/>
      <point x="33.63855421686747" y="0.0" type="curve"/>
      <point x="215.0" y="0.0" type="line"/>
      <point x="251.9036144578313" y="100.71084337349397"/>
      <point x="265.16867469879514" y="187.3975903614458"/>
      <point x="271.1686746987952" y="311.15662650602405" type="curve"/>
      <point x="346.3614457831325" y="311.15662650602405" type="line"/>
      <point x="346.3614457831325" y="207.87951807228916" type="line" smooth="yes"/>
      <point x="346.3614457831325" y="73.28915662650601"/>
      <point x="410.9397590361446" y="-10.553493975903615"/>
    </contour>
  </outline>
</glyph>
<glyph name="Tshe-cy" format="2">
  <advance width="887.0722891566264"/>
  <unicode hex="040B"/>
  <outline>
    <contour>
      <point x="230.39759036144576" y="0.0" type="line"/>
      <point x="413.9518072289157" y="0.0" type="line"/>
      <point x="413.9518072289157" y="276.45783132530124" type="line"/>
      <point x="445.3734939759036" y="290.15662650602405"/>
      <point x="485.79518072289153" y="296.2409638554217"/>
      <point x="520.3855421686746" y="296.2409638554217" type="curve" smooth="yes"/>
      <point x="604.8433734939758" y="296.2409638554217"/>
      <point x="657.2650602409639" y="252.0120481927711"/>
      <point x="657.2650602409639" y="140.0" type="curve" smooth="yes"/>
      <point x="657.2650602409639" y="0.0" type="line"/>
      <point x="840.8192771084338" y="0.0" type="line"/>
      <point x="840.8192771084338" y="146.0" type="line" smooth="yes"/>
      <point x="840.8192771084338" y="352.0240963855422"/>
      <point x="733.0722891566265" y="450.3012048192771"/>
      <point x="543.3253012048192" y="450.3012048192771" type="curve" smooth="yes"/>
      <point x="495.6265060240964" y="450.3012048192771"/>
      <point x="442.9277108433735" y="441.2168674698795"/>
      <point x="413.9518072289157" y="429.6024096385542" type="curve"/>
      <point x="413.9518072289157" y="555.2168674698795" type="line"/>
      <point x="638.0722891566265" y="555.2168674698795" type="line"/>
      <point x="638.0722891566265" y="705.0" type="line"/>
      <point x="6.27710843373494" y="705.0" type="line"/>
      <point x="6.27710843373494" y="555.2168674698795" type="line"/>
      <point x="230.39759036144576" y="555.2168674698795" type="line"/>
    </contour>
  </outline>
</glyph>
<glyph name="Zhe-cy" format="2">
  <advance width="1068.9156626506024"/>
  <unicode hex="0416"/>
  <anchor x="874.8313253012047" y="0.0" name="bottomright"/>
  <anchor x="534.4578313253012" y="705.0" name="top"/>
  <outline>
    <contour>
      <point x="-4.301204819277107" y="0.0" type="line"/>
      <point x="194.0843373493976" y="0.0" type="line"/>
      <point x="284.8915662650602" y="197.89156626506022" type="line" smooth="yes"/>
      <point x="309.86746987951807" y="251.84337349397592"/>
      <point x="343.566265060241" y="273.45783132530124"/>
      <point x="403.26506024096386" y="273.45783132530124" type="curve" smooth="yes"/>
      <point x="447.2771084337349" y="273.45783132530124" type="line"/>
      <point x="447.2771084337349" y="0.0" type="line"/>
      <point x="622.6385542168675" y="0.0" type="line"/>
      <point x="622.6385542168675" y="273.45783132530124" type="line"/>
      <point x="666.0120481927711" y="273.45783132530124" type="line" smooth="yes"/>
      <point x="725.3493975903615" y="273.45783132530124"/>
      <point x="759.3253012048193" y="252.20481927710847"/>
      <point x="784.6626506024096" y="197.89156626506022" type="curve" smooth="yes"/>
      <point x="875.1927710843373" y="0.0" type="line"/>
      <point x="1073.2168674698796" y="0.0" type="line"/>
      <point x="948.0240963855422" y="258.0240963855422" type="line" smooth="yes"/>
      <point x="903.1084337349398" y="349.855421686747"/>
      <point x="843.1927710843373" y="398.855421686747"/>
      <point x="750.1686746987951" y="416.3253012048193" type="curve"/>
      <point x="823.7951807228916" y="367.1927710843374" type="line"/>
      <point x="1038.4939759036145" y="705.0" type="line"/>
      <point x="838.7469879518072" y="705.0" type="line"/>
      <point x="659.8192771084338" y="404.96385542168673" type="line"/>
      <point x="686.0963855421687" y="423.2409638554217" type="line"/>
      <point x="622.6385542168675" y="423.2409638554217" type="line"/>
      <point x="622.6385542168675" y="705.0" type="line"/>
      <point x="447.2771084337349" y="705.0" type="line"/>
      <point x="447.2771084337349" y="423.2409638554217" type="line"/>
      <point x="384.1807228915663" y="423.2409638554217" type="line"/>
      <point x="410.09638554216866" y="404.96385542168673" type="line"/>
      <point x="230.53012048192772" y="705.0" type="line"/>
      <point x="30.783132530120483" y="705.0" type="line"/>
      <point x="245.48192771084337" y="367.1927710843374" type="line"/>
      <point x="319.10843373493975" y="416.3253012048193" type="line"/>
      <point x="226.72289156626508" y="398.855421686747"/>
      <point x="167.08433734939757" y="350.855421686747"/>
      <point x="121.53012048192772" y="258.0240963855422" type="curve" smooth="yes"/>
    </contour>
  </outline>
</glyph>
<glyph name="U-cy" format="2">
  <advance width="681.0722891566265"/>
  <unicode hex="0423"/>
  <anchor x="345.49397590361446" y="705.0" name="top"/>
  <outline>
    <contour>
      <point x="160.56626506024097" y="0.0" type="line"/>
      <point x="349.12048192771084" y="0.0" type="line"/>
      <point x="704.9277108433735" y="705.0" type="line"/>
      <point x="516.7349397590361" y="705.0" type="line"/>
      <point x="340.6385542168675" y="354.6987951807229" type="line"/>
      <point x="371.3012048192771" y="354.6987951807229" type="line"/>
      <point x="164.50602409638554" y="705.0" type="line"/>
      <point x="-28.686746987951807" y="705.0" type="line"/>
      <point x="282.48192771084337" y="192.44578313253012" type="line"/>
      <point x="282.48192771084337" y="242.66265060240966" type="line"/>
    </contour>
  </outline>
</glyph>
<glyph name="Shcha-cy" format="2">
  <advance width="1147.566265060241"/>
  <unicode hex="0429"/>
  <outline>
    <contour>
      <point x="966.2289156626506" y="-174.57831325301203" type="line"/>
      <point x="1125.5662650602408" y="-174.57831325301203" type="line"/>
      <point x="1125.5662650602408" y="149.7831325301205" type="line"/>
      <point x="1025.566265060241" y="149.7831325301205" type="line"/>
      <point x="1025.566265060241" y="705.0" type="line"/>
      <point x="845.289156626506" y="705.0" type="line"/>
      <point x="845.289156626506" y="149.7831325301205" type="line"/>
      <point x="635.0361445783133" y="149.7831325301205" type="line"/>
      <point x="635.0361445783133" y="705.0" type="line"/>
      <point x="454.7590361445783" y="705.0" type="line"/>
      <point x="454.7590361445783" y="149.7831325301205" type="line"/>
      <point x="244.50602409638554" y="149.7831325301205" type="line"/>
      <point x="244.50602409638554" y="705.0" type="line"/>
      <point x="64.2289156626506" y="705.0" type="line"/>
      <point x="64.2289156626506" y="0.0" type="line"/>
      <point x="966.2289156626506" y="0.0" type="line"/>
    </contour>
  </outline>
</glyph>
<glyph name="Hardsign-cy" format="2">
  <advance width="825.7951807228916"/>
  <unicode hex="042A"/>
  <outline>
    <contour>
      <point x="201.6987951807229" y="0.0" type="line"/>
      <point x="551.3493975903615" y="0.0" type="line" smooth="yes"/>
      <point x="704.9036144578313" y="0.0"/>
      <point x="799.0120481927711" y="77.10843373493977"/>
      <point x="799.0120481927711" y="215.57831325301203" type="curve" smooth="yes"/>
      <point x="799.0120481927711" y="354.0481927710843"/>
      <point x="704.9036144578313" y="430.7951807228916"/>
      <point x="551.3493975903615" y="430.7951807228916" type="curve" smooth="yes"/>
      <point x="385.6144578313253" y="430.7951807228916" type="line"/>
      <point x="385.6144578313253" y="705.0" type="line"/>
      <point x="6.27710843373494" y="705.0" type="line"/>
      <point x="6.27710843373494" y="555.2168674698795" type="line"/>
      <point x="201.6987951807229" y="555.2168674698795" type="line"/>
    </contour>
    <contour>
      <point x="385.6144578313253" y="139.03614457831324" type="line"/>
      <point x="385.6144578313253" y="291.7590361445783" type="line"/>
      <point x="526.7710843373494" y="291.7590361445783" type="line" smooth="yes"/>
      <point x="594.6987951807229" y="291.7590361445783"/>
      <point x="624.9277108433735" y="267.0602409638554"/>
      <point x="624.9277108433735" y="215.57831325301206" type="curve" smooth="yes"/>
      <point x="624.9277108433735" y="163.73493975903614"/>
      <point x="594.6987951807229" y="139.03614457831324"/>
      <point x="526.7710843373494" y="139.03614457831324" type="curve" smooth="yes"/>
    </contour>
  </outline>
</glyph>
<glyph name="be-cy" format="2">
  <advance width="619.3734939759037"/>
  <unicode hex="0431"/>
  <outline>
    <contour>
      <point x="317.2409638554217" y="-11.27710843373494" type="curve" smooth="yes"/>
      <point x="473.81927710843377" y="-11.27710843373494"/>
      <point x="581.3975903614457" y="77.5421686746988"/>
      <point x="581.3975903614457" y="223.55421686746988" type="curve" smooth="yes"/>
      <point x="581.3975903614457" y="357.45783132530124"/>
      <point x="490.2048192771084" y="441.3614457831325"/>
      <point x="372.67469879518075" y="441.3614457831325" type="curve" smooth="yes"/>
      <point x="256.99999999999994" y="441.3614457831325"/>
      <point x="198.38554216867468" y="371.78313253012044"/>
      <point x="183.21686746987953" y="297.51807228915663" type="curve"/>
      <point x="205.32530120481928" y="297.51807228915663" type="line"/>
      <point x="205.32530120481928" y="374.28915662650604" type="line" smooth="yes"/>
      <point x="205.32530120481928" y="460.4939759036145"/>
      <point x="250.57831325301208" y="510.09638554216866"/>
      <point x="340.54216867469876" y="533.8915662650602" type="curve" smooth="yes"/>
      <point x="550.7590361445783" y="589.698795180723" type="line"/>
      <point x="500.8072289156627" y="726.012048192771" type="line"/>
      <point x="317.7951807228916" y="677.7590361445783" type="line" smooth="yes"/>
      <point x="122.90361445783134" y="627.0361445783133"/>
      <point x="38.795180722891565" y="527.3734939759036"/>
      <point x="38.795180722891565" y="344.09638554216866" type="curve" smooth="yes"/>
      <point x="38.795180722891565" y="267.95180722891564" type="line" smooth="yes"/>
      <point x="38.795180722891565" y="77.36144578313254"/>
      <point x="146.3734939759036" y="-11.27710843373494"/>
    </contour>
    <contour>
      <point x="311.144578313253" y="118.48192771084337" type="curve" smooth="yes"/>
      <point x="252.30120481927713" y="118.48192771084337"/>
      <point x="217.79518072289156" y="152.89156626506025"/>
      <point x="217.79518072289156" y="216.1686746987952" type="curve" smooth="yes"/>
      <point x="217.79518072289156" y="277.01204819277103"/>
      <point x="252.66265060240963" y="312.2409638554217"/>
      <point x="310.50602409638554" y="312.2409638554217" type="curve" smooth="yes"/>
      <point x="369.16867469879514" y="312.2409638554217"/>
      <point x="404.03614457831327" y="277.1927710843373"/>
      <point x="404.03614457831327" y="214.72289156626505" type="curve" smooth="yes"/>
      <point x="404.03614457831327" y="151.89156626506025"/>
      <point x="369.34939759036143" y="118.48192771084337"/>
    </contour>
  </outline>
</glyph>
<glyph name="ve-cy" format="2">
  <advance width="594.1807228915662"/>
  <unicode hex="0432"/>
  <outline>
    <contour>
      <point x="60.14457831325302" y="0.0" type="line"/>
      <point x="378.1686746987952" y="0.0" type="line" smooth="yes"/>
      <point x="496.83132530120486" y="0.0"/>
      <point x="565.1204819277109" y="49.45783132530121"/>
      <point x="565.1204819277109" y="126.73493975903614" type="curve" smooth="yes"/>
      <point x="565.1204819277109" y="188.73493975903614"/>
      <point x="527.5903614457832" y="229.63855421686745"/>
      <point x="441.0240963855421" y="238.46987951807228" type="curve"/>
      <point x="441.0240963855421" y="223.55421686746988" type="line"/>
      <point x="503.0240963855422" y="235.10843373493975"/>
      <point x="546.2048192771084" y="274.46987951807233"/>
      <point x="546.2048192771084" y="327.5542168674699" type="curve" smooth="yes"/>
      <point x="546.2048192771084" y="397.0"/>
      <point x="496.48192771084337" y="442.1927710843374"/>
      <point x="370.1686746987952" y="442.1927710843374" type="curve" smooth="yes"/>
      <point x="60.14457831325302" y="442.1927710843374" type="line"/>
    </contour>
    <contour>
      <point x="222.57831325301203" y="93.5301204819277" type="line"/>
      <point x="222.57831325301203" y="179.24096385542168" type="line"/>
      <point x="350.3975903614458" y="179.24096385542168" type="line" smooth="yes"/>
      <point x="387.1686746987952" y="179.24096385542168"/>
      <point x="406.7831325301205" y="164.98795180722894"/>
      <point x="406.7831325301205" y="136.20481927710844" type="curve" smooth="yes"/>
      <point x="406.7831325301205" y="107.96385542168674"/>
      <point x="387.1686746987952" y="93.5301204819277"/>
      <point x="350.3975903614458" y="93.5301204819277" type="curve" smooth="yes"/>
    </contour>
    <contour>
      <point x="222.57831325301203" y="272.7710843373494" type="line"/>
      <point x="222.57831325301203" y="349.66265060240966" type="line"/>
      <point x="338.93975903614455" y="349.66265060240966" type="line" smooth="yes"/>
      <point x="370.0722891566265" y="349.66265060240966"/>
      <point x="387.86746987951807" y="336.4096385542168"/>
      <point x="387.86746987951807" y="311.8072289156626" type="curve" smooth="yes"/>
      <point x="387.86746987951807" y="286.38554216867465"/>
      <point x="370.0722891566265" y="272.7710843373494"/>
      <point x="338.93975903614455" y="272.7710843373494" type="curve" smooth="yes"/>
    </contour>
  </outline>
</glyph>
<glyph name="ge-cy" format="2">
  <advance width="484.45783132530124"/>
  <unicode hex="0433"/>
  <anchor x="72.33734939759036" y="0.0" name="bottomright"/>
  <anchor x="183.51807228915663" y="223.0963855421687" name="center"/>
  <anchor x="244.4698795180723" y="484.0" name="top"/>
  <outline>
    <contour>
      <point x="60.14457831325302" y="0.0" type="line"/>
      <point x="238.144578313253" y="0.0" type="line"/>
      <point x="238.144578313253" y="305.4216867469879" type="line"/>
      <point x="465.26506024096386" y="305.4216867469879" type="line"/>
      <point x="465.26506024096386" y="442.1927710843374" type="line"/>
      <point x="60.14457831325302" y="442.1927710843374" type="line"/>
    </contour>
  </outline>
</glyph>
<glyph name="de-cy" format="2">
  <advance width="649.289156626506"/>
  <unicode hex="0434"/>
  <outline>
    <contour>
      <point x="25.36144578313253" y="-130.0" type="line"/>
      <point x="175.42168674698794" y="-130.0" type="line"/>
      <point x="175.42168674698794" y="0.0" type="line"/>
      <point x="485.89156626506025" y="0.0" type="line"/>
      <point x="485.89156626506025" y="-130.0" type="line"/>
      <point x="635.9518072289156" y="-130.0" type="line"/>
      <point x="635.9518072289156" y="132.12048192771084" type="line"/>
      <point x="552.7590361445783" y="132.12048192771084" type="line"/>
      <point x="552.7590361445783" y="442.1927710843374" type="line"/>
      <point x="127.6987951807229" y="442.1927710843374" type="line"/>
      <point x="127.6987951807229" y="324.9397590361446" type="line" smooth="yes"/>
      <point x="127.6987951807229" y="227.96385542168673"/>
      <point x="116.53012048192771" y="178.27710843373492"/>
      <point x="85.46987951807229" y="132.12048192771084" type="curve"/>
      <point x="25.36144578313253" y="132.12048192771084" type="line"/>
    </contour>
    <contour>
      <point x="240.15662650602408" y="131.48192771084337" type="line"/>
      <point x="262.67469879518075" y="168.80722891566265"/>
      <point x="276.02409638554224" y="225.21686746987953"/>
      <point x="276.02409638554224" y="276.4216867469879" type="curve" smooth="yes"/>
      <point x="276.02409638554224" y="311.1566265060241" type="line"/>
      <point x="388.86746987951807" y="311.1566265060241" type="line"/>
      <point x="388.86746987951807" y="131.48192771084337" type="line"/>
    </contour>
  </outline>
</glyph>
<glyph name="zhe-cy" format="2">
  <advance width="878.3614457831325"/>
  <unicode hex="0436"/>
  <anchor x="718.5783132530121" y="0.0" name="bottomright"/>
  <anchor x="439.18072289156623" y="484.0" name="top"/>
  <outline>
    <contour>
      <point x="-13.843373493975903" y="0.0" type="line"/>
      <point x="175.89156626506025" y="0.0" type="line"/>
      <point x="247.7710843373494" y="122.71084337349399" type="line" smooth="yes"/>
      <point x="264.6506024096385" y="149.75903614457832"/>
      <point x="281.6385542168675" y="158.66265060240963"/>
      <point x="311.77108433734935" y="158.66265060240963" type="curve" smooth="yes"/>
      <point x="351.18072289156623" y="158.66265060240963" type="line"/>
      <point x="351.18072289156623" y="0.0" type="line"/>
      <point x="528.3614457831326" y="0.0" type="line"/>
      <point x="528.3614457831326" y="158.66265060240963" type="line"/>
      <point x="567.7710843373494" y="158.66265060240963" type="line" smooth="yes"/>
      <point x="597.5421686746988" y="158.66265060240963"/>
      <point x="614.8915662650602" y="149.75903614457832"/>
      <point x="630.9518072289156" y="122.71084337349399" type="curve" smooth="yes"/>
      <point x="703.6506024096385" y="0.0" type="line"/>
      <point x="892.2048192771084" y="0.0" type="line"/>
      <point x="786.0120481927711" y="182.144578313253" type="line" smooth="yes"/>
      <point x="759.132530120482" y="227.0120481927711"/>
      <point x="718.4819277108434" y="258.9397590361446"/>
      <point x="666.3975903614457" y="265.1204819277109" type="curve"/>
      <point x="689.8674698795181" y="210.15662650602408" type="line"/>
      <point x="874.0361445783133" y="442.1927710843374" type="line"/>
      <point x="685.5783132530121" y="442.1927710843374" type="line"/>
      <point x="565.6506024096385" y="290.5180722891566" type="line"/>
      <point x="528.3614457831326" y="290.5180722891566" type="line"/>
      <point x="528.3614457831326" y="442.1927710843374" type="line"/>
      <point x="351.18072289156623" y="442.1927710843374" type="line"/>
      <point x="351.18072289156623" y="290.5180722891566" type="line"/>
      <point x="313.8915662650603" y="290.5180722891566" type="line"/>
      <point x="193.6024096385542" y="442.1927710843374" type="line"/>
      <point x="4.325301204819279" y="442.1927710843374" type="line"/>
      <point x="189.85542168674698" y="210.15662650602408" type="line"/>
      <point x="212.96385542168673" y="265.1204819277109" type="line"/>
      <point x="160.87951807228916" y="258.9397590361446"/>
      <point x="119.59036144578312" y="227.0120481927711"/>
      <point x="93.71084337349399" y="182.144578313253" type="curve" smooth="yes"/>
    </contour>
  </outline>
</glyph>
<glyph name="ze-cy" format="2">
  <advance width="546.4578313253012"/>
  <unicode hex="0437"/>
  <anchor x="275.6867469879518" y="0.0" name="bottom"/>
  <anchor x="265.855421686747" y="492.1927710843374" name="top"/>
  <outline>
    <contour>
      <point x="265.13253012048193" y="-11.27710843373494" type="curve" smooth="yes"/>
      <point x="423.6265060240964" y="-11.27710843373494"/>
      <point x="517.3975903614457" y="41.0"/>
      <point x="517.3975903614457" y="126.37349397590361" type="curve" smooth="yes"/>
      <point x="517.3975903614457" y="193.4698795180723"/>
      <point x="474.13253012048193" y="229.45783132530119"/>
      <point x="389.20481927710847" y="237.65060240963854" type="curve"/>
      <point x="389.20481927710847" y="223.55421686746988" type="line"/>
      <point x="456.1204819277108" y="234.289156626506"/>
      <point x="498.30120481927713" y="273.83132530120486"/>
      <point x="498.30120481927713" y="327.1927710843374" type="curve" smooth="yes"/>
      <point x="498.30120481927713" y="406.65060240963857"/>
      <point x="417.36144578313247" y="453.4698795180723"/>
      <point x="276.6867469879518" y="453.4698795180723" type="curve" smooth="yes"/>
      <point x="174.65060240963857" y="453.4698795180723"/>
      <point x="88.34939759036143" y="434.83132530120486"/>
      <point x="32.53012048192771" y="406.6626506024096" type="curve"/>
      <point x="70.55421686746989" y="307.1204819277109" type="line"/>
      <point x="119.45783132530121" y="327.3734939759036"/>
      <point x="175.27710843373495" y="341.9156626506024"/>
      <point x="246.5542168674699" y="341.9156626506024" type="curve" smooth="yes"/>
      <point x="317.44578313253015" y="341.9156626506024"/>
      <point x="338.9638554216868" y="329.9397590361446"/>
      <point x="338.9638554216868" y="307.433734939759" type="curve" smooth="yes"/>
      <point x="338.9638554216868" y="288.3855421686747"/>
      <point x="324.0843373493976" y="277.2289156626506"/>
      <point x="289.39759036144574" y="277.2289156626506" type="curve" smooth="yes"/>
      <point x="153.9879518072289" y="277.2289156626506" type="line"/>
      <point x="153.9879518072289" y="168.68674698795178" type="line"/>
      <point x="303.3132530120482" y="168.68674698795178" type="line" smooth="yes"/>
      <point x="343.18072289156623" y="168.68674698795178"/>
      <point x="358.24096385542174" y="157.25301204819277"/>
      <point x="358.24096385542174" y="135.48192771084337" type="curve" smooth="yes"/>
      <point x="358.24096385542174" y="108.15662650602411"/>
      <point x="326.710843373494" y="99.36144578313254"/>
      <point x="264.95180722891564" y="99.36144578313254" type="curve" smooth="yes"/>
      <point x="193.3132530120482" y="99.36144578313254"/>
      <point x="114.4698795180723" y="114.26506024096385"/>
      <point x="63.373493975903614" y="139.97590361445782" type="curve"/>
      <point x="26.168674698795183" y="38.25301204819277" type="line"/>
      <point x="86.55421686746989" y="5.349397590361447"/>
      <point x="171.66265060240966" y="-11.27710843373494"/>
    </contour>
  </outline>
</glyph>
<glyph name="ka-cy" format="2">
  <advance width="599.2289156626506"/>
  <unicode hex="043A"/>
  <anchor x="439.08433734939763" y="0.0" name="bottomright"/>
  <anchor x="294.0722891566265" y="223.0963855421687" name="center"/>
  <anchor x="327.43373493975906" y="484.0" name="top"/>
  <outline>
    <contour>
      <point x="60.14457831325302" y="0.0" type="line"/>
      <point x="238.144578313253" y="0.0" type="line"/>
      <point x="238.144578313253" y="158.66265060240963" type="line"/>
      <point x="288.27710843373495" y="158.66265060240963" type="line" smooth="yes"/>
      <point x="318.4096385542169" y="158.66265060240963"/>
      <point x="335.39759036144574" y="149.75903614457832"/>
      <point x="351.4578313253012" y="122.71084337349399" type="curve" smooth="yes"/>
      <point x="424.1566265060241" y="0.0" type="line"/>
      <point x="613.0722891566265" y="0.0" type="line"/>
      <point x="506.51807228915663" y="182.144578313253" type="line" smooth="yes"/>
      <point x="479.6385542168674" y="227.0120481927711"/>
      <point x="439.3493975903614" y="258.9397590361446"/>
      <point x="387.26506024096386" y="265.1204819277109" type="curve"/>
      <point x="411.8192771084337" y="210.15662650602408" type="line"/>
      <point x="594.9036144578314" y="442.1927710843374" type="line"/>
      <point x="406.44578313253015" y="442.1927710843374" type="line"/>
      <point x="286.1566265060241" y="290.5180722891566" type="line"/>
      <point x="238.144578313253" y="290.5180722891566" type="line"/>
      <point x="238.144578313253" y="442.1927710843374" type="line"/>
      <point x="60.14457831325302" y="442.1927710843374" type="line"/>
    </contour>
  </outline>
</glyph>
<glyph name="el-cy" format="2">
  <advance width="623.8192771084338"/>
  <unicode hex="043B"/>
  <anchor x="397.86746987951807" y="0.0" name="bottomright"/>
  <outline>
    <contour>
      <point x="63.74698795180723" y="-16.55421686746988" type="line"/>
      <point x="213.9879518072289" y="-4.421686746987955"/>
      <point x="282.7590361445783" y="99.06024096385543"/>
      <point x="282.7590361445783" y="262.1686746987952" type="curve" smooth="yes"/>
      <point x="282.7590361445783" y="306.69879518072287" type="line"/>
      <point x="385.6746987951807" y="306.69879518072287" type="line"/>
      <point x="385.6746987951807" y="0.0" type="line"/>
      <point x="563.6746987951808" y="0.0" type="line"/>
      <point x="563.6746987951808" y="442.1927710843374" type="line"/>
      <point x="121.144578313253" y="442.1927710843374" type="line"/>
      <point x="121.144578313253" y="268.0843373493976" type="line" smooth="yes"/>
      <point x="121.144578313253" y="179.14457831325302"/>
      <point x="90.2289156626506" y="133.5421686746988"/>
      <point x="13.891566265060241" y="124.13253012048193" type="curve"/>
    </contour>
  </outline>
</glyph>
<glyph name="em-cy" format="2">
  <advance width="716.289156626506"/>
  <unicode hex="043C"/>
  <anchor x="500.16867469879514" y="0.0" name="bottomright"/>
  <outline>
    <contour>
      <point x="60.14457831325302" y="0.0" type="line"/>
      <point x="216.12048192771084" y="0.0" type="line"/>
      <point x="216.12048192771084" y="259.9156626506024" type="line"/>
      <point x="182.8313253012048" y="259.9156626506024" type="line"/>
      <point x="318.28915662650604" y="72.4578313253012" type="line"/>
      <point x="398.1807228915663" y="72.4578313253012" type="line"/>
      <point x="533.4578313253012" y="259.9156626506024" type="line"/>
      <point x="500.16867469879514" y="259.9156626506024" type="line"/>
      <point x="500.16867469879514" y="0.0" type="line"/>
      <point x="656.1445783132531" y="0.0" type="line"/>
      <point x="656.1445783132531" y="442.1927710843374" type="line"/>
      <point x="512.5421686746987" y="442.1927710843374" type="line"/>
      <point x="358.96385542168673" y="226.6024096385542" type="line"/>
      <point x="204.289156626506" y="442.1927710843374" type="line"/>
      <point x="60.14457831325302" y="442.1927710843374" type="line"/>
    </contour>
  </outline>
</glyph>
<glyph name="en-cy" format="2">
  <advance width="632.9036144578313"/>
  <unicode hex="043D"/>
  <anchor x="406.95180722891564" y="0.0" name="bottomright"/>
  <outline>
    <contour>
      <point x="60.14457831325302" y="0.0" type="line"/>
      <point x="238.144578313253" y="0.0" type="line"/>
      <point x="238.144578313253" y="157.02409638554215" type="line"/>
      <point x="394.7590361445783" y="157.02409638554215" type="line"/>
      <point x="394.7590361445783" y="0.0" type="line"/>
      <point x="572.7590361445783" y="0.0" type="line"/>
      <point x="572.7590361445783" y="442.1927710843374" type="line"/>
      <point x="394.7590361445783" y="442.1927710843374" type="line"/>
      <point x="394.7590361445783" y="292.51807228915663" type="line"/>
      <point x="238.144578313253" y="292.51807228915663" type="line"/>
      <point x="238.144578313253" y="442.1927710843374" type="line"/>
      <point x="60.14457831325302" y="442.1927710843374" type="line"/>
    </contour>
  </outline>
</glyph>
<glyph name="ef-cy" format="2">
  <advance width="890.3614457831326"/>
  <unicode hex="0444"/>
  <outline>
    <contour>
      <point x="356.3614457831325" y="-180.0" type="line"/>
      <point x="534.3614457831325" y="-180.0" type="line"/>
      <point x="534.3614457831325" y="73.40963855421688" type="line"/>
      <point x="521.9036144578313" y="73.40963855421688" type="line"/>
      <point x="545.1807228915662" y="22.530120481927714"/>
      <point x="592.3614457831326" y="-11.27710843373494"/>
      <point x="661.0843373493975" y="-11.27710843373494" type="curve" smooth="yes"/>
      <point x="773.6385542168674" y="-11.27710843373494"/>
      <point x="852.3855421686748" y="82.63855421686748"/>
      <point x="852.3855421686748" y="221.27710843373495" type="curve" smooth="yes"/>
      <point x="852.3855421686748" y="361.7349397590362"/>
      <point x="772.6385542168675" y="453.4698795180723"/>
      <point x="661.0843373493975" y="453.4698795180723" type="curve" smooth="yes"/>
      <point x="591.5421686746987" y="453.4698795180723"/>
      <point x="543.3614457831325" y="418.8433734939759"/>
      <point x="521.9036144578313" y="369.7831325301205" type="curve"/>
      <point x="534.3614457831325" y="369.7831325301205" type="line"/>
      <point x="534.3614457831325" y="705.0" type="line"/>
      <point x="356.3614457831325" y="705.0" type="line"/>
      <point x="356.3614457831325" y="371.421686746988" type="line"/>
      <point x="367.6385542168675" y="371.421686746988" type="line"/>
      <point x="345.3614457831325" y="421.3012048192771"/>
      <point x="298.3614457831326" y="453.4698795180723"/>
      <point x="229.27710843373492" y="453.4698795180723" type="curve" smooth="yes"/>
      <point x="117.90361445783132" y="453.4698795180723"/>
      <point x="38.795180722891565" y="361.7349397590362"/>
      <point x="38.795180722891565" y="221.27710843373495" type="curve" smooth="yes"/>
      <point x="38.795180722891565" y="82.63855421686748"/>
      <point x="117.90361445783132" y="-11.27710843373494"/>
      <point x="229.27710843373492" y="-11.27710843373494" type="curve" smooth="yes"/>
      <point x="297.5421686746988" y="-11.27710843373494"/>
      <point x="343.90361445783134" y="20.07228915662651"/>
      <point x="367.6385542168675" y="70.95180722891567" type="curve"/>
      <point x="356.3614457831325" y="70.95180722891567" type="line"/>
    </contour>
    <contour>
      <point x="287.1686746987952" y="116.84337349397589" type="curve" smooth="yes"/>
      <point x="242.03614457831324" y="116.84337349397589"/>
      <point x="214.33734939759034" y="150.89156626506025"/>
      <point x="214.33734939759034" y="221.91566265060243" type="curve" smooth="yes"/>
      <point x="214.33734939759034" y="292.578313253012"/>
      <point x="243.03614457831324" y="326.1686746987952"/>
      <point x="287.1686746987952" y="326.1686746987952" type="curve" smooth="yes"/>
      <point x="330.3012048192771" y="326.1686746987952"/>
      <point x="359.0" y="292.2168674698795"/>
      <point x="359.0" y="221.91566265060243" type="curve" smooth="yes"/>
      <point x="359.0" y="151.2530120481928"/>
      <point x="331.3012048192771" y="116.84337349397589"/>
    </contour>
    <contour>
      <point x="604.1927710843374" y="116.84337349397589" type="curve" smooth="yes"/>
      <point x="560.0602409638554" y="116.84337349397589"/>
      <point x="531.722891566265" y="151.2530120481928"/>
      <point x="531.722891566265" y="221.91566265060243" type="curve" smooth="yes"/>
      <point x="531.722891566265" y="292.2168674698795"/>
      <point x="559.2409638554217" y="326.1686746987952"/>
      <point x="604.1927710843374" y="326.1686746987952" type="curve" smooth="yes"/>
      <point x="648.3253012048193" y="326.1686746987952"/>
      <point x="676.843373493976" y="292.578313253012"/>
      <point x="676.843373493976" y="221.91566265060243" type="curve" smooth="yes"/>
      <point x="676.843373493976" y="150.89156626506025"/>
      <point x="648.5060240963855" y="116.84337349397589"/>
    </contour>
  </outline>
</glyph>
<glyph name="tse-cy" format="2">
  <advance width="653.6506024096386"/>
  <unicode hex="0446"/>
  <outline>
    <contour>
      <point x="490.2530120481928" y="-130.0" type="line"/>
      <point x="640.3132530120482" y="-130.0" type="line"/>
      <point x="640.3132530120482" y="135.49397590361446" type="line"/>
      <point x="557.1204819277109" y="135.49397590361446" type="line"/>
      <point x="557.1204819277109" y="442.1927710843374" type="line"/>
      <point x="379.12048192771084" y="442.1927710843374" type="line"/>
      <point x="379.12048192771084" y="135.49397590361446" type="line"/>
      <point x="238.144578313253" y="135.49397590361446" type="line"/>
      <point x="238.144578313253" y="442.1927710843374" type="line"/>
      <point x="60.14457831325302" y="442.1927710843374" type="line"/>
      <point x="60.14457831325302" y="0.0" type="line"/>
      <point x="490.2530120481928" y="0.0" type="line"/>
    </contour>
  </outline>
</glyph>
<glyph name="che-cy" format="2">
  <advance width="600.1807228915662"/>
  <unicode hex="0447"/>
  <anchor x="374.2289156626506" y="0.0" name="bottomright"/>
  <anchor x="290.4096385542168" y="180.0" name="center"/>
  <anchor x="290.4096385542168" y="484.0" name="top"/>
  <outline>
    <contour>
      <point x="365.9518072289157" y="0.0" type="line"/>
      <point x="540.0361445783133" y="0.0" type="line"/>
      <point x="540.0361445783133" y="442.1927710843374" type="line"/>
      <point x="362.0361445783132" y="442.1927710843374" type="line"/>
      <point x="362.0361445783132" y="270.5060240963855" type="line"/>
      <point x="346.89156626506025" y="262.34939759036143"/>
      <point x="327.1927710843374" y="258.5421686746988"/>
      <point x="305.87951807228916" y="258.5421686746988" type="curve" smooth="yes"/>
      <point x="241.20481927710844" y="258.5421686746988"/>
      <point x="218.14457831325302" y="287.51807228915663"/>
      <point x="218.14457831325302" y="351.8313253012048" type="curve" smooth="yes"/>
      <point x="218.14457831325302" y="442.1927710843374" type="line"/>
      <point x="40.144578313253014" y="442.1927710843374" type="line"/>
      <point x="40.144578313253014" y="335.90361445783134" type="line" smooth="yes"/>
      <point x="40.144578313253014" y="193.87951807228916"/>
      <point x="116.53012048192771" y="118.13253012048193"/>
      <point x="269.1927710843374" y="118.13253012048193" type="curve" smooth="yes"/>
      <point x="299.6144578313253" y="118.13253012048193"/>
      <point x="331.86746987951807" y="122.93975903614458"/>
      <point x="365.9518072289157" y="133.65060240963854" type="curve"/>
    </contour>
  </outline>
</glyph>
<glyph name="hardsign-cy" format="2">
  <advance width="656.6265060240963"/>
  <unicode hex="044A"/>
  <outline>
    <contour>
      <point x="144.33734939759037" y="0.0" type="line"/>
      <point x="444.3614457831325" y="0.0" type="line" smooth="yes"/>
      <point x="561.2771084337348" y="0.0"/>
      <point x="633.5662650602409" y="62.9277108433735"/>
      <point x="633.5662650602409" y="161.3975903614458" type="curve" smooth="yes"/>
      <point x="633.5662650602409" y="262.32530120481925"/>
      <point x="569.6506024096385" y="314.421686746988"/>
      <point x="444.3614457831325" y="314.421686746988" type="curve" smooth="yes"/>
      <point x="322.33734939759034" y="314.421686746988" type="line"/>
      <point x="322.33734939759034" y="442.1927710843374" type="line"/>
      <point x="8.91566265060241" y="442.1927710843374" type="line"/>
      <point x="8.91566265060241" y="304.3253012048193" type="line"/>
      <point x="144.33734939759037" y="304.3253012048193" type="line"/>
    </contour>
    <contour>
      <point x="322.33734939759034" y="107.09638554216868" type="line"/>
      <point x="322.33734939759034" y="208.32530120481925" type="line"/>
      <point x="408.6746987951807" y="208.32530120481925" type="line" smooth="yes"/>
      <point x="449.53012048192767" y="208.32530120481925"/>
      <point x="472.5903614457832" y="191.710843373494"/>
      <point x="472.5903614457832" y="158.3012048192771" type="curve" smooth="yes"/>
      <point x="472.5903614457832" y="124.34939759036145"/>
      <point x="448.5301204819277" y="107.09638554216868"/>
      <point x="408.6746987951807" y="107.09638554216868" type="curve" smooth="yes"/>
    </contour>
  </outline>
</glyph>
